<svg width="28" height="28" viewBox="0 0 28 28" fill="none" xmlns="http://www.w3.org/2000/svg">
<path d="M23.4803 22.1379C23.4074 21.4272 23.0124 20.7922 22.3964 20.396L18.2204 17.7116C17.2455 17.0851 15.9421 17.2118 15.1146 18.0083L13.78 19.306C13.4763 19.408 12.0721 18.834 10.264 17.0898C8.45515 15.3447 7.86797 14.0022 7.94486 13.7349L9.31391 12.4148C10.1406 11.6176 10.2704 10.3576 9.62152 9.41987L6.83777 5.39297C6.42679 4.79891 5.7683 4.41812 5.03133 4.34782C4.29272 4.27674 3.57336 4.52702 3.05022 5.03147L0.984997 7.02294C-1.84525 9.7521 1.84058 15.7496 6.74802 20.4826C10.0843 23.6997 17.3852 29.2459 20.7061 26.0398L22.7714 24.0483C23.2944 23.5446 23.5532 22.8478 23.4803 22.1379Z" fill="#5984d6"/>
<path d="M15.6953 0C15.2419 0 14.875 0.353795 14.875 0.791016C14.875 1.22824 15.2419 1.58203 15.6953 1.58203C21.5753 1.58203 26.3594 6.19524 26.3594 11.8652C26.3594 12.3025 26.7263 12.6563 27.1797 12.6563C27.6331 12.6563 28 12.3025 28 11.8652C28 5.32238 22.4805 0 15.6953 0ZM15.6953 3.16406C15.2419 3.16406 14.875 3.51786 14.875 3.95508C14.875 4.3923 15.2419 4.7461 15.6953 4.7461C19.7664 4.7461 23.0781 7.93953 23.0781 11.8652C23.0781 12.3025 23.445 12.6563 23.8984 12.6563C24.3519 12.6563 24.7188 12.3025 24.7188 11.8652C24.7188 7.06741 20.6708 3.16406 15.6953 3.16406ZM15.6953 6.32813C15.2419 6.32813 14.875 6.68192 14.875 7.11914C14.875 7.55637 15.2419 7.91016 15.6953 7.91016C17.9568 7.91016 19.7969 9.68451 19.7969 11.8652C19.7969 12.3025 20.1638 12.6563 20.6172 12.6563C21.0706 12.6563 21.4375 12.3025 21.4375 11.8652C21.4375 8.81239 18.8612 6.32813 15.6953 6.32813ZM15.6953 9.49219C15.2419 9.49219 14.875 9.84599 14.875 10.2832C14.875 10.7204 15.2419 11.0742 15.6953 11.0742C16.1479 11.0742 16.5156 11.4288 16.5156 11.8652C16.5156 12.3025 16.8825 12.6563 17.3359 12.6563C17.7894 12.6563 18.1563 12.3025 18.1563 11.8652C18.1563 10.5567 17.0523 9.49219 15.6953 9.49219Z" fill="#5984d6"/>
</svg>
