<svg width="48" height="33" viewBox="0 0 48 33" fill="none" xmlns="http://www.w3.org/2000/svg">
<path d="M25.4346 30.0592C25.1542 30.127 24.8684 30.1872 24.5846 30.2379C23.843 30.3718 23.3526 31.0641 23.4898 31.7847C23.5576 32.1391 23.765 32.4344 24.0466 32.6271C24.3368 32.8254 24.7062 32.9149 25.0826 32.8469C25.4205 32.7861 25.761 32.7145 26.0951 32.6336C26.8275 32.4566 27.2737 31.7365 27.091 31.026C26.9087 30.3148 26.1674 29.8821 25.4346 30.0592Z" fill="white"/>
<path d="M35.5422 12.2772C35.6379 12.5572 35.8207 12.7859 36.0516 12.9438C36.3939 13.1779 36.8419 13.2566 37.2694 13.1194C37.9861 12.8884 38.3744 12.1383 38.1373 11.4431C38.0293 11.1261 37.9094 10.8082 37.7817 10.4986C37.5013 9.81835 36.7063 9.48714 36.005 9.75926C35.3045 10.0312 34.9631 10.8031 35.2437 11.4836C35.351 11.7438 35.4515 12.0109 35.5422 12.2772Z" fill="white"/>
<path d="M29.8759 28.1653C29.6348 28.3198 29.3859 28.4694 29.1352 28.6095C28.4812 28.9757 28.2572 29.7871 28.6343 30.4216C28.7367 30.5942 28.8731 30.7353 29.0301 30.8432C29.4518 31.1311 30.0244 31.1742 30.5011 30.9076C30.7992 30.7408 31.0956 30.5633 31.3827 30.379C32.0123 29.9753 32.1856 29.1522 31.7694 28.5409C31.3533 27.9293 30.5057 27.7614 29.8759 28.1653Z" fill="white"/>
<path d="M38.9874 15.9816C38.9577 15.2494 38.3223 14.6795 37.5676 14.7081C36.814 14.7369 36.2264 15.3539 36.256 16.0858C36.2673 16.3657 36.2702 16.6497 36.2636 16.9292C36.253 17.3884 36.4844 17.7977 36.8439 18.0437C37.0582 18.1902 37.3181 18.2788 37.6 18.285C38.3544 18.3012 38.9796 17.7205 38.9963 16.9879C39.0039 16.6539 39.001 16.3154 38.9874 15.9816Z" fill="white"/>
<path d="M35.3192 24.676C34.7143 24.2355 33.8584 24.3551 33.4054 24.9412C33.2318 25.1656 33.0491 25.3873 32.862 25.6007C32.3731 26.1583 32.4421 26.9958 33.0166 27.4707C33.0493 27.4977 33.0825 27.5224 33.1168 27.5457C33.6879 27.9365 34.4816 27.8467 34.9434 27.3207C35.1668 27.0661 35.3846 26.8013 35.592 26.5332C36.0451 25.9471 35.9225 25.1159 35.3192 24.676Z" fill="white"/>
<path d="M37.3286 19.8775C36.6083 19.6583 35.8413 20.0475 35.6156 20.7466C35.5292 21.0136 35.4334 21.282 35.3301 21.5448C35.1032 22.1234 35.3206 22.76 35.819 23.1011C35.9105 23.1635 36.0112 23.2163 36.1206 23.2565C36.8258 23.5177 37.6155 23.1743 37.8843 22.4895C38.007 22.177 38.1209 21.8577 38.2239 21.5402C38.4494 20.841 38.0487 20.0967 37.3286 19.8775Z" fill="white"/>
<path d="M19.4711 30.2492C18.2491 30.0362 17.0768 29.6736 15.9653 29.1678C15.9521 29.1611 15.9403 29.1535 15.9265 29.1474C15.6646 29.0278 15.4031 28.8996 15.1496 28.7656C15.1487 28.7647 15.1471 28.764 15.1457 28.7634C14.6807 28.5149 14.2268 28.2399 13.7859 27.9386C7.35629 23.5426 5.81036 14.8891 10.3398 8.64869C11.3248 7.29223 12.5167 6.16057 13.8455 5.26364C13.8618 5.25258 13.8782 5.24158 13.8944 5.23044C18.5769 2.09899 24.9349 1.88795 29.9069 5.10581L28.8391 6.60336C28.5422 7.02019 28.7248 7.32394 29.2446 7.27854L33.8832 6.87548C34.4035 6.83008 34.7147 6.39317 34.5748 5.90541L33.3292 1.54944C33.1897 1.06111 32.8327 1.00265 32.5355 1.41941L31.4652 2.92051C27.8164 0.543194 23.44 -0.363312 19.0962 0.367767C18.6587 0.441258 18.2274 0.531206 17.8019 0.635909C17.7986 0.636477 17.796 0.636832 17.7934 0.637399C17.7769 0.641301 17.7603 0.646479 17.7443 0.650806C13.9986 1.58441 10.7305 3.7048 8.39851 6.73013C8.37885 6.75276 8.3586 6.77489 8.34004 6.7995C8.2625 6.90087 8.18554 7.00458 8.11018 7.10829C7.98696 7.27826 7.86549 7.45248 7.74928 7.6267C7.73474 7.6477 7.72363 7.66905 7.71091 7.69026C5.78653 10.5846 4.85833 13.9307 5.01751 17.3372C5.01788 17.3484 5.01722 17.3597 5.01751 17.3712C5.03293 17.704 5.06012 18.0414 5.09703 18.3735C5.099 18.3949 5.1039 18.4152 5.10763 18.4366C5.14578 18.7706 5.19365 19.1053 5.25366 19.44C5.86349 22.8548 7.52315 25.9276 10.0101 28.3185C10.0158 28.3241 10.0218 28.3302 10.0277 28.336C10.0297 28.3382 10.032 28.3394 10.034 28.3414C10.7021 28.9811 11.4289 29.5727 12.2115 30.1076C14.2593 31.5082 16.5397 32.434 18.9887 32.8606C19.7318 32.9902 20.4416 32.5101 20.5749 31.7892C20.7082 31.0678 20.2139 30.3783 19.4711 30.2492Z" fill="white"/>
<path d="M21.161 5.90234C20.5498 5.90234 20.0547 6.3833 20.0547 6.9757V17.6693L30.1312 22.725C30.2934 22.8065 30.467 22.8449 30.6379 22.8449C31.0381 22.8449 31.4247 22.6334 31.6212 22.2643C31.9015 21.7375 31.6894 21.0904 31.1466 20.8183L22.2661 16.3622V6.9757C22.266 6.3833 21.7715 5.90234 21.161 5.90234Z" fill="white"/>
</svg>
