<svg width="65" height="65" viewBox="0 0 65 65" fill="none" xmlns="http://www.w3.org/2000/svg">
<path d="M22.8898 51.5677L24.5992 50.3768L25.7979 52.0973L24.0885 53.2883L22.8898 51.5677Z" fill="#DF0A0A"/>
<path d="M26.6936 48.9168L40.967 38.9723L42.1657 40.6929L27.8923 50.6374L26.6936 48.9168Z" fill="#DF0A0A"/>
<path d="M62.2375 14.2455C61.8894 13.0304 61.404 11.8604 60.7897 10.7523L62.2847 8.33782L56.6622 2.71532L54.2477 4.21032C53.1396 3.59597 51.9696 3.11056 50.7545 2.7625L50.1045 0H42.1535L41.5035 2.7625C40.2885 3.11056 39.1185 3.59597 38.0103 4.21032L35.5959 2.71532L29.9734 8.33782L31.4684 10.7523C30.854 11.8604 30.3686 13.0304 30.0206 14.2455L27.2581 14.8955V16.9042C26.7622 17.029 26.2883 17.2397 25.8784 17.5479L18.8007 22.8548C18.6204 22.9901 18.3971 23.0645 18.1717 23.0645H15.6094C16.9734 21.731 17.8226 19.8753 17.8226 17.8226C17.8226 13.7769 14.5296 10.4839 10.4839 10.4839C6.43814 10.4839 3.14516 13.7769 3.14516 17.8226C3.14516 20.2213 4.30677 22.3474 6.09218 23.6873C2.5371 25.0407 0 28.4752 0 32.5V60.8064C0 63.1192 1.88081 65 4.19355 65H65V14.8955L62.2375 14.2455ZM5.24194 17.8226C5.24194 14.9322 7.59347 12.5806 10.4839 12.5806C13.3743 12.5806 15.7258 14.9322 15.7258 17.8226C15.7258 20.713 13.3743 23.0645 10.4839 23.0645C7.59347 23.0645 5.24194 20.713 5.24194 17.8226ZM2.09677 32.5C2.09677 28.4543 5.38976 25.1613 9.43548 25.1613H18.1717C18.849 25.1613 19.5189 24.9369 20.0588 24.5312L27.1354 19.2243C27.4405 18.9968 27.8169 18.871 28.1974 18.871H28.6356C29.6096 18.871 30.4032 19.6646 30.4032 20.6396C30.4032 21.189 30.1548 21.6974 29.7207 22.035L23.076 27.2035C22.1619 27.9144 21.0191 28.3064 19.8575 28.3064H11.5323V39.8387H15.7258C17.4598 39.8387 18.871 41.2498 18.871 42.9839V52.4183C18.871 53.5757 17.9306 54.5161 16.7731 54.5161C16.2133 54.5161 15.686 54.2981 15.2897 53.9018C14.8944 53.5055 14.6764 52.9792 14.6764 52.4194L14.6774 46.129C14.6774 44.9727 13.737 44.0323 12.5806 44.0323H5.24194C3.5079 44.0323 2.09677 42.6211 2.09677 40.8871V32.5ZM15.7258 37.7419H13.629V30.4032H19.8575C21.4825 30.4032 23.0823 29.8549 24.3635 28.8569L30.269 24.2639C30.5888 25.2053 30.984 26.1185 31.4684 26.9897L29.9734 29.4041L35.5959 35.0266L38.0103 33.5316C38.6698 33.8975 39.3575 34.2015 40.0578 34.4741L20.9677 47.7624V42.9839C20.9677 40.0935 18.6162 37.7419 15.7258 37.7419ZM8.3871 46.129H12.5806L12.5796 52.4183C12.5796 52.7831 12.6415 53.1343 12.7306 53.4782L8.3871 56.5133V46.129ZM2.09677 60.8064V45.0534C2.97532 45.7191 4.05726 46.129 5.24194 46.129H6.29032V60.8064C6.29032 61.9628 5.34992 62.9032 4.19355 62.9032C3.03718 62.9032 2.09677 61.9628 2.09677 60.8064ZM62.9032 62.9032H7.80419C8.16484 62.2836 8.3871 61.5739 8.3871 60.8064V59.0714L13.7548 55.3202C13.7737 55.3402 13.7873 55.3643 13.8073 55.3842C14.5998 56.1768 15.6535 56.6129 16.7731 56.6129C19.0859 56.6129 20.9677 54.731 20.9677 52.4183V50.3163L41.7143 35.8758L42.1535 37.7419H50.1045L50.7545 34.9794C51.9696 34.6314 53.1396 34.146 54.2477 33.5316L56.6622 35.0266L62.2847 29.4041L60.7897 26.9897C61.404 25.8815 61.8894 24.7115 62.2375 23.4965L62.9032 23.3402V62.9032ZM62.9032 21.1858L60.5202 21.7467L60.3672 22.3715C60.0149 23.8141 59.4435 25.1896 58.6719 26.4634L58.3385 27.0117L59.627 29.0938L56.3529 32.3679L54.2708 31.0794L53.7225 31.4128C52.4487 32.1844 51.0732 32.7558 49.6306 33.1081L49.0058 33.2611L48.4439 35.6452H43.8142L43.2533 33.2622L42.6285 33.1091C41.1859 32.7569 39.8104 32.1855 38.5366 31.4139L37.9883 31.0805L35.9062 32.3689L32.6321 29.0948L33.9206 27.0127L33.5872 26.4644C32.8533 25.2546 32.3081 23.9504 31.9527 22.5854C32.2956 22.0014 32.5 21.341 32.5 20.6396C32.5 18.7546 31.1423 17.1862 29.3548 16.8476V16.5572L31.7378 15.9963L31.8909 15.3715C32.2431 13.9289 32.8145 12.5534 33.5861 11.2796L33.9195 10.7313L32.631 8.64919L35.9052 5.37508L37.9873 6.66355L38.5356 6.33016C39.8094 5.55855 41.1848 4.98718 42.6274 4.63492L43.2523 4.48185L43.8142 2.09677H48.4439L49.0048 4.47976L49.6296 4.63282C51.0722 4.98508 52.4477 5.55645 53.7215 6.32806L54.2698 6.66145L56.3519 5.37298L59.626 8.6471L58.3375 10.7292L58.6709 11.2775C59.4425 12.5513 60.0139 13.9268 60.3661 15.3694L60.5192 15.9942L62.9032 16.5561V21.1858Z" fill="#DF0A0A"/>
<path d="M46.129 6.29032C39.1919 6.29032 33.5484 11.9338 33.5484 18.871C33.5484 25.8081 39.1919 31.4516 46.129 31.4516C53.0662 31.4516 58.7097 25.8081 58.7097 18.871C58.7097 11.9338 53.0662 6.29032 46.129 6.29032ZM46.129 29.3548C40.3482 29.3548 35.6452 24.6518 35.6452 18.871C35.6452 13.0902 40.3482 8.3871 46.129 8.3871C51.9098 8.3871 56.6129 13.0902 56.6129 18.871C56.6129 24.6518 51.9098 29.3548 46.129 29.3548Z" fill="#DF0A0A"/>
<path d="M46.129 12.5806C42.6599 12.5806 39.8387 15.4019 39.8387 18.871C39.8387 22.3401 42.6599 25.1613 46.129 25.1613C49.5981 25.1613 52.4194 22.3401 52.4194 18.871C52.4194 15.4019 49.5981 12.5806 46.129 12.5806ZM46.129 23.0645C43.8163 23.0645 41.9355 21.1837 41.9355 18.871C41.9355 16.5582 43.8163 14.6774 46.129 14.6774C48.4418 14.6774 50.3226 16.5582 50.3226 18.871C50.3226 21.1837 48.4418 23.0645 46.129 23.0645Z" fill="#DF0A0A"/>
<path d="M58.7097 58.7097H60.8064V60.8064H58.7097V58.7097Z" fill="#DF0A0A"/>
<path d="M58.7097 54.5161H60.8064V56.6129H58.7097V54.5161Z" fill="#DF0A0A"/>
<path d="M58.7097 50.3226H60.8064V52.4194H58.7097V50.3226Z" fill="#DF0A0A"/>
<path d="M10.4839 58.7097H12.5806V60.8064H10.4839V58.7097Z" fill="#DF0A0A"/>
<path d="M14.6774 58.7097H16.7742V60.8064H14.6774V58.7097Z" fill="#DF0A0A"/>
<path d="M18.871 58.7097H20.9677V60.8064H18.871V58.7097Z" fill="#DF0A0A"/>
</svg>
