<svg width="65" height="67" viewBox="0 0 65 67" fill="none" xmlns="http://www.w3.org/2000/svg">
<path d="M62.2172 33.093C61.7003 33.0911 61.1932 33.2342 60.7535 33.506C60.3138 33.7778 59.9591 34.1675 59.7297 34.6307L54.758 44.5731L51.7013 47.6298L50.7085 48.1273L52.3323 45.2846C52.7412 44.5733 52.8631 43.7328 52.673 42.9347C52.483 42.1365 51.9954 41.4411 51.3098 40.9905C50.6243 40.5398 49.7925 40.3679 48.9845 40.51C48.1764 40.652 47.4531 41.0972 46.9623 41.7546L41.545 48.9778C41.4739 49.0726 41.4187 49.1784 41.3817 49.2911L39.1755 55.9097C39.1517 55.9783 39.1354 56.0493 39.127 56.1215L38.0238 64.9464C38.0045 65.1015 38.0183 65.2591 38.0644 65.4085C38.1105 65.5579 38.1879 65.6958 38.2914 65.8131C38.3949 65.9303 38.5221 66.0242 38.6646 66.0886C38.8072 66.1529 38.9618 66.1862 39.1181 66.1863H49.0461C49.3387 66.1863 49.6193 66.07 49.8261 65.8632C50.033 65.6563 50.1492 65.3757 50.1492 65.0832V60.7479C50.1492 60.5664 50.194 60.3876 50.2796 60.2275C50.3652 60.0674 50.4891 59.9309 50.6401 59.8302L56.277 56.073C56.398 55.9923 56.5018 55.8884 56.5825 55.7674L60.995 49.1488C61.0548 49.0602 61.1009 48.9631 61.1318 48.8608L64.8768 36.6925C65.005 36.2763 65.0336 35.836 64.9605 35.4068C64.8873 34.9775 64.7144 34.5715 64.4557 34.2213C64.1969 33.8712 63.8596 33.5866 63.4708 33.3907C63.082 33.1947 62.6526 33.0927 62.2172 33.093ZM62.7688 36.0438L59.0701 48.0578L54.8694 54.3598L49.4168 57.9946C48.963 58.2963 48.5909 58.7056 48.3337 59.186C48.0766 59.6664 47.9424 60.203 47.943 60.7479V63.98H40.368L41.3023 56.5043L43.4203 50.1581L48.7306 43.0795C48.8849 42.8724 49.1124 42.7321 49.3666 42.6872C49.6209 42.6424 49.8827 42.6963 50.0985 42.838C50.3143 42.9797 50.4679 43.1985 50.5277 43.4497C50.5876 43.7008 50.5493 43.9653 50.4206 44.1892L46.9855 50.1912C46.8638 50.3968 46.8122 50.6364 46.8385 50.8739C46.8647 51.1114 46.9673 51.3339 47.1309 51.5081C47.2944 51.6822 47.5101 51.7986 47.7455 51.8396C47.9809 51.8806 48.2232 51.8441 48.4361 51.7355L52.8485 49.5293C52.9547 49.4761 53.0515 49.4061 53.1353 49.3219L56.4447 46.0126C56.5288 45.9288 56.5988 45.832 56.652 45.7258L61.7032 35.6224C61.7496 35.5255 61.8225 35.4438 61.9135 35.3866C62.0045 35.3294 62.1098 35.2991 62.2172 35.2992C62.3074 35.2991 62.3963 35.3201 62.4768 35.3606C62.5574 35.401 62.6273 35.4599 62.6809 35.5323C62.7346 35.6047 62.7705 35.6888 62.7858 35.7776C62.801 35.8665 62.7952 35.9576 62.7688 36.0438Z" fill="#DF0A0A"/>
<path d="M25.8235 55.9097L23.6173 49.2911C23.5803 49.1784 23.5251 49.0726 23.454 48.9778L18.0366 41.7546C17.5458 41.0972 16.8225 40.652 16.0145 40.51C15.2065 40.3679 14.3747 40.5398 13.6891 40.9905C13.0036 41.4411 12.516 42.1365 12.3259 42.9347C12.1359 43.7328 12.2578 44.5733 12.6667 45.2846L14.2905 48.1284L13.2977 47.6309L10.241 44.5742L5.26926 34.6307C4.9567 34.007 4.42121 33.5235 3.76893 33.276C3.11666 33.0285 2.3952 33.0352 1.74758 33.2946C1.09995 33.554 0.573428 34.0473 0.27237 34.6766C-0.0286872 35.306 -0.0823022 36.0254 0.122153 36.6925L3.86721 48.8608C3.89806 48.9631 3.94418 49.0602 4.00399 49.1488L8.41642 55.7674C8.49714 55.8884 8.60098 55.9923 8.72198 56.073L14.3589 59.8302C14.5099 59.9309 14.6337 60.0674 14.7194 60.2275C14.805 60.3876 14.8498 60.5664 14.8498 60.7479V65.0832C14.8498 65.3757 14.966 65.6563 15.1728 65.8632C15.3797 66.07 15.6603 66.1863 15.9529 66.1863H25.8808C26.0372 66.1862 26.1918 66.1529 26.3343 66.0886C26.4769 66.0242 26.6041 65.9303 26.7076 65.8131C26.8111 65.6958 26.8884 65.5579 26.9346 65.4085C26.9807 65.2591 26.9945 65.1015 26.9751 64.9464L25.872 56.1215C25.8636 56.0493 25.8473 55.9783 25.8235 55.9097ZM17.056 63.98V60.7479C17.0573 60.2023 16.9234 59.6648 16.6663 59.1835C16.4091 58.7023 16.0366 58.2923 15.5822 57.9902L10.1296 54.3554L5.92892 48.0578L2.2324 36.0438C2.20603 35.9578 2.20018 35.8668 2.21532 35.7782C2.23046 35.6895 2.26616 35.6056 2.31957 35.5332C2.37298 35.4608 2.4426 35.4019 2.52286 35.3613C2.60312 35.3207 2.69179 35.2994 2.78175 35.2992C2.88861 35.2986 2.9935 35.328 3.08441 35.3842C3.17532 35.4404 3.24858 35.521 3.2958 35.6169L8.34693 45.7203C8.40017 45.8264 8.4702 45.9233 8.55431 46.0071L11.8636 49.3164C11.9475 49.4005 12.0443 49.4706 12.1504 49.5238L16.5629 51.73C16.7751 51.837 17.0163 51.8726 17.2504 51.8315C17.4845 51.7903 17.6991 51.6746 17.8622 51.5017C18.0252 51.3287 18.128 51.1077 18.1553 50.8715C18.1826 50.6354 18.1328 50.3968 18.0135 50.1912L14.5817 44.1837C14.453 43.9598 14.4147 43.6953 14.4746 43.4441C14.5344 43.193 14.688 42.9742 14.9038 42.8325C15.1196 42.6908 15.3814 42.6368 15.6356 42.6817C15.8899 42.7266 16.1174 42.8669 16.2717 43.0739L21.5787 50.1581L23.6934 56.5043L24.631 63.98H17.056Z" fill="#DF0A0A"/>
<path d="M13.7466 37.5054H51.2523C51.5449 37.5054 51.8255 37.3892 52.0323 37.1824C52.2392 36.9755 52.3554 36.6949 52.3554 36.4023V27.5775C52.3554 26.6998 52.0068 25.858 51.3862 25.2374C50.7655 24.6168 49.9238 24.2681 49.0461 24.2681H48.6247C49.305 23.6793 49.7889 22.8965 50.0118 22.0248C50.2346 21.1531 50.1856 20.2341 49.8714 19.3911C49.5572 18.548 48.9927 17.8211 48.2537 17.3079C47.5147 16.7947 46.6365 16.5196 45.7368 16.5196C44.8371 16.5196 43.9588 16.7947 43.2198 17.3079C42.4809 17.8211 41.9164 18.548 41.6022 19.3911C41.288 20.2341 41.239 21.1531 41.4618 22.0248C41.6846 22.8965 42.1686 23.6793 42.8488 24.2681H42.4275C41.901 24.2716 41.3832 24.4026 40.9184 24.6498C40.5688 23.8799 40.0053 23.2267 39.295 22.7679C38.5847 22.3091 37.7575 22.064 36.9119 22.0619H35.5816C36.3895 21.422 36.9782 20.5464 37.266 19.5568C37.5538 18.5671 37.5264 17.5124 37.1876 16.539C36.8488 15.5655 36.2154 14.7217 35.3754 14.1246C34.5353 13.5275 33.5302 13.2067 32.4995 13.2067C31.4688 13.2067 30.4637 13.5275 29.6236 14.1246C28.7835 14.7217 28.1501 15.5655 27.8113 16.539C27.4725 17.5124 27.4451 18.5671 27.7329 19.5568C28.0207 20.5464 28.6095 21.422 29.4174 22.0619H28.0871C27.2415 22.064 26.4143 22.3091 25.704 22.7679C24.9937 23.2267 24.4302 23.8799 24.0806 24.6498C23.6157 24.4026 23.098 24.2716 22.5715 24.2681H22.1501C22.8304 23.6793 23.3143 22.8965 23.5372 22.0248C23.76 21.1531 23.711 20.2341 23.3968 19.3911C23.0826 18.548 22.5181 17.8211 21.7791 17.3079C21.0401 16.7947 20.1619 16.5196 19.2622 16.5196C18.3625 16.5196 17.4842 16.7947 16.7452 17.3079C16.0063 17.8211 15.4418 18.548 15.1276 19.3911C14.8134 20.2341 14.7644 21.1531 14.9872 22.0248C15.21 22.8965 15.694 23.6793 16.3742 24.2681H15.9529C15.0752 24.2681 14.2334 24.6168 13.6128 25.2374C12.9922 25.858 12.6435 26.6998 12.6435 27.5775V36.4023C12.6435 36.6949 12.7598 36.9755 12.9666 37.1824C13.1735 37.3892 13.4541 37.5054 13.7466 37.5054ZM45.7368 18.7526C46.1731 18.7526 46.5997 18.882 46.9625 19.1244C47.3253 19.3668 47.6081 19.7114 47.7751 20.1145C47.942 20.5177 47.9857 20.9613 47.9006 21.3892C47.8155 21.8172 47.6054 22.2103 47.2968 22.5189C46.9883 22.8274 46.5952 23.0375 46.1672 23.1226C45.7392 23.2078 45.2956 23.1641 44.8925 22.9971C44.4894 22.8301 44.1448 22.5473 43.9024 22.1845C43.66 21.8217 43.5306 21.3952 43.5306 20.9588C43.5306 20.3737 43.763 19.8125 44.1768 19.3988C44.5905 18.985 45.1517 18.7526 45.7368 18.7526ZM41.3243 27.5775C41.3243 27.2849 41.4406 27.0043 41.6474 26.7975C41.8543 26.5906 42.1349 26.4744 42.4275 26.4744H49.0461C49.3387 26.4744 49.6193 26.5906 49.8261 26.7975C50.033 27.0043 50.1492 27.2849 50.1492 27.5775V35.2992H41.3243V27.5775ZM32.4995 15.4433C33.0449 15.4433 33.5781 15.605 34.0316 15.908C34.4851 16.2111 34.8386 16.6418 35.0473 17.1457C35.2561 17.6496 35.3107 18.2041 35.2043 18.7391C35.0979 19.274 34.8352 19.7654 34.4495 20.1511C34.0638 20.5368 33.5725 20.7994 33.0375 20.9058C32.5025 21.0122 31.948 20.9576 31.4441 20.7489C30.9402 20.5402 30.5095 20.1867 30.2065 19.7332C29.9035 19.2797 29.7417 18.7465 29.7417 18.2011C29.7417 17.4696 30.0323 16.7682 30.5494 16.251C31.0666 15.7338 31.7681 15.4433 32.4995 15.4433ZM25.8808 26.4744C25.8808 25.8892 26.1133 25.3281 26.527 24.9143C26.9408 24.5006 27.5019 24.2681 28.0871 24.2681H36.9119C37.497 24.2681 38.0582 24.5006 38.472 24.9143C38.8857 25.3281 39.1181 25.8892 39.1181 26.4744V35.2992H25.8808V26.4744ZM19.2622 18.7526C19.6985 18.7526 20.1251 18.882 20.4879 19.1244C20.8507 19.3668 21.1335 19.7114 21.3005 20.1145C21.4674 20.5177 21.5111 20.9613 21.426 21.3892C21.3409 21.8172 21.1308 22.2103 20.8222 22.5189C20.5137 22.8274 20.1206 23.0375 19.6926 23.1226C19.2646 23.2078 18.821 23.1641 18.4179 22.9971C18.0148 22.8301 17.6702 22.5473 17.4278 22.1845C17.1854 21.8217 17.056 21.3952 17.056 20.9588C17.056 20.3737 17.2884 19.8125 17.7022 19.3988C18.1159 18.985 18.6771 18.7526 19.2622 18.7526ZM14.8498 27.5775C14.8498 27.2849 14.966 27.0043 15.1728 26.7975C15.3797 26.5906 15.6603 26.4744 15.9529 26.4744H22.5715C22.8641 26.4744 23.1447 26.5906 23.3515 26.7975C23.5584 27.0043 23.6746 27.2849 23.6746 27.5775V35.2992H14.8498V27.5775Z" fill="#DF0A0A"/>
<path d="M7.12799 14.3402V24.2681H9.33421V15.1609L19.5788 12.0876C19.8061 12.0195 20.0054 11.8799 20.1471 11.6895C20.2888 11.4992 20.3653 11.2682 20.3653 11.0308V5.97199L22.8947 8.50142L24.4545 6.94163L20.0421 2.52919C19.8352 2.32239 19.5547 2.20622 19.2622 2.20622C18.9697 2.20622 18.6891 2.32239 18.4823 2.52919L14.0699 6.94163L15.6297 8.50142L18.1591 5.97199V10.2101L7.91451 13.2834C7.68718 13.3515 7.48787 13.4911 7.34618 13.6815C7.20449 13.8719 7.12798 14.1029 7.12799 14.3402Z" fill="#DF0A0A"/>
<path d="M33.6026 9.92774V3.76578L36.132 6.2952L37.6918 4.73541L33.2794 0.322975C33.0725 0.116174 32.792 0 32.4995 0C32.207 0 31.9264 0.116174 31.7196 0.322975L27.3072 4.73541L28.8669 6.2952L31.3964 3.76578V9.92774H33.6026Z" fill="#DF0A0A"/>
<path d="M49.3693 8.50142L50.9291 6.94163L46.5167 2.52919C46.3098 2.32239 46.0293 2.20622 45.7368 2.20622C45.4443 2.20622 45.1637 2.32239 44.9569 2.52919L40.5445 6.94163L42.1042 8.50142L44.6337 5.97199V11.0308C44.6339 11.2623 44.7068 11.4878 44.8422 11.6755C44.9776 11.8631 45.1686 12.0035 45.3882 12.0766L54.5616 15.1355V24.2681H56.7679V14.3402C56.7677 14.1087 56.6947 13.8832 56.5593 13.6956C56.4239 13.5079 56.2329 13.3676 56.0133 13.2944L46.8399 10.2355V5.97199L49.3693 8.50142Z" fill="#DF0A0A"/>
</svg>
