<svg width="65" height="65" viewBox="0 0 65 65" fill="none" xmlns="http://www.w3.org/2000/svg">
<path d="M40.9501 35.3166C41.0907 35.1291 41.1667 34.9011 41.1667 34.6667V30.5092L41.9929 28.0306C42.1184 27.6582 42.137 27.2581 42.0468 26.8756C41.9565 26.4932 41.7608 26.1437 41.4821 25.8667C41.121 25.5086 40.6436 25.2918 40.1363 25.2557C39.6291 25.2197 39.1257 25.3667 38.7177 25.6701L35.3575 28.1903C34.5697 28.2871 33.8444 28.6685 33.3182 29.2627C32.7919 29.8569 32.501 30.6229 32.5 31.4167V33.085L25.8412 38.7927L20.8995 36.3219C20.147 35.9468 19.3179 35.751 18.4771 35.75H15.1667V35.5643C15.7999 35.3396 16.3481 34.9244 16.736 34.3758C17.1239 33.8272 17.3326 33.1719 17.3333 32.5V27.9803C18.0561 27.7248 18.6653 27.222 19.0533 26.5608C19.4412 25.8995 19.5828 25.1224 19.4532 24.3668C19.3235 23.6112 18.9309 22.9258 18.3448 22.4317C17.7586 21.9376 17.0166 21.6666 16.25 21.6667H10.8333C9.39725 21.6683 8.02044 22.2395 7.00497 23.255C5.9895 24.2704 5.4183 25.6472 5.41667 27.0833V29.25C5.41667 29.4639 5.47999 29.673 5.59863 29.8509L7.58333 32.828V35.75H6.5C4.77669 35.7519 3.12451 36.4374 1.90594 37.6559C0.687377 38.8745 0.00193546 40.5267 0 42.25V55.25C7.74122e-06 55.3664 0.0187619 55.4821 0.0555425 55.5926L1.08333 58.676V65H3.25V59.5833H16.25V65H18.4167V58.676L19.4445 55.5926C19.4812 55.4821 19.5 55.3664 19.5 55.25V47.1001L21.7529 48.0012C23.8906 48.8563 26.2505 48.9828 28.4673 48.3612C30.6842 47.7396 32.6342 46.4045 34.0156 44.5626L40.9501 35.3166ZM7.58333 27.0833C7.58431 26.2217 7.92703 25.3956 8.53631 24.7863C9.14559 24.177 9.97168 23.8343 10.8333 23.8333H16.25C16.5373 23.8333 16.8129 23.9475 17.016 24.1506C17.2192 24.3538 17.3333 24.6293 17.3333 24.9167C17.3333 25.204 17.2192 25.4795 17.016 25.6827C16.8129 25.8859 16.5373 26 16.25 26H14.0833C13.8668 26 13.6553 26.0649 13.476 26.1863C13.2967 26.3076 13.1579 26.48 13.0775 26.681L11.1833 31.4167H9.24642L7.58333 28.922V27.0833ZM9.75 33.5833H11.9167C12.1332 33.5833 12.3447 33.5185 12.524 33.3971C12.7033 33.2757 12.8421 33.1034 12.9225 32.9024L14.8168 28.1667H15.1667V32.5C15.1663 32.7872 15.0521 33.0626 14.849 33.2657C14.6459 33.4688 14.3706 33.583 14.0833 33.5833C13.796 33.5833 13.5205 33.6975 13.3173 33.9006C13.1141 34.1038 13 34.3794 13 34.6667V35.75H9.75V33.5833ZM18.819 44.4942C18.6546 44.4284 18.4766 44.4039 18.3006 44.4229C18.1246 44.4419 17.9559 44.5037 17.8093 44.6029C17.6627 44.7022 17.5426 44.8358 17.4597 44.9922C17.3767 45.1486 17.3333 45.323 17.3333 45.5V55.0742L16.5526 57.4167H2.94743L2.16667 55.0742V42.25C2.16797 41.1011 2.62493 39.9997 3.43731 39.1873C4.24969 38.3749 5.35113 37.918 6.5 37.9167H18.4771C18.9815 37.9173 19.479 38.0347 19.9305 38.2598L23.3273 39.9582L21.0081 45.3698L18.819 44.4942ZM32.2822 43.2626C31.2385 44.6555 29.7832 45.6848 28.1221 46.2047C26.4611 46.7246 24.6786 46.7088 23.027 46.1595L25.2687 40.9289L25.5155 41.0523C25.7061 41.1477 25.9207 41.1846 26.1323 41.1586C26.3439 41.1326 26.5431 41.0447 26.705 40.9059L34.2883 34.4059C34.407 34.3042 34.5022 34.178 34.5675 34.036C34.6329 33.8941 34.6667 33.7396 34.6667 33.5833V31.4167C34.667 31.1295 34.7812 30.8541 34.9843 30.651C35.1874 30.4479 35.4628 30.3337 35.75 30.3333C35.9844 30.3333 36.2125 30.2573 36.4 30.1167L39.8848 27.503L39.0555 29.9908C39.0188 30.1012 39 30.2169 39 30.3333V34.3056L32.2822 43.2626Z" fill="#DF0A0A"/>
<path d="M61.75 0H27.0833C26.2217 0.000985616 25.3956 0.343712 24.7863 0.952992C24.177 1.56227 23.8343 2.38835 23.8333 3.25V35.75H26V9.75H62.8333V45.5C62.833 45.7872 62.7188 46.0626 62.5157 46.2657C62.3126 46.4688 62.0372 46.583 61.75 46.5833H33.5833V48.75H61.75C62.6117 48.749 63.4377 48.4063 64.047 47.797C64.6563 47.1877 64.999 46.3617 65 45.5V3.25C64.999 2.38835 64.6563 1.56227 64.047 0.952992C63.4377 0.343712 62.6117 0.000985616 61.75 0ZM26 7.58333V3.25C26.0003 2.96278 26.1146 2.68742 26.3177 2.48433C26.5208 2.28124 26.7961 2.167 27.0833 2.16667H61.75C62.0372 2.167 62.3126 2.28124 62.5157 2.48433C62.7188 2.68742 62.833 2.96278 62.8333 3.25V7.58333H26Z" fill="#DF0A0A"/>
<path d="M28.1667 5.41667C28.765 5.41667 29.25 4.93164 29.25 4.33333C29.25 3.73502 28.765 3.25 28.1667 3.25C27.5684 3.25 27.0833 3.73502 27.0833 4.33333C27.0833 4.93164 27.5684 5.41667 28.1667 5.41667Z" fill="#DF0A0A"/>
<path d="M31.4167 5.41667C32.015 5.41667 32.5 4.93164 32.5 4.33333C32.5 3.73502 32.015 3.25 31.4167 3.25C30.8184 3.25 30.3333 3.73502 30.3333 4.33333C30.3333 4.93164 30.8184 5.41667 31.4167 5.41667Z" fill="#DF0A0A"/>
<path d="M34.6667 5.41667C35.265 5.41667 35.75 4.93164 35.75 4.33333C35.75 3.73502 35.265 3.25 34.6667 3.25C34.0684 3.25 33.5833 3.73502 33.5833 4.33333C33.5833 4.93164 34.0684 5.41667 34.6667 5.41667Z" fill="#DF0A0A"/>
<path d="M32.5 16.25V14.0833H30.3333C30.046 14.0833 29.7705 14.1975 29.5673 14.4006C29.3641 14.6038 29.25 14.8794 29.25 15.1667V21.6667C29.25 21.954 29.3641 22.2295 29.5673 22.4327C29.7705 22.6359 30.046 22.75 30.3333 22.75H36.8333C37.1207 22.75 37.3962 22.6359 37.5994 22.4327C37.8025 22.2295 37.9167 21.954 37.9167 21.6667V15.6154L39.7661 13.766L38.2339 12.234L31.7339 18.734L33.2661 20.266L35.75 17.7821V20.5833H31.4167V16.25H32.5Z" fill="#DF0A0A"/>
<path d="M41.1667 15.1667H45.5V17.3333H41.1667V15.1667Z" fill="#DF0A0A"/>
<path d="M47.6667 15.1667H59.5833V17.3333H47.6667V15.1667Z" fill="#DF0A0A"/>
<path d="M41.1667 19.5H49.8333V21.6667H41.1667V19.5Z" fill="#DF0A0A"/>
<path d="M52 19.5H54.1667V21.6667H52V19.5Z" fill="#DF0A0A"/>
<path d="M53.0833 26H59.5833V28.1667H53.0833V26Z" fill="#DF0A0A"/>
<path d="M44.4167 26H50.9167V28.1667H44.4167V26Z" fill="#DF0A0A"/>
<path d="M43.3333 30.3333H54.1667V32.5H43.3333V30.3333Z" fill="#DF0A0A"/>
<path d="M56.3333 30.3333H58.5V32.5H56.3333V30.3333Z" fill="#DF0A0A"/>
<path d="M53.0833 36.8333H59.5833V39H53.0833V36.8333Z" fill="#DF0A0A"/>
<path d="M44.4167 36.8333H50.9167V39H44.4167V36.8333Z" fill="#DF0A0A"/>
<path d="M43.3333 41.1667H54.1667V43.3333H43.3333V41.1667Z" fill="#DF0A0A"/>
<path d="M56.3333 41.1667H58.5V43.3333H56.3333V41.1667Z" fill="#DF0A0A"/>
</svg>
