<svg width="65" height="67" viewBox="0 0 65 67" fill="none" xmlns="http://www.w3.org/2000/svg">
<path d="M28.0726 56.3914C27.7814 54.9329 27.1807 53.5537 26.3112 52.3471C25.4416 51.1404 24.3234 50.1342 23.0319 49.3965C21.7904 48.6912 20.462 48.1513 19.0805 47.7903C20.3119 46.8657 21.2213 45.5771 21.6799 44.107C22.1385 42.637 22.123 41.0599 21.6356 39.5991C21.1482 38.1383 20.2137 36.8678 18.9643 35.9675C17.7149 35.0673 16.214 34.5828 14.674 34.5828C13.1341 34.5828 11.6331 35.0673 10.3837 35.9675C9.13435 36.8678 8.1998 38.1383 7.71244 39.5991C7.22507 41.0599 7.20958 42.637 7.66815 44.107C8.12672 45.5771 9.03612 46.8657 10.2676 47.7903C8.88717 48.1515 7.55985 48.6915 6.31931 49.3965C5.02799 50.1342 3.90985 51.1402 3.04031 52.3467C2.17076 53.5531 1.57002 54.932 1.27859 56.3904L0.0205113 62.6944C-0.028181 62.937 0.0104616 63.1889 0.129606 63.4057C0.24875 63.6225 0.44072 63.7902 0.671569 63.8791C9.6858 67.3515 19.6685 67.3515 28.6828 63.8791C28.9136 63.7902 29.1056 63.6225 29.2247 63.4057C29.3439 63.1889 29.3825 62.937 29.3338 62.6944L28.0726 56.3914ZM9.43516 41.9361C9.43516 40.8993 9.7426 39.8858 10.3186 39.0238C10.8946 38.1617 11.7133 37.4898 12.6711 37.0931C13.629 36.6963 14.683 36.5925 15.6998 36.7948C16.7167 36.9971 17.6507 37.4963 18.3838 38.2294C19.1169 38.9625 19.6162 39.8966 19.8185 40.9134C20.0207 41.9303 19.9169 42.9843 19.5202 43.9421C19.1234 44.9 18.4515 45.7186 17.5895 46.2946C16.7274 46.8706 15.7139 47.1781 14.6772 47.1781C13.2874 47.1764 11.9551 46.6236 10.9723 45.6409C9.98964 44.6582 9.43682 43.3258 9.43516 41.9361ZM2.25046 62.2321L3.33765 56.8014C3.57021 55.637 4.04982 54.536 4.74414 53.5727C5.43846 52.6095 6.33132 51.8064 7.36247 51.2176C9.59793 49.9681 12.1162 49.312 14.6772 49.312C17.2381 49.312 19.7564 49.9681 21.9919 51.2176C23.0232 51.8064 23.9162 52.6097 24.6105 53.5731C25.3048 54.5366 25.7843 55.6378 26.0167 56.8024L27.1039 62.2321C19.0693 65.11 10.285 65.11 2.25046 62.2321Z" fill="#DF0A0A"/>
<path d="M64.9795 62.6944L63.7214 56.3872C63.4302 54.9287 62.8295 53.5496 61.96 52.3429C61.0904 51.1362 59.9722 50.1301 58.6807 49.3923C57.438 48.6882 56.1085 48.1497 54.7261 47.7903C55.9576 46.8657 56.867 45.5771 57.3256 44.107C57.7841 42.637 57.7686 41.0599 57.2813 39.5991C56.7939 38.1383 55.8594 36.8678 54.61 35.9675C53.3606 35.0673 51.8596 34.5828 50.3197 34.5828C48.7797 34.5828 47.2788 35.0673 46.0294 35.9675C44.78 36.8678 43.8455 38.1383 43.3581 39.5991C42.8707 41.0599 42.8552 42.637 43.3138 44.107C43.7724 45.5771 44.6818 46.8657 45.9133 47.7903C44.5328 48.1515 43.2055 48.6915 41.965 49.3965C40.6736 50.1342 39.5555 51.1402 38.686 52.3467C37.8164 53.5531 37.2157 54.932 36.9243 56.3904L35.6662 62.6944C35.6175 62.937 35.6561 63.1889 35.7753 63.4057C35.8944 63.6225 36.0864 63.7902 36.3172 63.8791C45.3315 67.3515 55.3142 67.3515 64.3284 63.8791C64.5593 63.7902 64.7512 63.6225 64.8704 63.4057C64.9895 63.1889 65.0282 62.937 64.9795 62.6944ZM45.0808 41.9361C45.0808 40.8993 45.3883 39.8858 45.9643 39.0238C46.5403 38.1617 47.3589 37.4898 48.3168 37.0931C49.2747 36.6963 50.3286 36.5925 51.3455 36.7948C52.3623 36.9971 53.2964 37.4963 54.0295 38.2294C54.7626 38.9625 55.2618 39.8966 55.4641 40.9134C55.6664 41.9303 55.5626 42.9843 55.1658 43.9421C54.7691 44.9 54.0972 45.7186 53.2351 46.2946C52.3731 46.8706 51.3596 47.1781 50.3228 47.1781C48.9331 47.1764 47.6007 46.6236 46.618 45.6409C45.6353 44.6582 45.0825 43.3258 45.0808 41.9361ZM37.8961 62.2321L38.9833 56.8014C39.2159 55.637 39.6955 54.536 40.3898 53.5727C41.0841 52.6095 41.977 51.8064 43.0081 51.2176C45.2436 49.9681 47.7619 49.312 50.3228 49.312C52.8838 49.312 55.4021 49.9681 57.6375 51.2176C58.6688 51.8064 59.5618 52.6097 60.2561 53.5731C60.9505 54.5366 61.43 55.6378 61.6623 56.8024L62.7495 62.2321C54.715 65.11 45.9307 65.11 37.8961 62.2321Z" fill="#DF0A0A"/>
<path d="M9.43516 23.0648H14.6772V28.3069C14.6772 28.5016 14.7314 28.6924 14.8337 28.858C14.9361 29.0237 15.0826 29.1575 15.2567 29.2446C15.4309 29.3316 15.6258 29.3685 15.8197 29.351C16.0136 29.3335 16.1989 29.2624 16.3546 29.1456L24.4619 23.0648H42.984C43.2621 23.0648 43.5287 22.9544 43.7254 22.7578C43.922 22.5612 44.0324 22.2945 44.0324 22.0164V1.0484C44.0324 0.770348 43.922 0.503683 43.7254 0.30707C43.5287 0.110456 43.2621 0 42.984 0H9.43516C9.15711 0 8.89044 0.110456 8.69383 0.30707C8.49721 0.503683 8.38676 0.770348 8.38676 1.0484V22.0164C8.38676 22.2945 8.49721 22.5612 8.69383 22.7578C8.89044 22.9544 9.15711 23.0648 9.43516 23.0648ZM10.4836 2.0968H41.9356V20.968H24.1128C23.8859 20.968 23.6652 21.0416 23.4837 21.1777L16.774 26.21V22.0164C16.774 21.7384 16.6635 21.4717 16.4669 21.2751C16.2703 21.0785 16.0036 20.968 15.7256 20.968H10.4836V2.0968Z" fill="#DF0A0A"/>
<path d="M52.7866 33.2962C52.9388 33.4264 53.1252 33.5103 53.3236 33.5379C53.522 33.5655 53.7242 33.5357 53.9062 33.4519C54.0882 33.3682 54.2424 33.2341 54.3505 33.0655C54.4587 32.8969 54.5163 32.7008 54.5164 32.5005V27.2584H58.71C58.9881 27.2584 59.2548 27.148 59.4514 26.9514C59.648 26.7548 59.7584 26.4881 59.7584 26.21V6.29041C59.7584 6.01236 59.648 5.74569 59.4514 5.54908C59.2548 5.35247 58.9881 5.24201 58.71 5.24201H49.2744C48.9964 5.24201 48.7297 5.35247 48.5331 5.54908C48.3365 5.74569 48.226 6.01236 48.226 6.29041C48.226 6.56846 48.3365 6.83513 48.5331 7.03174C48.7297 7.22836 48.9964 7.33881 49.2744 7.33881H57.6616V25.1616H53.468C53.19 25.1616 52.9233 25.2721 52.7267 25.4687C52.5301 25.6653 52.4196 25.932 52.4196 26.21V30.2212L46.8107 25.4143C46.6212 25.251 46.3793 25.1614 46.1292 25.1616H30.4032C30.1251 25.1616 29.8585 25.2721 29.6619 25.4687C29.4653 25.6653 29.3548 25.932 29.3548 26.21C29.3548 26.4881 29.4653 26.7548 29.6619 26.9514C29.8585 27.148 30.1251 27.2584 30.4032 27.2584H45.7413L52.7866 33.2962Z" fill="#DF0A0A"/>
<path d="M19.9192 14.6776C20.1972 14.6776 20.4639 14.5672 20.6605 14.3706C20.8571 14.1739 20.9676 13.9073 20.9676 13.6292V9.43562C20.9676 9.15756 20.8571 8.8909 20.6605 8.69428C20.4639 8.49767 20.1972 8.38721 19.9192 8.38721H15.7256C15.4475 8.38721 15.1809 8.49767 14.9842 8.69428C14.7876 8.8909 14.6772 9.15756 14.6772 9.43562V13.6292C14.6772 13.9073 14.7876 14.1739 14.9842 14.3706C15.1809 14.5672 15.4475 14.6776 15.7256 14.6776H19.9192ZM16.774 10.484H18.8708V12.5808H16.774V10.484Z" fill="#DF0A0A"/>
<path d="M32.5 14.6776H36.6936C36.9717 14.6776 37.2383 14.5672 37.4349 14.3706C37.6316 14.1739 37.742 13.9073 37.742 13.6292V9.43562C37.742 9.15756 37.6316 8.8909 37.4349 8.69428C37.2383 8.49767 36.9717 8.38721 36.6936 8.38721H32.5C32.2219 8.38721 31.9553 8.49767 31.7587 8.69428C31.5621 8.8909 31.4516 9.15756 31.4516 9.43562V13.6292C31.4516 13.9073 31.5621 14.1739 31.7587 14.3706C31.9553 14.5672 32.2219 14.6776 32.5 14.6776ZM33.5484 10.484H35.6452V12.5808H33.5484V10.484Z" fill="#DF0A0A"/>
<path d="M24.1128 14.6776H28.3064C28.5844 14.6776 28.8511 14.5672 29.0477 14.3706C29.2443 14.1739 29.3548 13.9073 29.3548 13.6292V9.43562C29.3548 9.15756 29.2443 8.8909 29.0477 8.69428C28.8511 8.49767 28.5844 8.38721 28.3064 8.38721H24.1128C23.8347 8.38721 23.5681 8.49767 23.3715 8.69428C23.1748 8.8909 23.0644 9.15756 23.0644 9.43562V13.6292C23.0644 13.9073 23.1748 14.1739 23.3715 14.3706C23.5681 14.5672 23.8347 14.6776 24.1128 14.6776ZM25.1612 10.484H27.258V12.5808H25.1612V10.484Z" fill="#DF0A0A"/>
</svg>
