<svg width="65" height="65" viewBox="0 0 65 65" fill="none" xmlns="http://www.w3.org/2000/svg">
<path d="M50.3226 49.2742C52.0566 49.2742 53.4677 47.8631 53.4677 46.129C53.4677 44.395 52.0566 42.9839 50.3226 42.9839C48.5885 42.9839 47.1774 44.395 47.1774 46.129C47.1774 47.8631 48.5885 49.2742 50.3226 49.2742ZM50.3226 45.0806C50.9002 45.0806 51.371 45.5503 51.371 46.129C51.371 46.7077 50.9002 47.1774 50.3226 47.1774C49.7449 47.1774 49.2742 46.7077 49.2742 46.129C49.2742 45.5503 49.7449 45.0806 50.3226 45.0806Z" fill="#DF0A0A"/>
<path d="M60.9742 41.7027C60.6565 40.9416 60.8253 40.0767 61.403 39.498L62.9284 37.9715L58.479 33.5222L56.9515 35.0486C56.3739 35.6273 55.5079 35.7951 54.7069 35.4596C53.9542 35.1493 53.4677 34.4217 53.4677 33.606V31.4516H51.3175C51.2221 29.7606 50.9086 28.1261 50.3886 26.5777L62.5206 14.4457C64.1193 12.8469 65 10.7219 65 8.46153C65 3.79621 61.2038 0 56.5385 0C54.2781 0 52.1531 0.880645 50.5553 2.47839L38.436 14.5988C36.8686 14.0725 35.2069 13.7664 33.4907 13.6752C32.0439 11.1475 29.3255 9.43548 26.2097 9.43548C25.4119 9.43548 24.6423 9.555 23.9095 9.76363C22.1 6.36161 18.5848 4.19355 14.6774 4.19355C8.89661 4.19355 4.19355 8.89661 4.19355 14.6774C4.19355 15.4805 4.2921 16.271 4.47137 17.0447C1.8871 17.8268 0 20.2286 0 23.0645C0 26.5336 2.82121 29.3548 6.29032 29.3548H13.8953C13.7213 30.3917 13.629 31.4443 13.629 32.5C13.629 34.8075 14.0557 36.6852 14.7445 38.2892L5.39185 47.6429L0.187661 61.1734C0.0629032 61.4963 0 61.836 0 62.183C0 63.7367 1.26435 65 2.81702 65C3.16403 65 3.50371 64.936 3.82766 64.8123L17.3581 59.6081L24.1968 52.7685C24.1454 52.9939 24.1129 53.2266 24.1129 53.4677C24.1129 54.276 24.4285 55.0068 24.9306 55.5645C24.4274 56.1223 24.1129 56.853 24.1129 57.6613C24.1129 59.1185 25.1141 60.3368 26.4613 60.6911C27.3545 63.2492 29.7469 65 32.5 65C35.2531 65 37.6455 63.2492 38.5387 60.6911C39.8859 60.3368 40.8871 59.1185 40.8871 57.6613C40.8871 57.5827 40.8693 57.5093 40.864 57.4327L42.1661 58.7348L43.6936 57.2084C44.2713 56.6297 45.1341 56.4609 45.9372 56.7953C46.6899 57.1088 47.1774 57.8364 47.1774 58.652V60.8064H53.4677V58.652C53.4677 57.8364 53.9552 57.1077 54.7489 56.7796C55.51 56.463 56.3749 56.6297 56.9526 57.2084L58.479 58.7348L62.9284 54.2855L61.403 52.759C60.8253 52.1803 60.6565 51.3154 60.991 50.5144C61.3023 49.7617 62.0299 49.2742 62.8456 49.2742H65V42.9839H62.8456C62.0299 42.9839 61.3023 42.4964 60.9742 41.7027ZM45.2652 44.7934C46.4089 43.6769 47.5548 42.5362 48.5435 41.2173C49.1138 41.0098 49.7072 40.8871 50.3226 40.8871C53.213 40.8871 55.5645 43.2386 55.5645 46.129C55.5645 49.0194 53.213 51.371 50.3226 51.371C47.4322 51.371 45.0806 49.0194 45.0806 46.129C45.0806 45.6751 45.1509 45.2285 45.2652 44.7934ZM46.5243 19.9592L51.371 15.1115L55.1305 18.871L49.531 24.4704C48.7458 22.8223 47.731 21.3064 46.5243 19.9592ZM47.6115 8.3871L49.2742 6.72435L58.2756 15.7258L56.6129 17.3885L47.6115 8.3871ZM56.5385 2.09677C60.0474 2.09677 62.9032 4.95258 62.9032 8.46153C62.9032 10.161 62.2417 11.7598 61.0392 12.9623L59.7581 14.2434L50.7566 5.24194L52.0377 3.96081C53.2402 2.75935 54.838 2.09677 56.5385 2.09677ZM46.129 9.86952L49.8885 13.629L45.0439 18.4736C43.6978 17.2659 42.1829 16.25 40.5348 15.4637L46.129 9.86952ZM49.2742 32.5C49.2742 37.9548 46.5274 40.6344 43.6192 43.4703C41.6168 45.4235 39.5598 47.4427 38.3626 50.3855C38.1623 50.3446 37.9548 50.3226 37.7419 50.3226H33.5484V45.0806C33.5484 43.3466 32.1373 41.9355 30.4032 41.9355H28.3064C27.7288 41.9355 27.2581 41.4658 27.2581 40.8871C27.2581 40.3084 27.7288 39.8387 28.3064 39.8387H38.7903C40.5244 39.8387 41.9355 38.4276 41.9355 36.6935C41.9355 34.9595 40.5244 33.5484 38.7903 33.5484H30.4032C29.8256 33.5484 29.3548 33.0787 29.3548 32.5V29.3548H34.5968C37.4872 29.3548 39.8387 27.0033 39.8387 24.1129C39.8387 21.2225 37.4872 18.871 34.5968 18.871C34.5674 18.871 34.5402 18.8794 34.5108 18.8794C34.5559 18.5292 34.5968 18.179 34.5968 17.8226C34.5968 17.1369 34.5045 16.4733 34.3494 15.8348C42.7071 16.7658 49.2742 23.9389 49.2742 32.5ZM26.2097 53.4677C26.2097 52.889 26.6804 52.4194 27.2581 52.4194H37.7419C38.3196 52.4194 38.7903 52.889 38.7903 53.4677C38.7903 54.0464 38.3196 54.5161 37.7419 54.5161H27.2581C26.6804 54.5161 26.2097 54.0464 26.2097 53.4677ZM13.0147 53.4677L20.7214 45.761C22.0109 47.0401 23.2081 48.3338 24.0909 49.9095L16.7742 57.2273L13.0147 53.4677ZM2.09677 23.0645C2.09677 20.7518 3.97758 18.871 6.29032 18.871C8.60306 18.871 10.4839 20.7518 10.4839 23.0645H12.5806C12.5806 19.6866 9.90202 16.9294 6.55871 16.7878C6.38048 16.1022 6.29032 15.3945 6.29032 14.6774C6.29032 10.053 10.053 6.29032 14.6774 6.29032C17.7439 6.29032 20.5117 7.95726 21.9836 10.5898C19.7485 11.9013 18.1696 14.2109 17.875 16.9063C16.0445 17.3571 14.6774 18.9999 14.6774 20.9677H16.7742C16.7742 19.8114 17.7146 18.871 18.871 18.871C20.0273 18.871 20.9677 19.8114 20.9677 20.9677H23.0645C23.0645 19.044 21.7561 17.4368 19.9875 16.944C20.4173 13.8911 23.0394 11.5323 26.2097 11.5323C29.6788 11.5323 32.5 14.3535 32.5 17.8226C32.5 18.374 32.4098 18.9139 32.2694 19.4402C30.55 20.301 29.3548 22.0623 29.3548 24.1129H31.4516C31.4516 22.3789 32.8627 20.9677 34.5968 20.9677C36.3308 20.9677 37.7419 22.3789 37.7419 24.1129C37.7419 25.8469 36.3308 27.2581 34.5968 27.2581H6.29032C3.97758 27.2581 2.09677 25.3773 2.09677 23.0645ZM27.2581 29.3548V32.5C27.2581 34.234 28.6692 35.6452 30.4032 35.6452H38.7903C39.368 35.6452 39.8387 36.1148 39.8387 36.6935C39.8387 37.2723 39.368 37.7419 38.7903 37.7419H28.3064C26.5724 37.7419 25.1613 39.1531 25.1613 40.8871C25.1613 42.6211 26.5724 44.0323 28.3064 44.0323H30.4032C30.9809 44.0323 31.4516 44.5019 31.4516 45.0806V50.3226H27.2581C27.0452 50.3226 26.8377 50.3446 26.6374 50.3855C25.4402 47.4427 23.3832 45.4235 21.3808 43.4703C18.4726 40.6344 15.7258 37.9548 15.7258 32.5C15.7258 31.4401 15.8527 30.3896 16.0487 29.3548H27.2581ZM19.2243 44.2933L11.5323 51.9853L7.77274 48.2258L15.7719 40.2266C16.7564 41.7719 17.9767 43.0615 19.2243 44.2933ZM6.68976 50.1077L14.8923 58.3102L7.94782 60.9815L4.01847 57.0522L6.68976 50.1077ZM3.07597 62.855C2.62202 63.0311 2.09677 62.6694 2.09677 62.183C2.09677 62.0939 2.11355 62.0069 2.14395 61.9251L3.19444 59.193L5.80597 61.8045L3.07597 62.855ZM32.5 62.9032C30.9515 62.9032 29.5708 62.0792 28.8055 60.8064H36.1945C35.4292 62.0792 34.0485 62.9032 32.5 62.9032ZM37.7419 58.7097H27.2581C26.6804 58.7097 26.2097 58.24 26.2097 57.6613C26.2097 57.0826 26.6804 56.6129 27.2581 56.6129H37.7419C38.3196 56.6129 38.7903 57.0826 38.7903 57.6613C38.7903 58.24 38.3196 58.7097 37.7419 58.7097ZM62.9032 47.1774H62.8456C61.1776 47.1774 59.6889 48.1734 59.0389 49.7481C58.3931 51.2965 58.739 53.0599 59.9195 54.2414L59.9635 54.2855L58.479 55.77L58.435 55.726C57.2524 54.5434 55.4869 54.1964 53.907 54.8589C52.3669 55.4964 51.371 56.984 51.371 58.652V58.7097H49.2742V58.652C49.2742 56.984 48.2782 55.4953 46.7035 54.8443C45.153 54.1974 43.3896 54.5444 42.2091 55.726L42.1651 55.77L40.7445 54.3494C40.8284 54.0674 40.8871 53.776 40.8871 53.4677C40.8871 52.7234 40.6166 52.0482 40.1826 51.5083C40.8347 49.7481 41.8569 48.3401 43.0468 47.0401C43.4976 50.657 46.5851 53.4677 50.3226 53.4677C54.3694 53.4677 57.6613 50.1748 57.6613 46.129C57.6613 42.0833 54.3694 38.7903 50.3226 38.7903C50.2198 38.7903 50.1202 38.8008 50.0185 38.805C50.7283 37.332 51.2158 35.6242 51.3385 33.5484H51.371V33.606C51.371 35.274 52.3669 36.7638 53.9406 37.4127C55.488 38.0606 57.2535 37.7147 58.435 36.5321L58.479 36.4881L59.9635 37.9726L59.9195 38.0166C58.739 39.1981 58.3931 40.9626 59.0525 42.5435C59.6889 44.0847 61.1776 45.0806 62.8456 45.0806H62.9032V47.1774Z" fill="#DF0A0A"/>
</svg>
