<svg width="65" height="65" viewBox="0 0 65 65" fill="none" xmlns="http://www.w3.org/2000/svg">
<path d="M44.2733 53.8894H38.0553V48.2456L47.2652 42.4898L38.0553 36.7339V30.0537H44.2733V21.763H38.0553V14.5087H46.346V0H27.6919V14.5087H35.9826V21.763H29.7646V24.8721H20.4376V26.9447H29.7646V30.0537H35.9826V36.7339L26.7727 42.4898L35.9826 48.2456V53.8894H29.7646C28.0505 53.8894 26.6556 55.2844 26.6556 56.9985V61.1438C26.6556 62.8579 28.0505 64.2528 29.7646 64.2528H44.2733C45.9874 64.2528 47.3823 62.8579 47.3823 61.1438V56.9985C47.3823 55.2844 45.9874 53.8894 44.2733 53.8894ZM29.7646 2.07267H44.2733V12.436H29.7646V2.07267ZM31.8373 23.8357H42.2006V27.9811H31.8373V23.8357ZM37.0189 38.5299L43.3541 42.4898L37.0189 46.4496L30.6838 42.4898L37.0189 38.5299ZM45.3096 61.1438C45.3096 61.7148 44.8443 62.1801 44.2733 62.1801H29.7646C29.1936 62.1801 28.7283 61.7148 28.7283 61.1438V56.9985C28.7283 56.4274 29.1936 55.9621 29.7646 55.9621H44.2733C44.8443 55.9621 45.3096 56.4274 45.3096 56.9985V61.1438Z" fill="#DF0A0A"/>
<path d="M18.6685 55.6585L21.0449 58.0348H11.9562C11.6432 57.157 10.952 56.4658 10.0742 56.1528V34.1991H8.00155V56.1528C6.79836 56.5818 5.92888 57.7218 5.92888 59.0711C5.92888 60.7852 7.32378 62.1801 9.03788 62.1801C10.3872 62.1801 11.5272 61.3106 11.9562 60.1075H21.0449L18.6685 62.4838L20.1339 63.9492L25.012 59.0711L20.1339 54.1931L18.6685 55.6585ZM9.03788 60.1075C8.46686 60.1075 8.00155 59.6421 8.00155 59.0711C8.00155 58.5001 8.46686 58.0348 9.03788 58.0348C9.6089 58.0348 10.0742 58.5001 10.0742 59.0711C10.0742 59.6421 9.6089 60.1075 9.03788 60.1075Z" fill="#DF0A0A"/>
<path d="M62.9273 39.5714V10.1727C64.1305 9.74363 65 8.60366 65 7.25435C65 5.54025 63.6051 4.14534 61.891 4.14534C60.5417 4.14534 59.4017 5.01483 58.9727 6.21801H48.4186V8.29068H58.9727C59.2856 9.16846 59.9769 9.8597 60.8547 10.1727V39.5725C59.9769 39.8854 59.2856 40.5767 58.9727 41.4545H51.9567L54.333 39.0781L52.8676 37.6128L47.9896 42.4898L52.8676 47.3678L54.333 45.9024L51.9567 43.5261H58.9727C59.4017 44.7293 60.5417 45.5988 61.891 45.5988C63.6051 45.5988 65 44.2039 65 42.4898C65 41.1404 64.1305 40.0005 62.9273 39.5714ZM61.891 6.21801C62.462 6.21801 62.9273 6.68333 62.9273 7.25435C62.9273 7.82537 62.462 8.29068 61.891 8.29068C61.32 8.29068 60.8547 7.82537 60.8547 7.25435C60.8547 6.68333 61.32 6.21801 61.891 6.21801ZM61.891 43.5261C61.32 43.5261 60.8547 43.0608 60.8547 42.4898C60.8547 41.9187 61.32 41.4534 61.891 41.4534C62.462 41.4534 62.9273 41.9187 62.9273 42.4898C62.9273 43.0608 62.462 43.5261 61.891 43.5261Z" fill="#DF0A0A"/>
<path d="M18.0758 25.9084L9.03788 19.4531L0 25.9084L9.03788 32.3637L18.0758 25.9084ZM9.03788 22.0004L14.5087 25.9084L9.03788 29.8164L3.56707 25.9084L9.03788 22.0004Z" fill="#DF0A0A"/>
<path d="M31.8373 4.14534H42.2006V6.21801H31.8373V4.14534Z" fill="#DF0A0A"/>
<path d="M31.8373 8.29068H38.0553V10.3634H31.8373V8.29068Z" fill="#DF0A0A"/>
<path d="M40.1279 8.29068H42.2006V10.3634H40.1279V8.29068Z" fill="#DF0A0A"/>
<path d="M57.7456 58.0348H59.8183V60.1075H57.7456V58.0348Z" fill="#DF0A0A"/>
<path d="M53.6003 58.0348H55.673V60.1075H53.6003V58.0348Z" fill="#DF0A0A"/>
<path d="M49.455 58.0348H51.5276V60.1075H49.455V58.0348Z" fill="#DF0A0A"/>
<path d="M19.4012 8.29068H21.4739V10.3634H19.4012V8.29068Z" fill="#DF0A0A"/>
<path d="M23.5466 8.29068H25.6192V10.3634H23.5466V8.29068Z" fill="#DF0A0A"/>
<path d="M15.2559 8.29068H17.3286V10.3634H15.2559V8.29068Z" fill="#DF0A0A"/>
</svg>
