<?xml version="1.0" encoding="utf-8"?>
<!-- Generator: Adobe Illustrator 26.0.2, SVG Export Plug-In . SVG Version: 6.00 Build 0)  -->
<svg version="1.1" id="Слой_1" xmlns="http://www.w3.org/2000/svg" xmlns:xlink="http://www.w3.org/1999/xlink" x="0px" y="0px"
	 viewBox="0 0 473.7 159.9" style="enable-background:new 0 0 473.7 159.9;" xml:space="preserve">
<style type="text/css">
	.st0{fill:#E6B600;}
	.st1{fill:#4C85D3;}
</style>
<path id="SvgjsPath35671087" class="st0" d="M16.7,111.5c1.5,0,3,0.2,4.7,0.5c1.6,0.4,3,0.8,4.2,1.4l0,0l-1,5l-0.7,0.2
	c-2.5-1.6-5-2.4-7.4-2.4l0,0c-2.8,0-5.1,1.1-6.7,3.3s-2.4,5.2-2.4,9.1l0,0c0,3.9,0.8,7,2.5,9.2c1.7,2.3,4,3.4,6.9,3.4l0,0
	c1.3,0,2.7-0.2,4.1-0.7c1.4-0.4,2.8-1,4-1.8l0,0l0.6,0.4l-0.6,4.8c-2.9,1.2-5.9,1.9-8.8,1.9l0,0c-4.4,0-7.8-1.5-10.3-4.5
	S2,134.1,2,128.9l0,0c0-5.4,1.3-9.6,3.9-12.7C8.6,113,12.1,111.5,16.7,111.5L16.7,111.5z M38.7,94.4l-0.4,36.2l0.4,14.5H33l0.4-14.1
	L33,94.9L38.7,94.4z M73.8,128.3l-20.7,0.1v0.1c0,4.1,0.9,7.2,2.7,9.3c1.8,2.2,4.5,3.3,7.8,3.3l0,0c1.7,0,3.4-0.3,5.1-0.9
	c1.7-0.6,3.2-1.3,4.6-2.3l0,0l0.6,0.4l-0.9,4.9c-3.4,1.6-6.7,2.4-10.1,2.4l0,0c-4.7,0-8.4-1.5-11.1-4.5s-4-7.2-4-12.4l0,0
	c0-5.3,1.3-9.5,4-12.6s6.3-4.7,10.9-4.7l0,0c3.9,0,6.8,1.1,9,3.3c2.1,2.2,3.2,5.2,3.2,9.1l0,0c0,1.3-0.1,2.5-0.3,3.7l0,0L73.8,128.3
	z M62.6,115.5c-2.4,0-4.4,0.8-6,2.3c-1.6,1.6-2.7,3.8-3.2,6.6l0,0l16-0.3l0.1-1c0-2.5-0.6-4.3-1.8-5.7
	C66.6,116.2,64.9,115.5,62.6,115.5L62.6,115.5z M94.7,111.5c3.1,0,5.6,0.8,7.4,2.3s2.7,3.7,2.7,6.4l0,0c0,0.8-0.1,3.8-0.4,8.9l0,0
	c-0.3,5.1-0.4,8.1-0.4,9l0,0c0,1.1,0.2,1.8,0.5,2.2s0.9,0.6,1.7,0.6l0,0c0.7,0,1.5-0.1,2.5-0.4l0,0l0.6,0.5l-0.6,3.3
	c-1.4,0.8-2.8,1.3-4.1,1.4l0,0c-1.5-0.1-2.7-0.7-3.6-1.6c-0.9-0.9-1.4-2.2-1.4-3.8l0,0h-0.5c-2.6,2.7-5.2,4.5-7.7,5.4l0,0
	c-3.2,0-5.7-0.8-7.5-2.4c-1.8-1.6-2.7-3.8-2.7-6.6l0,0c0-2.1,0.6-3.8,1.7-5.1s2.8-2.2,5-2.7l0,0l11.7-2.7l0.1-4.7
	c0-1.9-0.5-3.3-1.5-4.3s-2.4-1.5-4.2-1.5l0,0c-1.6,0-3.3,0.4-4.9,1.2c-1.6,0.8-3.4,2-5.3,3.6l0,0l-0.6-0.3l-0.7-4.1
	C86.3,113,90.4,111.5,94.7,111.5L94.7,111.5z M99.4,129.8l-10.5,2.5c-1,0.3-1.7,0.7-2.1,1.2s-0.7,1.3-0.7,2.3l0,0
	c0,1.6,0.4,2.8,1.3,3.7s2.1,1.3,3.6,1.3l0,0c2.7,0,5.3-1.7,8.1-5.1l0,0L99.4,129.8z M137,145.2l0.4-22.5c0-2-0.4-3.5-1.4-4.6
	s-2.4-1.7-4.3-1.7l0,0c-3,0-6.3,1.7-9.8,5.1l0,0v9.1l0.3,14.5h-5.7l0.4-14l-0.3-18.7l5.4-0.5v4.8h0.4c3-2.7,6.1-4.4,9.2-5.1l0,0
	c3.6,0,6.4,0.8,8.3,2.5s2.8,4.1,2.8,7.2l0,0l-0.1,9.4l0.3,14.4L137,145.2L137,145.2z M153.8,145.2l0.3-14l-0.2-18.7l5.6-0.5
	l-0.1,18.7l0.1,14.5H153.8z M156.8,97.2c1,0,1.7,0.3,2.3,0.9c0.6,0.6,0.9,1.4,0.9,2.4l0,0c0,1.1-0.3,1.9-0.9,2.5s-1.4,0.9-2.5,0.9
	l0,0c-1,0-1.8-0.3-2.3-0.9c-0.6-0.6-0.9-1.4-0.9-2.4l0,0c0-1,0.3-1.8,0.9-2.5C154.9,97.6,155.7,97.2,156.8,97.2L156.8,97.2z
	 M191.8,145.2l0.4-22.5c0-2-0.4-3.5-1.4-4.6s-2.4-1.7-4.3-1.7l0,0c-3,0-6.3,1.7-9.8,5.1l0,0v9.1l0.3,14.5h-5.7l0.4-14l-0.3-18.7
	l5.4-0.5v4.8h0.4c3-2.7,6.1-4.4,9.2-5.1l0,0c3.6,0,6.4,0.8,8.3,2.5s2.8,4.1,2.8,7.2l0,0l-0.1,9.4l0.3,14.4L191.8,145.2L191.8,145.2z
	 M237.8,114.9c-1.5,0.4-3.7,0.9-6.7,1.5l0,0l-0.1,0.3c1.1,1.7,1.6,3.7,1.6,6.1l0,0c0,3.5-1.2,6.3-3.5,8.4c-2.3,2.1-5.5,3.1-9.5,3.1
	l0,0c-1.6,0-3.1-0.2-4.5-0.6l0,0c-0.8,0.6-1.4,1.1-1.7,1.5c-0.3,0.4-0.4,0.8-0.4,1.3l0,0c0,1,0.6,1.7,1.9,2.1
	c1.2,0.4,3.3,0.8,6.1,1.3l0,0c2.8,0.4,5.1,0.8,6.9,1.3s3.3,1.3,4.6,2.4c1.3,1.1,2,2.6,2,4.5l0,0c0,2-0.7,3.9-2.1,5.6s-3.3,3-5.6,4
	s-5,1.4-7.8,1.4l0,0c-3.9,0-6.9-0.9-9-2.6c-2.1-1.8-3.2-4-3.2-6.8l0,0c1.1-2.3,3.3-4.4,6.4-6.3l0,0V143c-1.7-0.5-3.1-1.2-4-2.1
	s-1.4-2.1-1.4-3.7l0,0c1-1.7,2.5-3.2,4.4-4.4l0,0v-0.3c-1.5-1-2.7-2.2-3.5-3.8c-0.8-1.6-1.2-3.4-1.2-5.4l0,0c0-3.6,1.2-6.4,3.5-8.5
	c2.3-2,5.5-3.1,9.4-3.1l0,0c2.6,0,4.7,0.4,6.5,1.3l0,0c3.3-0.6,6.8-1.4,10.5-2.5l0,0l0.6,0.4v4H237.8z M219.9,130.4
	c2.4,0,4.3-0.7,5.6-2c1.3-1.3,2-3.2,2-5.6l0,0c0-2.3-0.6-4.1-1.9-5.4c-1.2-1.2-3.1-1.9-5.4-1.9l0,0c-2.4,0-4.3,0.7-5.6,2
	c-1.3,1.3-2,3.2-2,5.6l0,0c0,2.3,0.6,4.1,1.9,5.4C215.7,129.8,217.5,130.4,219.9,130.4L219.9,130.4z M229.4,149.2
	c0-1.6-0.8-2.7-2.4-3.3s-4.1-1.2-7.3-1.7l0,0l-2.3-0.4c-1.8,1.1-3.2,2.2-4.1,3.2s-1.4,2.1-1.4,3.2l0,0c0,1.4,0.7,2.6,2,3.5
	c1.4,0.9,3.3,1.4,5.8,1.4l0,0c2.8,0,5.1-0.6,7-1.7C228.5,152.2,229.4,150.8,229.4,149.2L229.4,149.2z"/>
<path id="SvgjsPath35671073" class="st1" d="M14.7,66.3c-2.4,0-5.2,0.2-8.4,0.5S1,67.3,0,67.4l0,0l0.7-6.3c3.3-0.6,5.4-1.5,6.5-2.6
	c1-1.1,1.6-3,1.6-5.9l0,0l0.1-40.7c0-2-0.2-3.4-0.7-4.1C7.7,7,6.8,6.7,5.4,6.7l0,0L1.7,6.8L1,6l0.9-5.8c1.1,0,3.1,0,6,0.1
	s5.6,0.1,8.1,0.1l0,0c2.7,0,5.7-0.1,8.8-0.3c3.2-0.2,5.4-0.3,6.6-0.4l0,0c7.3,0,12.9,1.4,16.7,4.1c3.9,2.7,5.8,6.7,5.8,11.9l0,0
	c0,3.8-1.2,7.1-3.6,9.8c-2.4,2.8-5.2,4.8-8.3,6l0,0c4.1,0.8,7.8,2.5,10.9,5.1c3.2,2.6,4.7,6,4.7,10.2l0,0c0,4-1.2,7.5-3.5,10.5
	c-2.3,3.1-5.6,5.5-9.7,7.2c-4.2,1.8-8.9,2.6-14.1,2.6l0,0c-1.1,0-3.4-0.2-6.7-0.5l0,0C19.6,66.4,16.6,66.3,14.7,66.3L14.7,66.3z
	 M21.7,28.8c1,0.1,2.6,0.2,4.8,0.4c2.2,0.2,4.2,0.3,5.9,0.4l0,0c0,0.2,0.8-0.1,2.3-1c1.5-0.8,2.9-2.1,4.1-3.8s1.8-3.9,1.8-6.7l0,0
	c0-3.6-1.3-6.3-4-8C34,8.3,29.9,7.5,24.3,7.5l0,0c-0.7,0-1.2,0.1-1.4,0.4s-0.4,0.8-0.5,1.6l0,0C22.2,14.3,21.9,20.8,21.7,28.8
	L21.7,28.8z M21.4,37L21,53.1c0,2.3,0.8,3.9,2.4,4.8c1.6,0.9,4.4,1.4,8.4,1.4l0,0c3.8,0,6.7-0.9,8.8-2.8s3.2-4.5,3.2-8l0,0
	c0-3-1-5.5-3-7.4c-2-2-5-3.3-9-4l0,0L21.4,37L21.4,37z M101.3,67.1l-0.4-0.7l0.4-5.7c3.7-0.4,6.1-0.8,7.2-1.2s1.6-1.3,1.6-2.6l0,0
	c0-1.1-0.3-2.4-0.8-3.8l0,0l-2.5-8.6c-1.8-0.1-5.3-0.1-10.4-0.1l0,0c-2.7,0-6.3,0.2-10.7,0.7l0,0l-3.2,8.4c-0.4,1.8-0.7,2.9-0.7,3.3
	l0,0c0,1.3,0.4,2.2,1.3,2.8s2.3,0.8,4.3,0.8l0,0h4.9l0.5,0.7L92,67c-1-0.1-3.1-0.2-6.3-0.4c-3.2-0.2-6.3-0.3-9.2-0.3l0,0
	c-2.9,0-5.5,0-7.9,0.1s-3.9,0.1-4.7,0.1l0,0l0.8-6.3c1.8-0.3,3.2-0.9,4.3-1.9c1.1-1,2.1-2.7,3.1-5.2l0,0L92,1l14-1.7l1.2,0.4
	c1,3.9,3.3,11.8,6.7,23.8c3.4,12,6.5,21.9,9.2,29.6l0,0c0.8,2.6,1.8,4.3,3.1,5.3c1.3,1,3.3,1.6,6,1.9l0,0l0.4,0.7l-0.8,5.5
	c-0.9,0-2.6,0-5.1-0.1s-5.1-0.1-7.7-0.1l0,0c-3.7,0-7.3,0.1-10.9,0.3C104.5,66.8,102.3,67,101.3,67.1L101.3,67.1z M88.1,37.1h8.2
	c3.4,0,6.3-0.1,8.7-0.4l0,0L98,13h-1.3L88.1,37.1z M148,12.1c0-2.2-0.3-3.7-0.8-4.4c-0.5-0.8-1.6-1.1-3.1-1.1l0,0l-3.4,0.1l-0.5-0.8
	l0.9-5.7l13.7,0.3c1.9,0,4.5-0.1,7.7-0.3s5.3-0.4,6.3-0.5l0,0L168.1,6c-2.7,0.4-4.5,1.1-5.5,1.9c-0.9,0.8-1.4,2.2-1.5,4l0,0L160,53
	c-0.1,2.8,0.2,4.7,0.8,5.7c0.6,1,1.8,1.4,3.6,1.4l0,0c1,0,2,0,2.8-0.1s1.3-0.2,1.6-0.3l0,0l0.4,0.7l-0.9,6.1c-1.1,0-3.2,0-6.1-0.1
	s-5.9-0.1-8.8-0.1l0,0c-3.1,0-6,0-8.7,0.1s-4.6,0.1-5.5,0.1l0,0l1.1-6.2c3.2-0.4,5.2-1.1,6.2-2.1s1.4-2.9,1.4-5.9l0,0L148,12.1z
	 M162.7,31.7l17-17.1c2-1.9,3-3.5,3-5l0,0c0-1-0.5-1.7-1.4-2.2s-2.5-0.8-4.6-1l0,0l-0.4-0.7l0.9-5.9c1,0.1,2.9,0.2,5.9,0.4
	c2.9,0.2,5.3,0.3,7.2,0.3l0,0c2.4,0,4.7,0,7-0.1s3.9-0.2,4.8-0.3l0,0l0.7,0.9l-0.9,5.5c-2.1,0.7-4.1,1.8-6,3.4
	c-1.9,1.5-4.4,4.1-7.6,7.6l0,0l-13.2,13.3l15.5,21c2.3,3.2,4.4,5.4,6.3,6.8s4.1,2.1,6.5,2.2l0,0l0.7,0.9l-0.8,4.9
	c-1.1,0.1-2.8,0.3-5.4,0.6c-2.5,0.3-4.6,0.5-6.3,0.6l0,0c-4.2,0-8.2-2.9-12-8.6l0,0l-17.1-25.3L162.7,31.7z M242,67.1l-0.4-0.7
	l0.4-5.7c3.7-0.4,6.1-0.8,7.2-1.2s1.7-1.3,1.7-2.6l0,0c0-1.1-0.3-2.4-0.8-3.8l0,0l-2.5-8.6c-1.9-0.1-5.3-0.1-10.4-0.1l0,0
	c-2.7,0-6.3,0.2-10.7,0.7l0,0l-3.2,8.4c-0.4,1.8-0.7,2.9-0.7,3.3l0,0c0,1.3,0.4,2.2,1.3,2.8c0.8,0.5,2.3,0.8,4.3,0.8l0,0h4.9
	l0.5,0.7l-0.8,5.9c-1-0.1-3.1-0.2-6.3-0.4c-3.3-0.2-6.3-0.3-9.2-0.3l0,0c-2.9,0-5.5,0-7.9,0.1s-4,0.1-4.8,0.1l0,0l0.8-6.3
	c1.8-0.3,3.2-0.9,4.3-1.9c1.1-1,2.1-2.7,3.1-5.2l0,0L232.6,1l14-1.7l1.2,0.4c1,3.9,3.3,11.8,6.7,23.8c3.4,12,6.5,21.9,9.2,29.6l0,0
	c0.8,2.6,1.8,4.3,3.1,5.3c1.3,1,3.3,1.6,6,1.9l0,0l0.4,0.7l-0.8,5.5c-0.9,0-2.6,0-5.1-0.1s-5.1-0.1-7.7-0.1l0,0
	c-3.7,0-7.3,0.1-10.9,0.3C245.2,66.8,242.9,67,242,67.1L242,67.1z M228.8,37.1h8.2c3.4,0,6.3-0.1,8.7-0.4l0,0l-7-23.7h-1.3
	L228.8,37.1z M280.5,67.3l0.8-6.5c2.7-0.4,4.6-1.2,5.7-2.4c1.1-1.3,1.6-3.4,1.6-6.4l0,0l0.1-39.9c0-2.2-0.3-3.7-0.8-4.4
	c-0.5-0.8-1.6-1.1-3.2-1.1l0,0l-3.4,0.1l-0.5-0.8l0.8-5.7c1.6,0,3,0,4.4,0.1l0,0l9.6,0.1c1.9,0,4.7-0.1,8.2-0.3s5.8-0.4,7-0.5l0,0
	l-1,6.7c-2.4,0.3-4.1,0.7-5.1,1.2s-1.7,1.2-2,2.2c-0.3,0.9-0.5,2.4-0.7,4.5l0,0c-0.9,11.1-1.3,23.8-1.3,38.2l0,0
	c0,2.8,0.5,4.6,1.4,5.4c0.9,0.8,3,1.2,6.1,1.2l0,0c3.8,0,6.6-0.4,8.4-1.1c1.8-0.7,3.2-2.2,4.1-4.3c0.9-2.1,1.7-5.4,2.4-10l0,0
	l7.8-0.8l0.5,0.9c-0.2,1.2-0.6,4.1-1.2,8.5c-0.6,4.4-1.2,9.1-1.7,13.9l0,0l-0.9,1c-2-0.1-6.3-0.3-12.8-0.5
	c-6.5-0.3-12.3-0.4-17.3-0.4l0,0c-3.8,0-7.4,0.2-10.8,0.5C283.6,67,281.4,67.2,280.5,67.3L280.5,67.3z M368.6,67.5
	c-6.2,0-11.7-1.3-16.3-4c-4.7-2.6-8.2-6.4-10.8-11.2c-2.5-4.8-3.7-10.5-3.7-17l0,0c0-7,1.5-13.3,4.5-18.7c3-5.5,7.2-9.7,12.6-12.7
	c5.4-3,11.5-4.5,18.5-4.5l0,0c9.6,0,17.2,2.9,22.8,8.6s8.4,13.5,8.4,23.3l0,0c0,7-1.5,13.3-4.6,18.8s-7.3,9.8-12.8,12.9
	C381.8,65.9,375.6,67.5,368.6,67.5L368.6,67.5z M371.5,59.6c5.6,0,10.1-2.1,13.4-6.2c3.3-4.1,5-9.8,5-17l0,0
	c0-8.9-1.8-15.8-5.3-20.7s-8.3-7.4-14.5-7.4l0,0c-5.5,0-9.9,2-13.1,6.1c-3.2,4.1-4.8,9.7-4.8,16.9l0,0c0,8.9,1.7,15.8,5.1,20.7
	C360.8,57.1,365.6,59.6,371.5,59.6L371.5,59.6z M431.6,67.8c-1-3.8-3.4-11.7-6.9-23.8c-3.6-12.1-6.8-22.5-9.8-31.3l0,0
	c-0.7-2-1.7-3.5-3-4.5s-3.2-1.6-5.5-1.7l0,0L405.9,6l0.8-5.8c1,0,2.8,0,5.4,0.1s5.3,0.1,7.9,0.1l0,0c3,0,6.4-0.1,10.2-0.4
	s6.3-0.4,7.4-0.5l0,0l0.5,0.8L437.8,6c-2.6,0.3-4.5,0.5-5.7,0.7s-2,0.6-2.4,1c-0.4,0.5-0.7,1.2-0.7,2.2l0,0c0,1.5,1.6,8.1,4.7,19.8
	c3.1,11.7,5.3,19.6,6.4,23.9l0,0h1.4c2.1-5,5.1-13.2,9.1-24.5s5.9-17.8,5.9-19.3l0,0c0-1.2-0.5-2.1-1.4-2.6s-2.5-0.8-4.8-0.8l0,0
	h-4.6l-0.4-0.7l0.7-5.9c1,0.1,3.1,0.2,6.5,0.4c3.3,0.2,6.4,0.3,9.4,0.3l0,0c2.9,0,5.5,0,7.8-0.1s3.9-0.1,4.7-0.1l0,0l-0.9,6.3
	c-1.8,0.2-3.2,0.6-4,1.3s-1.6,2-2.4,4l0,0l-20.8,53.9L431.6,67.8z"/>
</svg>
