<svg xmlns="http://www.w3.org/2000/svg" xml:space="preserve" viewBox="0 0 163.3 163.3">
  <path d="M46.1 21c-3.3 0-4-.7-4-3.6 0-1.1-.1-1.4-.1-1.5-.1-.1-.3-.1-1.5-.1-3.2 0-3.6-.9-3.6-4 0-3.3.7-4 3.6-4 1.1 0 1.4-.1 1.5-.1.1-.1.1-.3.1-1.5 0-3.2.8-3.6 3.9-3.6 3.1 0 4 .4 4.1 3.6 0 1.1.1 1.4.1 1.5.1.1.3.1 1.5.1 3.2 0 3.6.9 3.6 4 0 3.3-.7 4-3.6 4-1.1 0-1.4.1-1.5.1-.1.1-.1.3-.1 1.5 0 3.1-.9 3.6-4 3.6zM46 4.6c-.4 0-1.6 0-1.8.1-.1.2-.1 1.1-.1 1.5 0 2.9-.7 3.6-3.6 3.6-.3 0-1.3 0-1.4.1-.1.1-.2.5-.2 1.9 0 .5 0 1.7.2 1.9.2.1 1.1.1 1.4.1 2.9 0 3.6.7 3.6 3.6 0 .3 0 1.3.1 1.4.1.1.5.2 1.9.2.5 0 1.7 0 1.9-.2.1-.1.1-.4.1-1.4 0-2.9.7-3.6 3.6-3.6.3 0 1.3 0 1.4-.1.1-.1.2-.5.2-1.9 0-.5 0-1.7-.2-1.9-.1-.1-1.1-.1-1.4-.1-2.9 0-3.6-.7-3.6-3.6 0-.3-.1-1.3-.2-1.4-.2-.2-1.4-.2-1.9-.2z" class="st0"/>
  <path d="M152.2 40.6h-30.7c-8.1 0-15.6-.1-21.3-.3-2.6-.1-4.7-.2-6.2-.3-2.2-.1-3.4-.2-3.4-1.5 0-.3-.4-3-.8-6.2-.4-2.6-.8-5.7-1.2-9-.6-4.8-1.3-9.1-1.7-11.8-.5-3.2-.5-3.2-.5-3.3 0-1.5 1.2-1.6 6.3-1.6h5.8V22h2.7V6.6h3.8c3 0 3.9.9 3.9 3.9 0 .3 0 1 .1 1.3.4.1 1.3.1 1.7.1 1.1 0 1.5-.1 1.7-.1.1-.3.1-1 .1-1.2v-4h17.9v5.1c0 1.1 0 2.1.1 2.5.6.1 2.7.1 3.3 0 .1-.4.1-1.4.1-2.5 0-3.8.2-5.1 3.9-5.1h3.8v15.5h2.7V6.8h6.5c3.6 0 5 .1 5.7 1.1.6.8.3 1.7.2 2-.3.9-1.4 8.6-2.3 15.4v.1l-2.2 15.2zm-59.1-2.1s.1.1 0 0c.1.1 0 0 0 0zm-.1-.9c2.8.3 13 .6 28.5.6H150l1.8-13.2c1.4-9.7 2-14.2 2.4-15.5-.9-.1-2.6-.1-3.4-.1h-4v15.4H139V9.1h-1.3c-.3 0-1 0-1.2.1-.1.4-.1 1.7-.1 2.5 0 4.2-.3 5-4.2 5s-4.2-.8-4.2-5V9.1h-13v1.4c0 3.1-.8 3.9-4.2 3.9-3.2 0-4.2-.5-4.2-3.9 0-.8 0-1.1-.1-1.3-.1 0-.5-.1-1.3-.1h-1.3v15.4H96V9.1h-3.2c-1.7 0-2.9 0-3.7.1.1.5.2 1.2.3 2 .4 2.8 1 7.1 1.7 11.8.5 3.3.9 6.5 1.2 9 .4 3 .6 4.7.7 5.6z" class="st0"/>
  <path d="M78 157.2H17l-.6-6.4c-.3-3-1.3-17.6-2.2-31.7-.9-13.9-1.9-28.7-2.2-31.6l-.6-6.8h10.4v27.4l2.1 2.3c1.5 1.6 3.1 2.4 4.8 2.4 1.6 0 3.2-.9 4.6-2.4 2.1-2.3 2.1-2.3 2.1-13.3 0-10.4.3-12.4 2.1-13.1 1.5-.6 2.8-.5 3.7.1 1.2.9 1.8 2.6 1.8 5.7 0 4.5 1.4 7.6 4 8.8 2.6 1.2 3.5 1.1 6-.2 2.4-1.2 3.7-3.3 3.7-10.5v-7.2h18.2c6.7 0 11.4 0 14 .2 1.8.1 4.3.3 4.3 2.3 0 2.6-1.7 27.6-2.2 31.8l-.6 5.6h-5.1c-3.1 0-3.9.3-5.5 2l-2 2 .2 32.6zm-58.8-2.5h56.2l-.2-30.8 2.7-2.8c2.1-2.2 3.6-2.8 7.3-2.8h2.9l.4-3.4c.5-4.5 2-27.1 2.2-31.1-1.6-.4-8.1-.5-15.7-.5H59.1V88c0 6.4-.8 10.5-5.1 12.7-3.2 1.7-4.9 1.7-8.2.2-3.5-1.6-5.4-5.6-5.4-11 0-2.9-.6-3.6-.7-3.7-.2-.1-.7-.1-1.3.1-.6 1-.6 7.6-.6 10.8 0 11.4 0 11.9-2.7 14.9-1.9 2.1-4.1 3.3-6.5 3.3h-.1c-2.4 0-4.6-1.1-6.6-3.3l-2.7-3.1V83H14l.4 4c.3 3 1.3 17.8 2.2 31.7.9 13.9 1.9 28.7 2.2 31.6l.4 4.4zm137.9-24h-77l.9-7.1 64.9-.8 1.7-2c1.9-2.1 2.3-5.3 1-7.7-1.5-2.9-3.6-3.5-22.1-3.5-16.6 0-18.2-.2-19.1-2.2-.5-1.2-.2-2.9.6-3.9 1.1-1.4 3.4-1.7 24.7-1.6l23.8.2.6 28.6zm-74.2-2.5h71.6l-.4-23.5-21.4-.2c-12.1-.1-21.5-.1-22.8.7-.2.3-.3.9-.2 1.3.9.6 7.5.7 16.8.7 18.2 0 22 .4 24.3 4.9 1.7 3.3 1.2 7.6-1.4 10.5l-2.5 2.8-63.7.6-.3 2.2zm27.1-23.1zm11.8 15.4c-3 0-3.8-.9-3.8-3.8 0-3 .9-3.9 3.8-3.9 3 0 3.9.9 3.9 3.9s-.9 3.8-3.9 3.8zm-1.3-2.5c.1 0 .5.1 1.3.1s1.1 0 1.3-.1c0-.1.1-.5.1-1.3s0-1.1-.1-1.3c-.1 0-.5-.1-1.3-.1s-1.1 0-1.3.1c0 .1-.1.5-.1 1.3.1.8.1 1.1.1 1.3zm18.4 2.4h-2.2c-7-.3-8-.3-8.4-3.7v-.1l-.3-3.7h9.1c6.5 0 8.6.3 9.4 2.1.5 1.3.5 2.4-.2 3.3-1.1 1.5-3.3 2.1-7.4 2.1zm-8.2-4c0 .4.1.8.2 1 .4.3 2.7.4 5.8.5 5.9.3 7.1-.6 7.4-.9.2-.2 0-.7-.1-1-.6-.5-5.4-.5-7-.5h-6.3v.9zm-98.8-6.9h-6.7V88.6c0-12.8-.5-19.9-.8-20.8-.3-.5-.7-.9-5.7-.9h-7.5L12 63c1.5-6.2 6.4-12 12.5-14.8 5.6-2.5 14-2.2 19.5.5l3.2 1.6.7-.9c.4-.6.7-1.1.9-1.5-.5-.4-1.6-1.1-3.4-2-3.8-2-5.2-2.7-4-6 1.4-3.8 3.4-6.2 6.7-8 1.8-.9 5-1.6 7.4-1.6 4.8 0 9.1 2.3 11.6 6.3 2.7 4.3 3 9.8.6 14.7-.4 1-.9 1.9-.9 2.2.1.1.6.4 1.1.7 3.1 2.1 9.1 7.5 9.1 9.9.2 2.9-2.3 2.9-12 2.9-9 0-10.4.1-10.8.9-.3.8-.8 6-.8 13.9v14h-3.2c-3.2 0-3.4-1.9-3.7-6.4-.4-4.5-.8-5.2-2.7-6.9-3-2.7-5.8-2.7-8.8.1l-2.4 2.1-.7 24.8zm-4.1-2.5h1.7l.6-23.3 3.2-2.9c4.1-3.6 8.2-3.6 12.2-.1 2.6 2.3 3.1 3.8 3.5 8.5.1 1.4.3 3.8.6 4.1H51V81.8c0-4.8.2-13.4 1-15.1 1.2-2.3 3-2.3 13-2.3 3.4 0 8.3 0 9.7-.4-.7-1.3-4.5-5.3-8-7.7-2.8-1.9-2.5-2.8-1-6 2-4.1 1.8-8.7-.5-12.3-2.1-3.3-5.6-5.2-9.7-5.1-2.2 0-4.9.7-6.1 1.4-2.7 1.4-4.3 3.4-5.5 6.6-.1.2-.3.8-.3 1 .2.3 1.8 1.2 3.1 1.9 4.9 2.5 4.9 3.3 4.9 3.9 0 .9-.8 2.2-1.5 3.2l-1.9 2.7-5.3-2.6c-4.8-2.4-12.5-2.6-17.3-.5-5.3 2.4-9.8 7.7-11.1 13.1l-.2.9h4.5c4.9 0 6.8.2 7.9 2.3 1 1.9 1 17.2 1 21.9V107zm97.9-7.8H118V56.8h7.7v42.4zm-5.2-2.4h2.7V59.2h-2.7v37.6z" class="st0"/>
  <path d="M157 157h-10.1v-12.8h-2.7V157H134v-12.8h-3.5V157h-10.1v-12.8H117V157h-10.1v-12.8h-2.7V157H94v-12.8h-3.5V157h-10v-22.9H157V157zm-7.7-2.5h5.1v-17.9H83v17.9h5v-12.8h8.5v12.8h5.1v-12.8h7.7v12.8h5.1v-12.8h8.5v12.8h5.1v-12.8h8.5v12.8h5.1v-12.8h7.7v12.8z" class="st0"/>
  <path d="M14.2 37.4c-3.3 0-4-.7-4-3.6 0-1.1-.1-1.4-.1-1.5-.1-.1-.3-.1-1.5-.1-3.2 0-3.6-.9-3.6-4 0-3.3.7-4 3.6-4 1.1 0 1.4-.1 1.5-.1.1-.1.1-.3.1-1.5 0-2.9.7-3.6 4-3.6s4 .7 4 3.6c0 1.1.1 1.4.1 1.5.1.1.3.1 1.5.1 3.2 0 3.6.9 3.6 4 0 3.3-.7 4-3.6 4-1.1 0-1.4.1-1.5.1-.1.1-.1.3-.1 1.5 0 3.2-.9 3.6-4 3.6zm0-16.4c-1.4 0-1.8.1-1.9.2-.1.2-.1 1.1-.1 1.4 0 2.9-.7 3.6-3.6 3.6-.3 0-1.3 0-1.4.1-.1.1-.2.5-.2 1.9 0 .5 0 1.7.2 1.9.2.1 1.1.1 1.4.1 2.9 0 3.6.7 3.6 3.6 0 .3 0 1.3.1 1.4.1.1.5.2 1.9.2.5 0 1.7 0 1.9-.2.1-.2.1-1.1.1-1.4 0-2.9.7-3.6 3.6-3.6.3 0 1.3 0 1.4-.1.1-.1.2-.5.2-1.9 0-.5 0-1.7-.2-1.9-.2-.1-1.1-.1-1.4-.1-2.9 0-3.6-.7-3.6-3.6 0-.3 0-1.3-.1-1.4-.1-.1-.5-.2-1.9-.2z" class="st0"/>
  <path d="M149.7 87.1c-3.3 0-4-.7-4-3.6 0-1.1-.1-1.4-.1-1.5-.1-.1-.3-.1-1.5-.1-2.9 0-3.6-.7-3.6-3.6 0-2.9.7-3.6 3.6-3.6.3 0 1.3 0 1.5-.1.1-.2.1-1.4.1-1.9 0-1.5 0-2.6.7-3.3.7-.7 1.8-.6 3.2-.5 2.9.2 3.7 1 3.9 3.9.2 1.9.2 1.9 1.8 1.9 2.7 0 3.5.8 3.5 3.6 0 2.9-.7 3.6-3.6 3.6-1.1 0-1.4.1-1.5.1-.1.1-.1.3-.1 1.5.1 3.1-.8 3.6-3.9 3.6zm-1.4-16.3c-.2 0-.4 0-.5.1-.1.2-.1 1.2-.1 1.8 0 3.1-.4 4-3.6 4-1.1 0-1.4.1-1.5.1-.1.1-.1.3-.1 1.5 0 1.1.1 1.4.1 1.5.1.1.3.1 1.5.1 2.9 0 3.6.7 3.6 3.6 0 .3 0 1.3.1 1.4.1.1.5.2 1.9.2.5 0 1.7 0 1.9-.2.1-.1.1-.4.1-1.4 0-2.9.7-3.6 3.6-3.6 1.1 0 1.4-.1 1.5-.1.1-.1.1-.3.1-1.5 0-1.1-.1-1.4-.1-1.5-.1 0-.3-.1-1.4-.1-2.9 0-3.5-.9-3.8-3.7-.2-1.9-.2-2-2.1-2.1-.3 0-.8-.1-1.2-.1z" class="st0"/>
  <path d="M151.8 53.1H91.5v-9.3h60.3v9.3zM94 50.6h55.3v-4.3H94v4.3z" class="st0"/>
  <path d="M56.5 78v-3.9H59v1.3l37.2-.3.3-2.1H59.1v1.1h-2.5v-3.6h42.7l-.9 7z" class="st0"/>
  <path d="M21.9 78H6.5v-7.7h15.3V78zM9 75.5h10.3v-2.7H9v2.7z" class="st0"/>
  <path d="M100.5 36c-3.3 0-3.8-1.1-3.8-4.2s.6-4.2 3.8-4.2c3.3 0 3.8 1 3.8 4.2s-.5 4.2-3.8 4.2zm-1.3-2.6c.1 0 .5.1 1.2.1.3 0 1 0 1.3-.1.1-.4.1-1.3.1-1.7s0-1.3-.1-1.7c-.3-.1-1-.1-1.3-.1-.8 0-1.1 0-1.2.1-.1.3-.1 1.3-.1 1.7s.1 1.3.1 1.7z" class="st0"/>
</svg>
