<?xml version="1.0" encoding="utf-8"?>
<!-- Generator: Adobe Illustrator 26.0.2, SVG Export Plug-In . SVG Version: 6.00 Build 0)  -->
<svg version="1.1" id="Слой_2_00000155839950645995587310000004531102493947268767_"
	 xmlns="http://www.w3.org/2000/svg" xmlns:xlink="http://www.w3.org/1999/xlink" x="0px" y="0px" viewBox="0 0 22.6 20"
	 style="enable-background:new 0 0 22.6 20;" xml:space="preserve">
<style type="text/css">
	.st0{fill:none;stroke:#E49F00;stroke-width:0.5;}
	.st1{display:none;fill:none;stroke:#4C85D3;stroke-width:0.4773;}
	.st2{display:none;fill:none;stroke:#4C85D3;stroke-width:0.5;}
	.st3{fill:none;stroke:#4C85D3;stroke-width:0.5;}
	.st4{fill:none;stroke:#4C85D3;stroke-width:0.4773;}
</style>
<g>
	<g>
		<path class="st0" d="M3.5,17.4V2.7H1.8c-0.3,0-0.5-0.1-0.6-0.2S1,2.3,1,2.1s0.1-0.3,0.2-0.4s0.3-0.2,0.6-0.2h7.7
			c1.5,0,2.8,0.4,3.7,1.3s1.4,1.9,1.4,3.1c0,1.5-0.8,2.7-2.4,3.6c1.3,0.5,2.2,1.1,2.8,1.8s1,1.7,1,2.6c0,0.8-0.2,1.6-0.6,2.2
			c-0.4,0.7-1,1.3-1.8,1.7S12,18.6,11,18.6H1.8c-0.3,0-0.5-0.1-0.6-0.2S1,18.2,1,18s0.1-0.3,0.2-0.4s0.3-0.2,0.6-0.2H3.5z"/>
	</g>
</g>
<path class="st1" d="M9.8,16.8"/>
<path class="st2" d="M11,16.5"/>
<path class="st3" d="M12.5,1.7c0.3-0.1,1-0.2,1.8-0.2c2,0,3.8,0.7,5.2,2.1V2.7c0-0.3,0.1-0.5,0.2-0.6C19.8,2,20,1.9,20.1,1.9
	s0.3,0.1,0.4,0.2c0.1,0.1,0.2,0.3,0.2,0.6v3.4c0,0.3-0.1,0.5-0.2,0.6s-0.3,0.2-0.4,0.2c-0.2,0-0.3-0.1-0.4-0.2s-0.2-0.2-0.3-0.4
	c0-0.8-0.5-1.5-1.3-2.2c-0.5-0.4-1.1-0.7-1.7-0.9c-0.2-0.1-1.1-0.4-2.2-0.4"/>
<path class="st3" d="M15.2,17.2c0.9,0,1.8-0.3,1.8-0.3c0.2-0.1,0.5-0.2,0.8-0.4c0.8-0.5,1.6-1.2,2.4-2.1c0.2-0.2,0.4-0.3,0.6-0.3
	s0.3,0.1,0.4,0.2c0.1,0.1,0.2,0.2,0.2,0.4s-0.2,0.6-0.6,1c-0.8,0.9-1.7,1.6-2.7,2c-1,0.5-2,0.7-3,0.7c-0.4,0-1-0.1-1.1-0.1
	c0,0,0,0,0,0c0,0-0.1,0-0.1,0"/>
<path class="st0" d="M4.7,9h4.4c0.9,0,1.8-0.2,2.5-0.5c0.6-0.3,1.1-0.7,1.4-1.2s0.5-1,0.5-1.6c0-0.8-0.4-1.5-1.1-2.1s-1.7-1-2.8-1
	H4.7V9z"/>
<path class="st0" d="M4.7,17.4h6.2c0.8,0,1.5-0.2,2.1-0.5s1-0.8,1.3-1.3c0.3-0.5,0.5-1.1,0.5-1.6c0-0.6-0.2-1.2-0.7-1.8
	s-1-1-1.8-1.3s-1.8-0.5-3.2-0.5H4.7V17.4z"/>
<path class="st4" d="M9.6,3.3C5,6.5,5.3,13.4,10.2,16.8"/>
<path class="st3" d="M11,3.5c-6,3.5-3.3,11.6,1,13"/>
</svg>
