<svg xmlns="http://www.w3.org/2000/svg" viewBox="0 0 163.333 163.333">
  <path fill="#FFF" fill-rule="evenodd" stroke="#4C85D3" stroke-miterlimit="10" stroke-width="3" d="M43.089 6.189c0 2.3-.3 2.6-2.6 2.6s-2.6.2-2.6 3 .2 3 2.6 3c2.3 0 2.6.3 2.6 2.6s.2 2.6 3 2.6c2.7 0 3-.2 3-2.6 0-2.3.3-2.6 2.6-2.6s2.6-.2 2.6-3-.2-3-2.6-3c-2.3 0-2.6-.3-2.6-2.6-.1-2.4-.3-2.6-3.1-2.6-2.7 0-2.9.2-2.9 2.6" clip-rule="evenodd"/>
  <path fill="#FFF" fill-rule="evenodd" stroke="#4C85D3" stroke-miterlimit="10" stroke-width="3" d="M82.567 2.689c-1 .7-.8 3.5 1.5 19.8 1.5 10.4 2.7 22.2 2.7 26.2 0 4.5.4 7.7 1 8.3.7.7 4.9 1 13.2 1h12.2v40h-2.6c-3.5 0-7.6 4-7.6 7.5s3.6 7.6 7.3 8.3c2.5.5 2.9.9 2.9 3v2.5h-8.9c-8.7 0-8.9-.1-8.9-1.9 0-3.5 1.8-30 2.2-32.7.3-2.2.9-2.8 2.7-3 2.3-.3 2.3-.3 2.6-7.4.2-5.2-.1-7.4-.9-7.9-.6-.4-5.4-.7-10.6-.7h-9.5l-1-3.1c-.6-1.7-2.7-4.8-4.7-6.9-3.6-3.8-3.7-4-2.8-7.2 1.5-5.5-.9-13.4-5.3-17.4-4.7-4.3-11.9-6.1-17.7-4.6-4.7 1.3-10.6 6.8-12.4 11.6-1.3 3.5-1.6 3.8-4.6 3.8-9.3 0-18.6 5.9-22.9 14.5-1.6 2.9-2.7 6.2-2.7 7.3 0 1.5-.5 2-2 2-3.2 0-4 1.6-4 7.8 0 7.2.5 8.4 3.3 8.4h2.3l2.4 38c1.3 20.9 2.8 38.9 3.1 40l.7 1.9h73c55.6 0 73.2-.2 74-1s1-8.3 1-28.7c0-26-.1-27.8-1.7-30.4-.9-1.5-2.5-2.9-3.6-3.2-1.1-.3-7.5-.5-14.3-.7l-12.2-.2-.2-19.8-.2-19.8h12.6c8.7 0 12.9-.3 13.6-1 .7-.7 1-4 1-9.3 0-4.7 1.1-15.9 2.6-25.9 1.9-13.3 2.3-17.9 1.6-18.8-.8-.9-8-1.2-38.9-1.1-21.3 0-38.6.4-39.3.8" clip-rule="evenodd"/>
  <path fill="#FFF" fill-rule="evenodd" stroke="#4C85D3" stroke-miterlimit="10" stroke-width="3" d="M87.667 8.189c0 .2 1 6.9 2.1 15s2.1 15 2.1 15.4c0 .4 12.4.8 29.6.8h29.6l1.9-14.2c1.1-7.8 2.1-14.9 2.4-15.7.4-1.3-.2-1.5-4.7-1.5h-5.2v15.4h-5.2v-15.5h-2.6c-2.5 0-2.6.1-2.6 3.8 0 3.8 0 3.8-3 3.8s-3 0-3-3.8v-3.8h-15.4v2.6c0 2.3-.2 2.6-3 2.6s-3-.2-3-2.6c0-2.3-.3-2.6-2.6-2.6h-2.6v15.4h-5.2v-15.4h-4.5c-2.8 0-5.1.1-5.1.3" clip-rule="evenodd"/>
  <path fill="#FFF" fill-rule="evenodd" stroke="#4C85D3" stroke-miterlimit="10" stroke-width="3" d="M48.767 33.189c-3 1.6-4.8 3.8-6.1 7.3-.8 2.1-.6 2.3 3.4 4.4 2.3 1.2 4.2 2.4 4.2 2.8 0 .4-.6 1.5-1.3 2.5l-1.3 1.8-4.2-2.1c-5.2-2.6-13.2-2.8-18.4-.5-5.7 2.6-10.4 8.1-11.8 13.9l-.5 2.4h6c5 0 6.1.3 6.8 1.6.5 1 .9 9.4.9 21.3v19.6h4.2l.3-12 .3-12 2.8-2.5c3.6-3.2 7-3.2 10.5-.1 2.3 2 2.7 3.1 3.1 7.7.4 4.9.6 5.3 2.5 5.3h2v-12.8c0-7.2.4-13.5.9-14.5.8-1.5 1.9-1.6 11.9-1.6 9.6 0 11-.2 11-1.4 0-1.4-4.8-6.3-8.6-8.9-2-1.4-2-1.4-.6-4.5 4.4-9.2-1.5-19.3-11.3-19.2-2.2 0-5.2.7-6.7 1.5m70.4 44.8v20h5.2v-40h-5.2v20m-106 9.2c.3 2.9 1.3 17.2 2.2 31.7s1.9 28.8 2.2 31.7l.5 5.3h58.6l-.1-15.8-.1-15.8 2.3-2.4c1.9-2 3-2.4 6.4-2.4h4l.5-4.5c.5-4.5 2.2-29.3 2.2-31.7 0-1.1-2.6-1.3-17-1.3h-17v5.9c0 6.9-1.1 9.9-4.4 11.6-2.9 1.5-4.2 1.5-7.1.2-3-1.4-4.7-4.9-4.7-9.9 0-4.3-1.1-5.7-3.8-4.7-1 .4-1.3 2.5-1.3 11.9 0 11.3 0 11.4-2.4 14.1-3.4 3.8-7.8 3.8-11.3 0l-2.4-2.7v-26.6h-7.8l.5 5.4m95.9 17.1c-.5.6-.7 1.8-.4 2.6.5 1.2 2.6 1.4 17.9 1.4 18.4 0 21.3.5 23.2 4.2 1.5 2.8 1 6.6-1.2 9.1l-2.1 2.4-32.2.4-32.2.4-.3 2.3-.3 2.3h74.3l-.2-13-.2-13-22.6-.2c-18.6-.1-22.9.1-23.7 1.1m10.1 12.4c0 2.3.3 2.6 2.6 2.6s2.6-.3 2.6-2.6-.3-2.6-2.6-2.6-2.6.3-2.6 2.6m10.3-.2c.3 2.3.3 2.3 7.2 2.6 7.2.3 9.6-.8 8.5-3.6-.4-1-2.1-1.3-8.2-1.3h-7.7l.2 2.3" clip-rule="evenodd"/>
  <path fill="#FFF" fill-rule="evenodd" stroke="#4C85D3" stroke-miterlimit="10" stroke-width="3" d="M81.667 145.589v10.2h7.6v-12.8h6v12.8h7.6v-12.8h5.2v12.8h7.6v-12.8h6v12.8h7.6v-12.8h6v12.8h7.6v-12.8h5.2v12.8h7.6v-20.4h-74v10.2" clip-rule="evenodd"/>
  <path fill="#FFF" fill-rule="evenodd" stroke="#4C85D3" stroke-miterlimit="10" stroke-width="3" d="M11.167 22.589c0 2.3-.3 2.6-2.6 2.6s-2.6.2-2.6 3 .2 3 2.6 3c2.3 0 2.6.3 2.6 2.6s.2 2.6 3 2.6 3-.2 3-2.6c0-2.3.3-2.6 2.6-2.6s2.6-.2 2.6-3-.2-3-2.6-3c-2.3 0-2.6-.3-2.6-2.6s-.2-2.6-3-2.6-3 .3-3 2.6" clip-rule="evenodd"/>
  <path fill="#FFF" fill-rule="evenodd" stroke="#4C85D3" stroke-miterlimit="10" stroke-width="3" d="M146.667 72.721c0 2.8-.2 3-2.6 3-2.3 0-2.6.3-2.6 2.6s.3 2.6 2.6 2.6 2.6.3 2.6 2.6c0 2.3.2 2.6 3 2.6 2.7 0 3-.2 3-2.6 0-2.3.3-2.6 2.6-2.6s2.6-.3 2.6-2.6c0-2.3-.3-2.6-2.5-2.6s-2.5-.3-2.8-2.8c-.2-2.4-.6-2.8-3-3-2.8-.2-2.9-.1-2.9 2.8" clip-rule="evenodd"/>
  <path fill="#FFF" fill-rule="evenodd" stroke="#4C85D3" stroke-miterlimit="10" stroke-width="3" d="M92.668 48.511v3.4h57.8v-6.8h-57.8v3.4" clip-rule="evenodd"/>
  <path fill="#FFF" fill-rule="evenodd" stroke="#4C85D3" stroke-miterlimit="10" stroke-width="3" d="M57.667 74.089v2.6l19.8-.2 19.8-.2.3-2.3.3-2.3h-40v2.4" clip-rule="evenodd"/>
  <path fill="#FFF" fill-rule="evenodd" stroke="#4C85D3" stroke-miterlimit="10" stroke-width="3" d="M7.767 74.189v2.6h12.8v-5.2h-12.8v2.6" clip-rule="evenodd"/>
  <path fill="#FFF" fill-rule="evenodd" stroke="#4C85D3" stroke-miterlimit="10" stroke-width="3" d="M97.867 31.688c0 2.7.2 3 2.6 3s2.6-.2 2.6-3-.2-3-2.6-3-2.6.3-2.6 3" clip-rule="evenodd"/>
</svg>
