<svg xmlns="http://www.w3.org/2000/svg" xmlns:xlink="http://www.w3.org/1999/xlink" width="220" height="80" viewBox="0 0 220 80"><rect width="100%" height="100%" fill="#333"/><path d="M52.09 50.11L59.69 50.11Q60.51 50.11 60.99 50.57Q61.48 51.03 61.48 51.79L61.48 51.79L61.48 54.82L41.14 54.82L41.14 53.14Q41.14 52.63 41.36 52.06Q41.57 51.50 42.04 51.05L42.04 51.05L51.04 42.03Q52.17 40.88 53.06 39.84Q53.95 38.79 54.55 37.77Q55.14 36.74 55.46 35.68Q55.78 34.63 55.78 33.46L55.78 33.46Q55.78 32.39 55.47 31.58Q55.16 30.77 54.60 30.22Q54.03 29.67 53.25 29.39Q52.46 29.11 51.47 29.11L51.47 29.11Q50.57 29.11 49.80 29.37Q49.03 29.63 48.44 30.09Q47.84 30.55 47.43 31.16Q47.02 31.78 46.82 32.52L46.82 32.52Q46.47 33.46 45.92 33.77Q45.36 34.08 44.32 33.91L44.32 33.91L41.65 33.44Q41.96 31.31 42.84 29.70Q43.72 28.09 45.05 27.01Q46.37 25.94 48.08 25.39Q49.79 24.85 51.76 24.85L51.76 24.85Q53.81 24.85 55.51 25.46Q57.21 26.06 58.42 27.17Q59.63 28.27 60.31 29.83Q60.98 31.39 60.98 33.30L60.98 33.30Q60.98 34.94 60.50 36.33Q60.02 37.72 59.21 39.00Q58.40 40.27 57.31 41.46Q56.23 42.64 55.04 43.87L55.04 43.87L48.36 50.70Q49.32 50.41 50.27 50.26Q51.23 50.11 52.09 50.11L52.09 50.11ZM75.87 50.11L83.47 50.11Q84.29 50.11 84.77 50.57Q85.26 51.03 85.26 51.79L85.26 51.79L85.26 54.82L64.92 54.82L64.92 53.14Q64.92 52.63 65.14 52.06Q65.35 51.50 65.82 51.05L65.82 51.05L74.82 42.03Q75.95 40.88 76.84 39.84Q77.73 38.79 78.33 37.77Q78.92 36.74 79.24 35.68Q79.56 34.63 79.56 33.46L79.56 33.46Q79.56 32.39 79.25 31.58Q78.94 30.77 78.38 30.22Q77.81 29.67 77.03 29.39Q76.24 29.11 75.25 29.11L75.25 29.11Q74.35 29.11 73.58 29.37Q72.81 29.63 72.22 30.09Q71.62 30.55 71.21 31.16Q70.80 31.78 70.60 32.52L70.60 32.52Q70.25 33.46 69.70 33.77Q69.14 34.08 68.10 33.91L68.10 33.91L65.43 33.44Q65.74 31.31 66.62 29.70Q67.50 28.09 68.83 27.01Q70.15 25.94 71.86 25.39Q73.57 24.85 75.54 24.85L75.54 24.85Q77.59 24.85 79.29 25.46Q80.99 26.06 82.20 27.17Q83.41 28.27 84.09 29.83Q84.76 31.39 84.76 33.30L84.76 33.30Q84.76 34.94 84.28 36.33Q83.80 37.72 82.99 39.00Q82.18 40.27 81.09 41.46Q80.01 42.64 78.82 43.87L78.82 43.87L72.14 50.70Q73.10 50.41 74.05 50.26Q75.01 50.11 75.87 50.11L75.87 50.11ZM109.90 40L109.90 40Q109.90 43.87 109.07 46.73Q108.24 49.59 106.77 51.46Q105.31 53.33 103.31 54.24Q101.31 55.15 98.99 55.15L98.99 55.15Q96.67 55.15 94.70 54.24Q92.72 53.33 91.26 51.46Q89.81 49.59 88.99 46.73Q88.17 43.87 88.17 40L88.17 40Q88.17 36.11 88.99 33.26Q89.81 30.41 91.26 28.54Q92.72 26.68 94.70 25.76Q96.67 24.85 98.99 24.85L98.99 24.85Q101.31 24.85 103.31 25.76Q105.31 26.68 106.77 28.54Q108.24 30.41 109.07 33.26Q109.90 36.11 109.90 40ZM104.67 40L104.67 40Q104.67 36.78 104.20 34.67Q103.73 32.56 102.94 31.31Q102.15 30.06 101.12 29.56Q100.10 29.05 98.99 29.05L98.99 29.05Q97.90 29.05 96.89 29.56Q95.88 30.06 95.10 31.31Q94.32 32.56 93.86 34.67Q93.39 36.78 93.39 40L93.39 40Q93.39 43.22 93.86 45.33Q94.32 47.44 95.10 48.69Q95.88 49.94 96.89 50.44Q97.90 50.95 98.99 50.95L98.99 50.95Q100.10 50.95 101.12 50.44Q102.15 49.94 102.94 48.69Q103.73 47.44 104.20 45.33Q104.67 43.22 104.67 40ZM125.01 43.75L132.20 54.82L127.32 54.82Q126.77 54.82 126.43 54.53Q126.09 54.25 125.87 53.88L125.87 53.88L121.42 46.56Q121.32 46.91 121.18 47.22Q121.05 47.52 120.89 47.79L120.89 47.79L116.95 53.88Q116.72 54.23 116.40 54.52Q116.07 54.82 115.58 54.82L115.58 54.82L111.05 54.82L118.26 43.98L111.33 33.79L116.21 33.79Q116.76 33.79 117.03 33.94Q117.30 34.10 117.50 34.44L117.50 34.44L121.91 41.46Q122.14 40.76 122.55 40.08L122.55 40.08L126.09 34.55Q126.54 33.79 127.26 33.79L127.26 33.79L131.91 33.79L125.01 43.75ZM144.21 51.19L144.21 51.19Q145.47 51.19 146.41 50.83Q147.35 50.48 148.00 49.84Q148.64 49.20 148.97 48.32Q149.30 47.44 149.30 46.42L149.30 46.42Q149.30 43.98 147.95 42.73Q146.59 41.48 144.21 41.48L144.21 41.48Q141.84 41.48 140.48 42.73Q139.13 43.98 139.13 46.42L139.13 46.42Q139.13 47.44 139.46 48.32Q139.79 49.20 140.43 49.84Q141.08 50.48 142.02 50.83Q142.96 51.19 144.21 51.19ZM144.21 28.66L144.21 28.66Q143.09 28.66 142.27 29.01Q141.45 29.36 140.90 29.94Q140.36 30.53 140.10 31.29Q139.85 32.05 139.85 32.89L139.85 32.89Q139.85 33.77 140.06 34.60Q140.28 35.43 140.79 36.07Q141.30 36.72 142.14 37.11Q142.98 37.50 144.21 37.50L144.21 37.50Q145.44 37.50 146.28 37.11Q147.13 36.72 147.64 36.07Q148.15 35.43 148.37 34.60Q148.58 33.77 148.58 32.89L148.58 32.89Q148.58 32.05 148.31 31.29Q148.05 30.53 147.51 29.94Q146.98 29.36 146.16 29.01Q145.34 28.66 144.21 28.66ZM149.22 39.36L149.22 39.36Q151.92 40.25 153.21 42.06Q154.51 43.87 154.51 46.50L154.51 46.50Q154.51 48.47 153.76 50.07Q153.01 51.66 151.66 52.79Q150.30 53.92 148.41 54.53Q146.51 55.15 144.21 55.15L144.21 55.15Q141.92 55.15 140.02 54.53Q138.13 53.92 136.77 52.79Q135.42 51.66 134.67 50.07Q133.92 48.47 133.92 46.50L133.92 46.50Q133.92 43.87 135.22 42.06Q136.51 40.25 139.21 39.36L139.21 39.36Q137.06 38.46 135.98 36.80Q134.91 35.14 134.91 32.80L134.91 32.80Q134.91 31.12 135.59 29.67Q136.28 28.21 137.51 27.14Q138.74 26.06 140.45 25.46Q142.16 24.85 144.21 24.85L144.21 24.85Q146.26 24.85 147.98 25.46Q149.69 26.06 150.92 27.14Q152.15 28.21 152.83 29.67Q153.52 31.12 153.52 32.80L153.52 32.80Q153.52 35.14 152.45 36.80Q151.37 38.46 149.22 39.36ZM178.86 40L178.86 40Q178.86 43.87 178.03 46.73Q177.20 49.59 175.73 51.46Q174.27 53.33 172.27 54.24Q170.27 55.15 167.95 55.15L167.95 55.15Q165.64 55.15 163.66 54.24Q161.68 53.33 160.22 51.46Q158.77 49.59 157.95 46.73Q157.13 43.87 157.13 40L157.13 40Q157.13 36.11 157.95 33.26Q158.77 30.41 160.22 28.54Q161.68 26.68 163.66 25.76Q165.64 24.85 167.95 24.85L167.95 24.85Q170.27 24.85 172.27 25.76Q174.27 26.68 175.73 28.54Q177.20 30.41 178.03 33.26Q178.86 36.11 178.86 40ZM173.63 40L173.63 40Q173.63 36.78 173.16 34.67Q172.69 32.56 171.90 31.31Q171.11 30.06 170.09 29.56Q169.06 29.05 167.95 29.05L167.95 29.05Q166.87 29.05 165.85 29.56Q164.84 30.06 164.06 31.31Q163.28 32.56 162.82 34.67Q162.36 36.78 162.36 40L162.36 40Q162.36 43.22 162.82 45.33Q163.28 47.44 164.06 48.69Q164.84 49.94 165.85 50.44Q166.87 50.95 167.95 50.95L167.95 50.95Q169.06 50.95 170.09 50.44Q171.11 49.94 171.90 48.69Q172.69 47.44 173.16 45.33Q173.63 43.22 173.63 40Z" fill="#fff"/></svg>