<svg xmlns="http://www.w3.org/2000/svg" xml:space="preserve" id="Слой_1" x="0" y="0" version="1.1" viewBox="0 0 32 32">
  <style>
    .st0{fill:none;stroke:#000;stroke-miterlimit:10}
  </style>
  <path d="M16 29.3c-1.8 0-3.6-.4-5.2-1.1-1.6-.7-3-1.7-4.2-2.8-1.2-1.2-2.1-2.6-2.8-4.2-.7-1.6-1-3.4-1.1-5.2 0-1.8.4-3.6 1.1-5.2.7-1.6 1.7-3 2.8-4.2 1.2-1.2 2.6-2.1 4.2-2.8s3.4-1 5.2-1.1c1.8 0 3.6.4 5.2 1.1s3 1.7 4.2 2.8c1.2 1.2 2.2 2.6 2.9 4.2.7 1.6 1.1 3.4 1 5.2 0 1.8-.4 3.6-1.1 5.2s-1.7 3-2.8 4.2c-1.2 1.2-2.6 2.2-4.2 2.9-1.6.7-3.4 1-5.2 1z" class="st0"/>
  <path d="M17.3 22.7H20V9.3h-2.7v5.4h-2.6V9.3H12v8h5.3z" class="st0"/>
  <path d="M16 26.7c3 0 5.5-1 7.6-3.1s3.1-4.6 3.1-7.6-1-5.5-3.1-7.6S19 5.3 16 5.3s-5.5 1-7.6 3.1S5.3 13 5.3 16s1 5.5 3.1 7.6 4.6 3.1 7.6 3.1z" class="st0"/>
</svg>
