<svg xmlns="http://www.w3.org/2000/svg" xmlns:xlink="http://www.w3.org/1999/xlink" width="88" height="31" viewBox="0 0 88 31"><rect width="100%" height="100%" fill="#fff"/><path d="M24.97 20.14L24.97 20.14Q25.49 20.14 25.88 19.99Q26.27 19.84 26.54 19.58Q26.81 19.32 26.94 18.95Q27.08 18.59 27.08 18.16L27.08 18.16Q27.08 17.15 26.52 16.63Q25.96 16.11 24.97 16.11L24.97 16.11Q23.99 16.11 23.43 16.63Q22.86 17.15 22.86 18.16L22.86 18.16Q22.86 18.59 23.00 18.95Q23.14 19.32 23.40 19.58Q23.67 19.84 24.06 19.99Q24.45 20.14 24.97 20.14ZM24.97 10.80L24.97 10.80Q24.51 10.80 24.17 10.94Q23.83 11.09 23.60 11.33Q23.37 11.57 23.27 11.89Q23.16 12.20 23.16 12.55L23.16 12.55Q23.16 12.92 23.25 13.26Q23.34 13.60 23.55 13.87Q23.77 14.14 24.11 14.30Q24.46 14.46 24.97 14.46L24.97 14.46Q25.48 14.46 25.83 14.30Q26.18 14.14 26.39 13.87Q26.60 13.60 26.69 13.26Q26.78 12.92 26.78 12.55L26.78 12.55Q26.78 12.20 26.67 11.89Q26.56 11.57 26.34 11.33Q26.12 11.09 25.78 10.94Q25.44 10.80 24.97 10.80ZM27.05 15.24L27.05 15.24Q28.17 15.60 28.70 16.35Q29.24 17.11 29.24 18.19L29.24 18.19Q29.24 19.01 28.93 19.67Q28.62 20.34 28.06 20.80Q27.50 21.27 26.71 21.53Q25.92 21.78 24.97 21.78L24.97 21.78Q24.02 21.78 23.23 21.53Q22.45 21.27 21.89 20.80Q21.33 20.34 21.02 19.67Q20.71 19.01 20.71 18.19L20.71 18.19Q20.71 17.11 21.24 16.35Q21.78 15.60 22.90 15.24L22.90 15.24Q22.01 14.86 21.56 14.17Q21.11 13.49 21.11 12.52L21.11 12.52Q21.11 11.82 21.40 11.22Q21.68 10.61 22.19 10.17Q22.70 9.72 23.41 9.47Q24.12 9.22 24.97 9.22L24.97 9.22Q25.82 9.22 26.53 9.47Q27.24 9.72 27.75 10.17Q28.26 10.61 28.55 11.22Q28.83 11.82 28.83 12.52L28.83 12.52Q28.83 13.49 28.39 14.17Q27.94 14.86 27.05 15.24ZM34.83 20.14L34.83 20.14Q35.35 20.14 35.74 19.99Q36.13 19.84 36.40 19.58Q36.67 19.32 36.80 18.95Q36.94 18.59 36.94 18.16L36.94 18.16Q36.94 17.15 36.38 16.63Q35.82 16.11 34.83 16.11L34.83 16.11Q33.85 16.11 33.29 16.63Q32.72 17.15 32.72 18.16L32.72 18.16Q32.72 18.59 32.86 18.95Q33.00 19.32 33.26 19.58Q33.53 19.84 33.92 19.99Q34.31 20.14 34.83 20.14ZM34.83 10.80L34.83 10.80Q34.37 10.80 34.03 10.94Q33.69 11.09 33.46 11.33Q33.23 11.57 33.13 11.89Q33.02 12.20 33.02 12.55L33.02 12.55Q33.02 12.92 33.11 13.26Q33.20 13.60 33.41 13.87Q33.63 14.14 33.97 14.30Q34.32 14.46 34.83 14.46L34.83 14.46Q35.34 14.46 35.69 14.30Q36.04 14.14 36.25 13.87Q36.46 13.60 36.55 13.26Q36.64 12.92 36.64 12.55L36.64 12.55Q36.64 12.20 36.53 11.89Q36.42 11.57 36.20 11.33Q35.98 11.09 35.64 10.94Q35.30 10.80 34.83 10.80ZM36.91 15.24L36.91 15.24Q38.03 15.60 38.56 16.35Q39.10 17.11 39.10 18.19L39.10 18.19Q39.10 19.01 38.79 19.67Q38.48 20.34 37.92 20.80Q37.36 21.27 36.57 21.53Q35.78 21.78 34.83 21.78L34.83 21.78Q33.88 21.78 33.09 21.53Q32.31 21.27 31.75 20.80Q31.19 20.34 30.88 19.67Q30.57 19.01 30.57 18.19L30.57 18.19Q30.57 17.11 31.10 16.35Q31.64 15.60 32.76 15.24L32.76 15.24Q31.87 14.86 31.42 14.17Q30.97 13.49 30.97 12.52L30.97 12.52Q30.97 11.82 31.26 11.22Q31.54 10.61 32.05 10.17Q32.56 9.72 33.27 9.47Q33.98 9.22 34.83 9.22L34.83 9.22Q35.68 9.22 36.39 9.47Q37.10 9.72 37.61 10.17Q38.12 10.61 38.41 11.22Q38.69 11.82 38.69 12.52L38.69 12.52Q38.69 13.49 38.25 14.17Q37.80 14.86 36.91 15.24ZM45.60 17.06L48.59 21.65L46.56 21.65Q46.33 21.65 46.19 21.53Q46.05 21.41 45.96 21.25L45.96 21.25L44.11 18.22Q44.07 18.36 44.02 18.49Q43.96 18.62 43.89 18.73L43.89 18.73L42.26 21.25Q42.17 21.40 42.03 21.52Q41.90 21.65 41.69 21.65L41.69 21.65L39.81 21.65L42.81 17.15L39.93 12.92L41.96 12.92Q42.19 12.92 42.30 12.99Q42.41 13.05 42.49 13.20L42.49 13.20L44.32 16.10Q44.41 15.81 44.58 15.53L44.58 15.53L46.05 13.24Q46.24 12.92 46.54 12.92L46.54 12.92L48.47 12.92L45.60 17.06ZM50.66 12.98L49.55 12.78Q49.68 11.90 50.05 11.23Q50.41 10.56 50.96 10.12Q51.51 9.67 52.22 9.44Q52.93 9.22 53.75 9.22L53.75 9.22Q54.60 9.22 55.28 9.46Q55.96 9.70 56.45 10.13Q56.93 10.56 57.19 11.14Q57.45 11.72 57.45 12.39L57.45 12.39Q57.45 12.98 57.32 13.42Q57.19 13.87 56.94 14.20Q56.69 14.53 56.33 14.76Q55.96 14.99 55.50 15.14L55.50 15.14Q56.61 15.49 57.15 16.21Q57.70 16.92 57.70 18.00L57.70 18.00Q57.70 18.92 57.36 19.62Q57.02 20.33 56.44 20.81Q55.86 21.29 55.10 21.54Q54.34 21.78 53.49 21.78L53.49 21.78Q52.56 21.78 51.88 21.57Q51.19 21.36 50.68 20.94Q50.17 20.52 49.81 19.92Q49.45 19.32 49.20 18.53L49.20 18.53L50.12 18.14Q50.49 17.99 50.81 18.06Q51.13 18.13 51.27 18.41L51.27 18.41Q51.42 18.70 51.61 18.99Q51.79 19.28 52.05 19.51Q52.30 19.73 52.64 19.87Q52.99 20.01 53.46 20.01L53.46 20.01Q54.00 20.01 54.40 19.84Q54.80 19.66 55.07 19.38Q55.33 19.10 55.47 18.76Q55.60 18.42 55.60 18.07L55.60 18.07Q55.60 17.63 55.50 17.26Q55.41 16.90 55.11 16.65Q54.82 16.39 54.26 16.25Q53.70 16.10 52.77 16.10L52.77 16.10L52.77 14.61Q53.54 14.60 54.05 14.46Q54.56 14.33 54.86 14.08Q55.16 13.84 55.28 13.50Q55.40 13.16 55.40 12.75L55.40 12.75Q55.40 11.89 54.92 11.44Q54.43 10.99 53.63 10.99L53.63 10.99Q53.25 10.99 52.94 11.09Q52.62 11.20 52.37 11.39Q52.12 11.58 51.95 11.84Q51.78 12.09 51.70 12.40L51.70 12.40Q51.55 12.79 51.32 12.92Q51.08 13.04 50.66 12.98L50.66 12.98ZM65.08 20.07L67.29 20.07L67.29 21.65L60.49 21.65L60.49 20.07L62.98 20.07L62.98 12.91Q62.98 12.48 63.01 12.03L63.01 12.03L61.24 13.51Q61.09 13.63 60.94 13.66Q60.79 13.69 60.66 13.66Q60.53 13.64 60.43 13.57Q60.32 13.51 60.27 13.43L60.27 13.43L59.61 12.52L63.36 9.34L65.08 9.34L65.08 20.07Z" fill="#222"/></svg>