<svg xmlns="http://www.w3.org/2000/svg" xmlns:xlink="http://www.w3.org/1999/xlink" x="0px" y="0px" viewBox="0 0 682.8 159.9">
<style type="text/css">
	.st0{fill-rule:evenodd;clip-rule:evenodd;fill:#4C85D3;}
	.st1{fill:#E6B600;}
	.st2{fill:#4C85D3;}
</style>
<g id="icon-svg">
	<path class="st0" d="M45.2,2.6c0,2.3-0.3,2.6-2.6,2.6S40,5.4,40,8.2s0.2,3,2.6,3c2.3,0,2.6,0.3,2.6,2.6s0.2,2.6,3,2.6c2.7,0,3-0.2,3-2.6c0-2.3,0.3-2.6,2.6-2.6s2.6-0.2,2.6-3s-0.2-3-2.6-3c-2.3,0-2.6-0.3-2.6-2.6C51.1,0.2,50.9,0,48.1,0C45.4,0,45.2,0.2,45.2,2.6 M80.9,0.8c-1,0.7-0.8,3.5,1.5,19.8c1.5,10.4,2.7,22.2,2.7,26.2c0,4.5,0.4,7.7,1,8.3c0.7,0.7,4.9,1,13.2,1h12.2v20v20h-2.6c-3.5,0-7.6,4-7.6,7.5s3.6,7.6,7.3,8.3c2.5,0.5,2.9,0.9,2.9,3v2.5h-8.9c-8.7,0-8.9-0.1-8.9-1.9c0-3.5,1.8-30,2.2-32.7c0.3-2.2,0.9-2.8,2.7-3c2.3-0.3,2.3-0.3,2.6-7.4c0.2-5.2-0.1-7.4-0.9-7.9c-0.6-0.4-5.4-0.7-10.6-0.7h-9.5l-1-3.1c-0.6-1.7-2.7-4.8-4.7-6.9c-3.6-3.8-3.7-4-2.8-7.2c1.5-5.5-0.9-13.4-5.3-17.4c-4.7-4.3-11.9-6.1-17.7-4.6c-4.7,1.3-10.6,6.8-12.4,11.6C35,39.7,34.7,40,31.7,40c-9.3,0-18.6,5.9-22.9,14.5c-1.6,2.9-2.7,6.2-2.7,7.3c0,1.5-0.5,2-2,2c-3.2,0-4,1.6-4,7.8c0,7.2,0.5,8.4,3.3,8.4h2.3l2.4,38c1.3,20.9,2.8,38.9,3.1,40l0.7,1.9h73c55.6,0,73.2-0.2,74-1s1-8.3,1-28.7c0-26-0.1-27.8-1.7-30.4c-0.9-1.5-2.5-2.9-3.6-3.2c-1.1-0.3-7.5-0.5-14.3-0.7l-12.2-0.2l-0.2-19.8l-0.2-19.8h12.6c8.7,0,12.9-0.3,13.6-1c0.7-0.7,1-4,1-9.3c0-4.7,1.1-15.9,2.6-25.9c1.9-13.3,2.3-17.9,1.6-18.8c-0.8-0.9-8-1.2-38.9-1.1C98.9,0,81.6,0.4,80.9,0.8 M86,6.3c0,0.2,1,6.9,2.1,15s2.1,15,2.1,15.4c0,0.4,12.4,0.8,29.6,0.8h29.6l1.9-14.2c1.1-7.8,2.1-14.9,2.4-15.7c0.4-1.3-0.2-1.5-4.7-1.5h-5.2v7.7v7.7h-2.6h-2.6v-7.7V6H136c-2.5,0-2.6,0.1-2.6,3.8c0,3.8,0,3.8-3,3.8c-3,0-3,0-3-3.8V6h-7.7H112v2.6c0,2.3-0.2,2.6-3,2.6s-3-0.2-3-2.6c0-2.3-0.3-2.6-2.6-2.6h-2.6v7.7v7.7h-2.6h-2.6v-7.7V6h-4.5C88.3,6,86,6.1,86,6.3 M5.2,23.8c0,2.3-0.3,2.6-2.6,2.6S0,26.6,0,29.4s0.2,3,2.6,3c2.3,0,2.6,0.3,2.6,2.6s0.2,2.6,3,2.6s3-0.2,3-2.6c0-2.3,0.3-2.6,2.6-2.6s2.6-0.2,2.6-3s-0.2-3-2.6-3c-2.3,0-2.6-0.3-2.6-2.6s-0.2-2.6-3-2.6S5.2,21.5,5.2,23.8 M96.2,29.3c0,2.7,0.2,3,2.6,3s2.6-0.2,2.6-3s-0.2-3-2.6-3S96.2,26.6,96.2,29.3 M47.1,31.3c-3,1.6-4.8,3.8-6.1,7.3c-0.8,2.1-0.6,2.3,3.4,4.4c2.3,1.2,4.2,2.4,4.2,2.8c0,0.4-0.6,1.5-1.3,2.5L46,50.1L41.8,48c-5.2-2.6-13.2-2.8-18.4-0.5c-5.7,2.6-10.4,8.1-11.8,13.9l-0.5,2.4h6c5,0,6.1,0.3,6.8,1.6c0.5,1,0.9,9.4,0.9,21.3v19.6h2.1H29l0.3-12l0.3-12l2.8-2.5c3.6-3.2,7-3.2,10.5-0.1c2.3,2,2.7,3.1,3.1,7.7c0.4,4.9,0.6,5.3,2.5,5.3h2V79.9c0-7.2,0.4-13.5,0.9-14.5c0.8-1.5,1.9-1.6,11.9-1.6c9.6,0,11-0.2,11-1.4c0-1.4-4.8-6.3-8.6-8.9c-2-1.4-2-1.4-0.6-4.5c4.4-9.2-1.5-19.3-11.3-19.2C51.6,29.8,48.6,30.5,47.1,31.3 M91.1,46.8v3.4H120h28.9v-3.4v-3.4H120H91.1V46.8 M117.5,76.1v20h2.6h2.6v-20v-20h-2.6h-2.6V76.1 M146.4,71.8c0,2.8-0.2,3-2.6,3c-2.3,0-2.6,0.3-2.6,2.6s0.3,2.6,2.6,2.6s2.6,0.3,2.6,2.6c0,2.3,0.2,2.6,3,2.6c2.7,0,3-0.2,3-2.6c0-2.3,0.3-2.6,2.6-2.6s2.6-0.3,2.6-2.6c0-2.3-0.3-2.6-2.5-2.6s-2.5-0.3-2.8-2.8c-0.2-2.4-0.6-2.8-3-3C146.5,68.8,146.4,68.9,146.4,71.8 M6.1,72.3v2.6h6.4h6.4v-2.6v-2.6h-6.4H6.1V72.3 M56.2,72.3v2.6L76,74.7l19.8-0.2l0.3-2.3l0.3-2.3h-20h-20v2.4 M11.5,85.3c0.3,2.9,1.3,17.2,2.2,31.7s1.9,28.8,2.2,31.7l0.5,5.3h29.3H75l-0.1-15.8l-0.1-15.8l2.3-2.4c1.9-2,3-2.4,6.4-2.4h4l0.5-4.5c0.5-4.5,2.2-29.3,2.2-31.7c0-1.1-2.6-1.3-17-1.3h-17V86c0,6.9-1.1,9.9-4.4,11.6c-2.9,1.5-4.2,1.5-7.1,0.2c-3-1.4-4.7-4.9-4.7-9.9c0-4.3-1.1-5.7-3.8-4.7c-1,0.4-1.3,2.5-1.3,11.9c0,11.3,0,11.4-2.4,14.1c-3.4,3.8-7.8,3.8-11.3,0l-2.4-2.7V93.1V79.9h-3.9H11L11.5,85.3 M107.4,102.4c-0.5,0.6-0.7,1.8-0.4,2.6c0.5,1.2,2.6,1.4,17.9,1.4c18.4,0,21.3,0.5,23.2,4.2c1.5,2.8,1,6.6-1.2,9.1l-2.1,2.4l-32.2,0.4l-32.2,0.4l-0.3,2.3l-0.3,2.3h37.1h37.2l-0.2-13l-0.2-13l-22.6-0.2C112.5,101.2,108.2,101.4,107.4,102.4 M117.5,114.8c0,2.3,0.3,2.6,2.6,2.6s2.6-0.3,2.6-2.6s-0.3-2.6-2.6-2.6S117.5,112.5,117.5,114.8 M127.8,114.6c0.3,2.3,0.3,2.3,7.2,2.6c7.2,0.3,9.6-0.8,8.5-3.6c-0.4-1-2.1-1.3-8.2-1.3h-7.7L127.8,114.6 M80,143.7v10.2h3.8h3.8v-6.4v-6.4h3h3v6.4v6.4h3.8h3.8v-6.4v-6.4h2.6h2.6v6.4v6.4h3.8h3.8v-6.4v-6.4h3h3v6.4v6.4h3.8h3.8v-6.4v-6.4h3h3v6.4v6.4h3.8h3.8v-6.4v-6.4h2.6h2.6v6.4v6.4h3.8h3.8v-10.2v-10.2h-37H80L80,143.7"/>
</g>
<path id="SvgjsPath35671087" class="st1" d="M225.8,111.5c1.5,0,3,0.2,4.7,0.5c1.6,0.4,3,0.8,4.2,1.4l0,0l-1,5l-0.7,0.2
	c-2.5-1.6-5-2.4-7.4-2.4l0,0c-2.8,0-5.1,1.1-6.7,3.3s-2.4,5.2-2.4,9.1l0,0c0,3.9,0.8,7,2.5,9.2c1.7,2.3,4,3.4,6.9,3.4l0,0
	c1.3,0,2.7-0.2,4.1-0.7c1.4-0.4,2.8-1,4-1.8l0,0l0.6,0.4l-0.6,4.8c-2.9,1.2-5.9,1.9-8.8,1.9l0,0c-4.4,0-7.8-1.5-10.3-4.5
	s-3.8-7.2-3.8-12.4l0,0c0-5.4,1.3-9.6,3.9-12.7C217.7,113,221.2,111.5,225.8,111.5L225.8,111.5z M247.8,94.4l-0.4,36.2l0.4,14.5
	h-5.7l0.4-14.1l-0.4-36.1L247.8,94.4z M282.9,128.3l-20.7,0.1v0.1c0,4.1,0.9,7.2,2.7,9.3c1.8,2.2,4.5,3.3,7.8,3.3l0,0
	c1.7,0,3.4-0.3,5.1-0.9c1.7-0.6,3.2-1.3,4.6-2.3l0,0l0.6,0.4l-0.9,4.9c-3.4,1.6-6.7,2.4-10.1,2.4l0,0c-4.7,0-8.4-1.5-11.1-4.5
	s-4-7.2-4-12.4l0,0c0-5.3,1.3-9.5,4-12.6s6.3-4.7,10.9-4.7l0,0c3.9,0,6.8,1.1,9,3.3c2.1,2.2,3.2,5.2,3.2,9.1l0,0
	c0,1.3-0.1,2.5-0.3,3.7l0,0L282.9,128.3z M271.7,115.5c-2.4,0-4.4,0.8-6,2.3c-1.6,1.6-2.7,3.8-3.2,6.6l0,0l16-0.3l0.1-1
	c0-2.5-0.6-4.3-1.8-5.7C275.7,116.2,274,115.5,271.7,115.5L271.7,115.5z M303.8,111.5c3.1,0,5.6,0.8,7.4,2.3s2.7,3.7,2.7,6.4l0,0
	c0,0.8-0.1,3.8-0.4,8.9l0,0c-0.3,5.1-0.4,8.1-0.4,9l0,0c0,1.1,0.2,1.8,0.5,2.2s0.9,0.6,1.7,0.6l0,0c0.7,0,1.5-0.1,2.5-0.4l0,0
	l0.6,0.5l-0.6,3.3c-1.4,0.8-2.8,1.3-4.1,1.4l0,0c-1.5-0.1-2.7-0.7-3.6-1.6c-0.9-0.9-1.4-2.2-1.4-3.8l0,0h-0.5
	c-2.6,2.7-5.2,4.5-7.7,5.4l0,0c-3.2,0-5.7-0.8-7.5-2.4c-1.8-1.6-2.7-3.8-2.7-6.6l0,0c0-2.1,0.6-3.8,1.7-5.1s2.8-2.2,5-2.7l0,0
	l11.7-2.7l0.1-4.7c0-1.9-0.5-3.3-1.5-4.3s-2.4-1.5-4.2-1.5l0,0c-1.6,0-3.3,0.4-4.9,1.2c-1.6,0.8-3.4,2-5.3,3.6l0,0l-0.6-0.3
	l-0.7-4.1C295.4,113,299.5,111.5,303.8,111.5L303.8,111.5z M308.5,129.8l-10.5,2.5c-1,0.3-1.7,0.7-2.1,1.2s-0.7,1.3-0.7,2.3l0,0
	c0,1.6,0.4,2.8,1.3,3.7s2.1,1.3,3.6,1.3l0,0c2.7,0,5.3-1.7,8.1-5.1l0,0L308.5,129.8z M346.1,145.2l0.4-22.5c0-2-0.4-3.5-1.4-4.6
	s-2.4-1.7-4.3-1.7l0,0c-3,0-6.3,1.7-9.8,5.1l0,0v9.1l0.3,14.5h-5.7l0.4-14l-0.3-18.7l5.4-0.5v4.8h0.4c3-2.7,6.1-4.4,9.2-5.1l0,0
	c3.6,0,6.4,0.8,8.3,2.5s2.8,4.1,2.8,7.2l0,0l-0.1,9.4l0.3,14.4L346.1,145.2L346.1,145.2z M362.9,145.2l0.3-14l-0.2-18.7l5.6-0.5
	l-0.1,18.7l0.1,14.5H362.9z M365.9,97.2c1,0,1.7,0.3,2.3,0.9c0.6,0.6,0.9,1.4,0.9,2.4l0,0c0,1.1-0.3,1.9-0.9,2.5s-1.4,0.9-2.5,0.9
	l0,0c-1,0-1.8-0.3-2.3-0.9c-0.6-0.6-0.9-1.4-0.9-2.4l0,0c0-1,0.3-1.8,0.9-2.5C364,97.6,364.8,97.2,365.9,97.2L365.9,97.2z
	 M400.9,145.2l0.4-22.5c0-2-0.4-3.5-1.4-4.6s-2.4-1.7-4.3-1.7l0,0c-3,0-6.3,1.7-9.8,5.1l0,0v9.1l0.3,14.5h-5.7l0.4-14l-0.3-18.7
	l5.4-0.5v4.8h0.4c3-2.7,6.1-4.4,9.2-5.1l0,0c3.6,0,6.4,0.8,8.3,2.5s2.8,4.1,2.8,7.2l0,0l-0.1,9.4l0.3,14.4L400.9,145.2L400.9,145.2z
	 M446.9,114.9c-1.5,0.4-3.7,0.9-6.7,1.5l0,0l-0.1,0.3c1.1,1.7,1.6,3.7,1.6,6.1l0,0c0,3.5-1.2,6.3-3.5,8.4c-2.3,2.1-5.5,3.1-9.5,3.1
	l0,0c-1.6,0-3.1-0.2-4.5-0.6l0,0c-0.8,0.6-1.4,1.1-1.7,1.5c-0.3,0.4-0.4,0.8-0.4,1.3l0,0c0,1,0.6,1.7,1.9,2.1
	c1.2,0.4,3.3,0.8,6.1,1.3l0,0c2.8,0.4,5.1,0.8,6.9,1.3s3.3,1.3,4.6,2.4c1.3,1.1,2,2.6,2,4.5l0,0c0,2-0.7,3.9-2.1,5.6s-3.3,3-5.6,4
	s-5,1.4-7.8,1.4l0,0c-3.9,0-6.9-0.9-9-2.6c-2.1-1.8-3.2-4-3.2-6.8l0,0c1.1-2.3,3.3-4.4,6.4-6.3l0,0V143c-1.7-0.5-3.1-1.2-4-2.1
	s-1.4-2.1-1.4-3.7l0,0c1-1.7,2.5-3.2,4.4-4.4l0,0v-0.3c-1.5-1-2.7-2.2-3.5-3.8c-0.8-1.6-1.2-3.4-1.2-5.4l0,0c0-3.6,1.2-6.4,3.5-8.5
	c2.3-2,5.5-3.1,9.4-3.1l0,0c2.6,0,4.7,0.4,6.5,1.3l0,0c3.3-0.6,6.8-1.4,10.5-2.5l0,0l0.6,0.4v4H446.9z M429,130.4
	c2.4,0,4.3-0.7,5.6-2c1.3-1.3,2-3.2,2-5.6l0,0c0-2.3-0.6-4.1-1.9-5.4c-1.2-1.2-3.1-1.9-5.4-1.9l0,0c-2.4,0-4.3,0.7-5.6,2
	c-1.3,1.3-2,3.2-2,5.6l0,0c0,2.3,0.6,4.1,1.9,5.4C424.8,129.8,426.6,130.4,429,130.4L429,130.4z M438.5,149.2c0-1.6-0.8-2.7-2.4-3.3
	s-4.1-1.2-7.3-1.7l0,0l-2.3-0.4c-1.8,1.1-3.2,2.2-4.1,3.2s-1.4,2.1-1.4,3.2l0,0c0,1.4,0.7,2.6,2,3.5c1.4,0.9,3.3,1.4,5.8,1.4l0,0
	c2.8,0,5.1-0.6,7-1.7C437.6,152.2,438.5,150.8,438.5,149.2L438.5,149.2z"/>
<path id="SvgjsPath35671073" class="st2" d="M223.8,66.3c-2.4,0-5.2,0.2-8.4,0.5s-5.3,0.5-6.3,0.6l0,0l0.7-6.3
	c3.3-0.6,5.4-1.5,6.5-2.6c1-1.1,1.6-3,1.6-5.9l0,0l0.1-40.7c0-2-0.2-3.4-0.7-4.1c-0.5-0.8-1.4-1.1-2.8-1.1l0,0l-3.7,0.1L210.1,6
	l0.9-5.8c1.1,0,3.1,0,6,0.1s5.6,0.1,8.1,0.1l0,0c2.7,0,5.7-0.1,8.8-0.3c3.2-0.2,5.4-0.3,6.6-0.4l0,0c7.3,0,12.9,1.4,16.7,4.1
	c3.9,2.7,5.8,6.7,5.8,11.9l0,0c0,3.8-1.2,7.1-3.6,9.8c-2.4,2.8-5.2,4.8-8.3,6l0,0c4.1,0.8,7.8,2.5,10.9,5.1c3.2,2.6,4.7,6,4.7,10.2
	l0,0c0,4-1.2,7.5-3.5,10.5c-2.3,3.1-5.6,5.5-9.7,7.2c-4.2,1.8-8.9,2.6-14.1,2.6l0,0c-1.1,0-3.4-0.2-6.7-0.5l0,0
	C228.7,66.4,225.7,66.3,223.8,66.3L223.8,66.3z M230.8,28.8c1,0.1,2.6,0.2,4.8,0.4c2.2,0.2,4.2,0.3,5.9,0.4l0,0c0,0.2,0.8-0.1,2.3-1
	c1.5-0.8,2.9-2.1,4.1-3.8s1.8-3.9,1.8-6.7l0,0c0-3.6-1.3-6.3-4-8c-2.6-1.8-6.7-2.6-12.3-2.6l0,0c-0.7,0-1.2,0.1-1.4,0.4
	s-0.4,0.8-0.5,1.6l0,0C231.3,14.3,231,20.8,230.8,28.8L230.8,28.8z M230.5,37l-0.4,16.1c0,2.3,0.8,3.9,2.4,4.8
	c1.6,0.9,4.4,1.4,8.4,1.4l0,0c3.8,0,6.7-0.9,8.8-2.8s3.2-4.5,3.2-8l0,0c0-3-1-5.5-3-7.4c-2-2-5-3.3-9-4l0,0L230.5,37L230.5,37z
	 M310.4,67.1l-0.4-0.7l0.4-5.7c3.7-0.4,6.1-0.8,7.2-1.2s1.6-1.3,1.6-2.6l0,0c0-1.1-0.3-2.4-0.8-3.8l0,0l-2.5-8.6
	c-1.8-0.1-5.3-0.1-10.4-0.1l0,0c-2.7,0-6.3,0.2-10.7,0.7l0,0l-3.2,8.4c-0.4,1.8-0.7,2.9-0.7,3.3l0,0c0,1.3,0.4,2.2,1.3,2.8
	s2.3,0.8,4.3,0.8l0,0h4.9l0.5,0.7l-0.8,5.9c-1-0.1-3.1-0.2-6.3-0.4c-3.2-0.2-6.3-0.3-9.2-0.3l0,0c-2.9,0-5.5,0-7.9,0.1
	s-3.9,0.1-4.7,0.1l0,0l0.8-6.3c1.8-0.3,3.2-0.9,4.3-1.9c1.1-1,2.1-2.7,3.1-5.2l0,0L301.1,1l14-1.7l1.2,0.4c1,3.9,3.3,11.8,6.7,23.8
	c3.4,12,6.5,21.9,9.2,29.6l0,0c0.8,2.6,1.8,4.3,3.1,5.3c1.3,1,3.3,1.6,6,1.9l0,0l0.4,0.7l-0.8,5.5c-0.9,0-2.6,0-5.1-0.1
	s-5.1-0.1-7.7-0.1l0,0c-3.7,0-7.3,0.1-10.9,0.3C313.6,66.8,311.4,67,310.4,67.1L310.4,67.1z M297.2,37.1h8.2c3.4,0,6.3-0.1,8.7-0.4
	l0,0l-7-23.7h-1.3L297.2,37.1z M357.1,12.1c0-2.2-0.3-3.7-0.8-4.4c-0.5-0.8-1.6-1.1-3.1-1.1l0,0l-3.4,0.1l-0.5-0.8l0.9-5.7l13.7,0.3
	c1.9,0,4.5-0.1,7.7-0.3s5.3-0.4,6.3-0.5l0,0L377.2,6c-2.7,0.4-4.5,1.1-5.5,1.9c-0.9,0.8-1.4,2.2-1.5,4l0,0L369.1,53
	c-0.1,2.8,0.2,4.7,0.8,5.7c0.6,1,1.8,1.4,3.6,1.4l0,0c1,0,2,0,2.8-0.1s1.3-0.2,1.6-0.3l0,0l0.4,0.7l-0.9,6.1c-1.1,0-3.2,0-6.1-0.1
	s-5.9-0.1-8.8-0.1l0,0c-3.1,0-6,0-8.7,0.1s-4.6,0.1-5.5,0.1l0,0l1.1-6.2c3.2-0.4,5.2-1.1,6.2-2.1s1.4-2.9,1.4-5.9l0,0L357.1,12.1z
	 M371.8,31.7l17-17.1c2-1.9,3-3.5,3-5l0,0c0-1-0.5-1.7-1.4-2.2s-2.5-0.8-4.6-1l0,0l-0.4-0.7l0.9-5.9c1,0.1,2.9,0.2,5.9,0.4
	c2.9,0.2,5.3,0.3,7.2,0.3l0,0c2.4,0,4.7,0,7-0.1s3.9-0.2,4.8-0.3l0,0l0.7,0.9L411,6.5c-2.1,0.7-4.1,1.8-6,3.4
	c-1.9,1.5-4.4,4.1-7.6,7.6l0,0l-13.2,13.3l15.5,21c2.3,3.2,4.4,5.4,6.3,6.8s4.1,2.1,6.5,2.2l0,0l0.7,0.9l-0.8,4.9
	c-1.1,0.1-2.8,0.3-5.4,0.6c-2.5,0.3-4.6,0.5-6.3,0.6l0,0c-4.2,0-8.2-2.9-12-8.6l0,0l-17.1-25.3L371.8,31.7z M451.1,67.1l-0.4-0.7
	l0.4-5.7c3.7-0.4,6.1-0.8,7.2-1.2s1.7-1.3,1.7-2.6l0,0c0-1.1-0.3-2.4-0.8-3.8l0,0l-2.5-8.6c-1.9-0.1-5.3-0.1-10.4-0.1l0,0
	c-2.7,0-6.3,0.2-10.7,0.7l0,0l-3.2,8.4c-0.4,1.8-0.7,2.9-0.7,3.3l0,0c0,1.3,0.4,2.2,1.3,2.8c0.8,0.5,2.3,0.8,4.3,0.8l0,0h4.9
	l0.5,0.7l-0.8,5.9c-1-0.1-3.1-0.2-6.3-0.4c-3.3-0.2-6.3-0.3-9.2-0.3l0,0c-2.9,0-5.5,0-7.9,0.1s-4,0.1-4.8,0.1l0,0l0.8-6.3
	c1.8-0.3,3.2-0.9,4.3-1.9c1.1-1,2.1-2.7,3.1-5.2l0,0L441.7,1l14-1.7l1.2,0.4c1,3.9,3.3,11.8,6.7,23.8c3.4,12,6.5,21.9,9.2,29.6l0,0
	c0.8,2.6,1.8,4.3,3.1,5.3c1.3,1,3.3,1.6,6,1.9l0,0l0.4,0.7l-0.8,5.5c-0.9,0-2.6,0-5.1-0.1s-5.1-0.1-7.7-0.1l0,0
	c-3.7,0-7.3,0.1-10.9,0.3C454.3,66.8,452,67,451.1,67.1L451.1,67.1z M437.9,37.1h8.2c3.4,0,6.3-0.1,8.7-0.4l0,0l-7-23.7h-1.3
	L437.9,37.1z M489.6,67.3l0.8-6.5c2.7-0.4,4.6-1.2,5.7-2.4c1.1-1.3,1.6-3.4,1.6-6.4l0,0l0.1-39.9c0-2.2-0.3-3.7-0.8-4.4
	c-0.5-0.8-1.6-1.1-3.2-1.1l0,0l-3.4,0.1l-0.5-0.8l0.8-5.7c1.6,0,3,0,4.4,0.1l0,0l9.6,0.1c1.9,0,4.7-0.1,8.2-0.3
	c3.5-0.2,5.8-0.4,7-0.5l0,0l-1,6.7c-2.4,0.3-4.1,0.7-5.1,1.2s-1.7,1.2-2,2.2c-0.3,0.9-0.5,2.4-0.7,4.5l0,0
	c-0.9,11.1-1.3,23.8-1.3,38.2l0,0c0,2.8,0.5,4.6,1.4,5.4c0.9,0.8,3,1.2,6.1,1.2l0,0c3.8,0,6.6-0.4,8.4-1.1c1.8-0.7,3.2-2.2,4.1-4.3
	c0.9-2.1,1.7-5.4,2.4-10l0,0l7.8-0.8l0.5,0.9c-0.2,1.2-0.6,4.1-1.2,8.5c-0.6,4.4-1.2,9.1-1.7,13.9l0,0l-0.9,1
	c-2-0.1-6.3-0.3-12.8-0.5c-6.5-0.3-12.3-0.4-17.3-0.4l0,0c-3.8,0-7.4,0.2-10.8,0.5C492.7,67,490.5,67.2,489.6,67.3L489.6,67.3z
	 M577.7,67.5c-6.2,0-11.7-1.3-16.3-4c-4.7-2.6-8.2-6.4-10.8-11.2c-2.5-4.8-3.7-10.5-3.7-17l0,0c0-7,1.5-13.3,4.5-18.7
	c3-5.5,7.2-9.7,12.6-12.7c5.4-3,11.5-4.5,18.5-4.5l0,0c9.6,0,17.2,2.9,22.8,8.6s8.4,13.5,8.4,23.3l0,0c0,7-1.5,13.3-4.6,18.8
	s-7.3,9.8-12.8,12.9C590.9,65.9,584.7,67.5,577.7,67.5L577.7,67.5z M580.6,59.6c5.6,0,10.1-2.1,13.4-6.2c3.3-4.1,5-9.8,5-17l0,0
	c0-8.9-1.8-15.8-5.3-20.7s-8.3-7.4-14.5-7.4l0,0c-5.5,0-9.9,2-13.1,6.1c-3.2,4.1-4.8,9.7-4.8,16.9l0,0c0,8.9,1.7,15.8,5.1,20.7
	C569.9,57.1,574.7,59.6,580.6,59.6L580.6,59.6z M640.7,67.8c-1-3.8-3.4-11.7-6.9-23.8c-3.6-12.1-6.8-22.5-9.8-31.3l0,0
	c-0.7-2-1.7-3.5-3-4.5s-3.2-1.6-5.5-1.7l0,0L615,6l0.8-5.8c1,0,2.8,0,5.4,0.1s5.3,0.1,7.9,0.1l0,0c3,0,6.4-0.1,10.2-0.4
	s6.3-0.4,7.4-0.5l0,0l0.5,0.8L646.9,6c-2.6,0.3-4.5,0.5-5.7,0.7s-2,0.6-2.4,1c-0.4,0.5-0.7,1.2-0.7,2.2l0,0c0,1.5,1.6,8.1,4.7,19.8
	c3.1,11.7,5.3,19.6,6.4,23.9l0,0h1.4c2.1-5,5.1-13.2,9.1-24.5s5.9-17.8,5.9-19.3l0,0c0-1.2-0.5-2.1-1.4-2.6s-2.5-0.8-4.8-0.8l0,0
	h-4.6l-0.4-0.7l0.7-5.9c1,0.1,3.1,0.2,6.5,0.4c3.3,0.2,6.4,0.3,9.4,0.3l0,0c2.9,0,5.5,0,7.8-0.1s3.9-0.1,4.7-0.1l0,0l-0.9,6.3
	c-1.8,0.2-3.2,0.6-4,1.3s-1.6,2-2.4,4l0,0l-20.8,53.9L640.7,67.8z"/>
</svg>
