<svg width="138" height="44" xmlns="http://www.w3.org/2000/svg" viewBox="0 0 328.08 93.22"><defs><style>.cls-1{fill:#5984d6;}</style></defs><path id="SvgjsPath3874541" class="cls-1" d="M14.22,32.19h3.09C21.24,27,26,21.24,31.12,17.11a29.81,29.81,0,0,1,8.47-1.23c8.86,0,14.84,6.8,14.84,16.31v3.7L53.81,38,31.34,40.63C12,42.9,0,53.43,0,66.61,0,83.93,12.56,93.22,29.68,93.22a44.57,44.57,0,0,0,9.5-1,55.31,55.31,0,0,0,18.35-13.6h2.06V92.8h4.34l24.53-4.53.62-7.42-12-8.06-1.23-2.06V33c0-20.82-11.34-33-34.64-33A63.17,63.17,0,0,0,.62,14ZM53.81,61.67c-3.3,9.27-10.5,14-19.37,14-7.63,0-12-3.7-12-10.72a13.27,13.27,0,0,1,3.08-8.87,27.89,27.89,0,0,1,10.32-2.89l17.94-1.44ZM104.13,47v2l10.52,8.48V79.39L113,80.81,99.39,85.88V91h51.77l.61-6.13-13-2-2.06-1.54V53.91l1-14.38-3.91-.59Zm5.69-36.59,8.39,17.46,21.42-10L128.39,0Zm55.35,4.28v3.51L175.9,32.38V70.54L174.25,73l-13.61,8.86V91h60.21l.61-12.37-21.85-3.11L198,73.22V31.55c8-4.53,18.75-7.21,29.89-7.63V21.45L223.53,0h-3.09c-9.07,3.1-18.34,9.5-26,17.73H192.4V0h-3.72ZM285,0c-25,0-44.33,20.62-44.33,46.6,0,28.68,15.86,46.62,43.1,46.62,24.95,0,44.32-20.62,44.32-46.62C328.08,18.16,312.2,0,285,0Zm-1.66,18.16c13.82,0,22.07,11.54,22.07,28.44,0,9.7-1.85,18.37-5.76,24.13a24.93,24.93,0,0,1-14.25,4.55c-13.8,0-22-11.54-22-28.68,0-9.27,1.85-18.13,5.76-24.11A24.6,24.6,0,0,1,283.33,18.16Z"/></svg>