<svg width="177" height="38" viewBox="0 0 177 38" fill="none" xmlns="http://www.w3.org/2000/svg">
<path d="M175.037 28.149C174.636 28.149 174.18 28.0505 173.855 28.1654C173.194 28.3954 172.435 28.3543 171.817 28.6171C171.339 28.8142 170.819 28.7814 170.331 28.9785C169.67 29.2413 169.257 28.9949 168.91 28.3051C168.748 27.9766 168.271 27.8205 167.826 27.9519C167.642 28.0094 167.479 28.1244 167.295 28.1244C165.896 28.1408 164.497 28.1572 163.109 28.1326C162.599 28.1244 162.209 27.7055 161.624 27.8205C161.461 27.6152 161.298 27.4017 161.114 27.2046C160.951 27.0321 160.637 26.8596 160.442 26.9828C159.585 27.5167 158.446 26.991 157.59 27.4592C157.546 27.4838 157.286 27.3113 157.156 27.2046C156.939 27.0239 157.21 26.95 157.319 26.8514C157.492 26.679 157.742 26.6297 158.023 26.6215C158.414 26.6051 158.815 26.5968 159.205 26.5558C159.346 26.5394 159.325 26.4408 159.205 26.3423C159.043 26.2109 159.064 26.1041 159.303 26.0302C159.422 25.9973 159.639 25.9645 159.639 25.9234C159.639 25.7345 159.433 25.7592 159.26 25.751C158.674 25.7099 158.11 25.7427 157.546 25.4717C156.831 25.1268 156.007 24.8804 155.161 25.365C155.031 25.4389 154.781 25.406 154.575 25.406C153.914 25.406 153.241 25.406 152.58 25.406C152.049 25.406 151.517 25.4224 151.084 25.135C150.346 25.1679 149.75 24.749 148.991 24.7983C148.199 24.8558 147.397 24.8229 146.594 24.8311C145.684 25.2664 144.664 25.0529 143.699 25.1104C143.135 25.1432 142.647 25.1104 142.289 24.7326C142.073 24.5026 141.736 24.4944 141.389 24.5109C141.14 24.5191 140.891 24.5026 140.641 24.4944C140.652 24.3302 140.793 24.2398 140.988 24.2398C143.981 24.2234 146.974 24.2152 149.967 24.207C150.151 24.207 150.379 24.2563 150.52 24.3384C150.802 24.5026 150.986 24.4041 151.17 24.2481C151.398 24.0509 151.615 23.9113 151.973 24.1331C152.103 24.2152 152.352 24.1906 152.547 24.1988C153.654 24.2563 154.803 24.0756 155.855 24.4862C157.189 24.4944 158.522 24.5109 159.845 24.5109C160.04 24.5109 160.268 24.5026 160.409 24.4205C160.756 24.2152 161.146 24.2152 161.548 24.2234C162.274 24.2398 162.849 24.092 163.044 23.4843C163.077 23.3939 163.207 23.3282 163.293 23.2461C163.413 23.1229 163.413 23.1147 163.922 23.2215C164.118 23.2625 164.302 23.3118 164.475 23.1968C164.725 23.0244 164.898 23.0819 165.126 23.2461C165.408 23.4514 165.213 23.5664 165.061 23.7224C164.996 23.7964 164.974 23.9278 165.007 24.0017C165.126 24.2152 165.321 24.092 165.451 24.0099C165.636 23.8867 165.809 23.9278 166.004 23.9606L167.479 24.0099C167.739 23.8621 167.956 23.9688 168.206 24.0592C168.444 24.1413 168.856 23.9688 168.932 23.7471C169.008 23.5418 168.932 23.3447 168.574 23.3118C168.509 23.3036 168.444 23.2872 168.39 23.2625C168.336 23.2379 168.282 23.1968 168.249 23.1558C168.238 23.1394 168.314 23.0654 168.357 23.0654C168.878 23.0326 169.398 23.008 169.919 22.9669C170.147 22.9505 170.266 22.6302 170.57 22.8437C171.014 23.1558 171.621 22.8355 172.077 23.0819C172.174 23.1394 172.326 23.2461 172.391 23.2215C172.803 23.0819 173.194 22.9176 173.595 22.7616C173.898 23.0162 174.137 22.8109 174.441 22.7369C174.744 22.6548 175.102 22.7205 175.427 22.6877C175.525 22.6795 175.612 22.5809 175.699 22.5316C175.644 22.4988 175.601 22.4495 175.547 22.4413C174.983 22.3099 174.354 22.507 173.812 22.2606C173.259 21.9978 172.641 22.1785 172.066 22.0881C171.936 22.0717 171.762 22.1128 171.676 22.0553C171.036 21.6447 170.277 21.8171 169.561 21.8089C167.23 21.7843 164.898 21.7843 162.578 21.7679C162.426 21.7679 162.187 21.735 162.372 21.5051C162.502 21.3408 162.578 21.1437 162.599 20.9466C162.632 20.7084 162.762 20.5852 163.077 20.577C163.608 20.5688 164.139 20.5688 164.671 20.5524C164.768 20.5442 164.953 20.4374 164.942 20.3881C164.92 20.2567 164.833 20.1253 164.757 20.0022C164.736 19.9775 164.66 19.9693 164.595 19.9611C164.432 19.5669 163.977 19.6408 163.64 19.7229C163.337 19.7968 163.12 19.9775 162.816 19.7065C162.654 19.5587 162.426 19.4355 162.187 19.3616C161.786 19.2384 161.786 19.1809 162.187 19.0577C162.415 18.9838 162.61 18.836 162.816 18.721L163.868 18.2529C164.259 18.1051 164.616 18.1543 164.996 18.3022C165.224 18.3843 165.571 18.491 165.733 18.4171C166.33 18.1625 167.002 18.22 167.609 18.0476C167.685 18.0311 167.739 17.8751 167.729 17.793C167.718 17.7108 167.62 17.5794 167.533 17.5712C167.143 17.522 166.753 17.5137 166.362 17.4645C166.232 17.448 166.254 17.3413 166.384 17.2427C166.514 17.1524 166.525 17.0621 166.416 17.0128C165.907 16.7828 165.202 17.1524 164.757 16.7007C164.562 16.8321 164.356 16.9635 164.161 17.1031C163.944 17.2509 163.673 17.2345 163.413 17.2263C163.055 17.2099 163.12 16.906 162.968 16.8321C162.426 16.5529 163.153 16.0765 162.632 15.8055C162.534 15.7563 162.599 15.5181 162.61 15.3703C162.61 15.3292 162.675 15.2799 162.719 15.2471C162.806 15.1814 162.903 15.2142 162.968 15.3456C163.022 15.436 163.022 15.5756 163.098 15.6084C163.38 15.7152 163.359 15.5099 163.413 15.3949C163.51 15.1567 163.771 15.1075 164.031 15.1075C164.757 15.0993 165.495 15.1157 166.221 15.1075C166.449 15.1075 166.612 14.8939 166.59 14.6558C166.568 14.4422 166.525 14.2534 166.189 14.2123C165.972 14.1877 165.863 14.0973 165.82 13.9166C165.777 13.7195 165.928 13.5881 166.351 13.621C167.056 13.6703 167.826 13.391 168.433 13.8838C169.355 13.9166 170.277 13.9823 171.112 13.5881C171.296 13.4978 171.361 13.3582 171.318 13.2104C171.296 13.1364 171.144 13.0297 171.057 13.0379C170.645 13.0461 170.309 12.9722 169.962 12.7751C169.615 12.578 169.149 13.1693 168.759 12.7422C168.086 12.9065 167.338 12.9065 166.709 13.1036C165.538 13.4814 164.378 13.2925 163.207 13.2514C163.12 13.2514 163.012 13.0133 162.979 12.8819C162.946 12.7422 162.903 12.578 163.12 12.4712L164.53 12.2249C164.812 12.5041 165.234 11.9374 165.495 12.3152C165.907 12.2249 166.33 12.1345 166.742 12.036C166.796 12.0195 166.839 11.9703 166.883 11.9374C166.828 11.9046 166.785 11.8553 166.731 11.8389C166.612 11.806 166.481 11.7814 166.351 11.7814C165.972 11.7732 165.679 11.7732 166.015 11.379C166.156 11.2065 165.831 11.1983 165.679 11.1983C163.749 11.1901 161.819 11.1901 159.889 11.1819C159.357 11.1819 158.826 11.1901 158.295 11.1901C157.763 11.1819 157.817 11.0176 158.056 10.7466C158.11 10.6891 157.872 10.5084 157.828 10.3688C157.644 9.85142 157.199 9.6379 156.516 9.66253C156.115 9.67075 155.714 9.69538 155.323 9.67075C154.423 9.61326 153.48 9.82679 152.623 9.40794C152.537 9.36688 152.266 9.49007 152.114 9.5722C151.919 9.67075 151.734 9.66253 151.561 9.58862C151.344 9.49828 151.398 9.32582 151.485 9.19442C151.702 8.84949 151.929 8.50456 152.157 8.16785C151.387 8.09393 151.355 8.0693 151.647 7.51084C151.778 7.25625 151.55 7.29731 151.409 7.23983C150.964 7.05094 150.953 7.0263 151.127 6.6978C151.17 6.61567 151.235 6.53355 151.3 6.45963C151.181 6.435 151.051 6.36108 150.943 6.38572C150.758 6.41857 150.487 6.59925 150.444 6.5664C149.847 6.1147 149.37 6.58282 148.85 6.67316C148.676 6.6978 148.438 6.8949 148.373 6.85384C147.733 6.5007 146.822 6.77992 146.226 6.35287C146.312 5.95045 146.659 5.74514 147.169 5.72871C147.69 5.71229 148.178 5.72871 148.698 5.90939C149.641 6.23789 149.988 6.08185 150.4 5.4577C150.509 5.29345 150.487 5.1949 150.346 5.08813C150.108 4.90746 149.858 4.71036 149.511 4.92388C149.229 5.08813 148.872 5.23596 148.611 5.11277C147.95 4.80069 147.245 4.83354 146.518 4.81712C146.443 4.81712 146.377 4.70214 146.312 4.64466C146.367 4.61181 146.41 4.55432 146.464 4.5461C146.985 4.51325 147.505 4.49683 148.026 4.46398C148.069 4.46398 148.112 4.40649 148.167 4.37364C148.112 4.34079 148.058 4.2833 148.004 4.2833C147.234 4.25867 146.443 4.07799 145.705 4.43113C145.651 4.46398 145.477 4.40649 145.402 4.35722C145.087 4.1519 144.816 4.2176 144.523 4.39828C144.274 4.55432 143.97 4.53789 143.883 4.31615C143.753 3.97944 143.645 3.97944 143.244 4.11905C142.68 4.31615 142.636 4.27509 142.203 3.8234C142.029 3.64272 141.899 3.72485 141.758 3.81519C141.476 3.99586 141.248 4.29973 140.804 3.97944C140.739 3.93016 140.522 3.92195 140.435 3.97123C139.514 4.43934 138.516 4.13548 137.551 4.13548C137.106 3.79055 136.738 4.05335 136.326 4.20939C136.033 4.31615 135.675 4.14369 135.404 3.87267C135.209 3.67557 135.013 3.38813 134.753 3.34707C134.189 3.25673 133.582 3.35528 133.062 3.05963C132.986 3.01857 132.725 3.16639 132.541 3.20746C132.303 3.25673 132.064 3.29779 131.825 3.33886C131.793 3.4949 131.674 3.60987 131.478 3.61808C130.416 3.692 129.386 3.63451 128.475 3.11712C128.139 2.92823 127.878 3.07606 127.792 3.38813C127.748 3.55238 127.564 3.64272 127.347 3.59345C127.043 3.51953 126.751 3.41277 126.458 3.30601C126.284 3.24852 126.263 3.14997 126.393 3.09248C126.62 2.99393 126.859 2.92002 127.087 2.83789C127.314 2.75577 127.542 2.66543 127.77 2.57509C127.575 2.3862 127.304 2.43548 127.043 2.42726C126.816 2.41905 126.729 2.31229 126.61 2.18089C126.219 1.74562 126.057 1.72098 125.861 2.08233C125.493 2.72291 124.734 2.85432 123.996 3.01857C123.855 3.05142 123.628 2.93644 123.476 2.86253C123.346 2.79683 123.541 2.53403 123.801 2.41905C123.91 2.36977 124.051 2.34514 124.148 2.28765C124.257 2.22195 124.213 1.95093 124.094 1.90166C123.324 1.58958 122.522 1.42533 121.654 1.58137C121.567 1.59779 121.513 1.72919 121.47 1.81132C121.405 1.9263 121.459 2.03306 121.622 2.04948C121.947 2.09055 122.272 2.11519 122.598 2.1234C122.825 2.13161 123.01 2.20552 122.999 2.36156C122.988 2.49296 122.89 2.649 122.771 2.74755C122.283 3.10069 121.708 3.30601 121.014 3.32243C120.375 3.33886 119.702 3.25673 119.128 3.59345C119.063 3.6263 118.889 3.5606 118.77 3.53596C118.802 3.45383 118.813 3.3635 118.878 3.28958C119.084 3.06784 119.052 2.68185 119.605 2.66543C119.757 2.65721 119.908 2.48475 120.06 2.3862C120.104 2.35335 120.169 2.27122 120.169 2.26301C120.082 2.20552 119.995 2.13161 119.887 2.10697C119.388 1.96736 119.084 2.33692 118.661 2.3862C118.65 2.10697 118.694 1.78668 118.097 1.81953C117.967 1.82775 117.783 1.84417 117.718 1.7949C117.36 1.52388 117.067 1.54852 116.785 1.85238C116.601 2.04948 116.406 2.0577 116.156 1.89345C115.907 1.72919 115.69 1.86881 115.462 1.95915C114.92 2.17267 114.378 2.19731 113.814 1.93451C113.359 1.72098 112.86 1.48282 112.274 1.77847C112.209 1.81132 112.036 1.73741 111.938 1.68813C111.396 1.4089 110.8 1.41712 110.279 1.65528C109.455 2.03306 108.425 1.53209 107.666 2.0577C107.406 1.91808 107.156 1.76204 107.07 1.51567C106.939 1.50746 106.82 1.50746 106.69 1.49103C106.592 1.48282 105.66 1.49924 105.519 1.49924C105.324 1.49924 105.118 1.49924 104.933 1.46639C104.749 1.44175 104.727 1.35963 104.825 1.26108C105.042 1.05576 105.031 0.940788 104.63 0.91615C104.066 0.875088 103.675 1.20359 103.177 1.30214C103.253 1.42533 103.426 1.58958 103.383 1.67171C103.263 1.87702 102.515 1.84417 102.353 1.65528C102.212 1.48282 102.363 1.71277 102.472 1.53209C102.559 1.38427 102.624 1.24465 102.374 1.22002C101.984 1.18717 101.583 1.2118 101.181 1.2118C100.845 1.2118 100.52 1.2118 100.184 1.18717C99.8043 1.16253 99.414 1.24465 99.0453 1.03934C98.6766 0.842237 98.3947 1.31035 97.9934 1.18717C97.9392 1.17074 97.8525 1.19538 97.7983 1.17074C97.6031 1.10504 97.4838 0.998276 97.5055 0.834025C97.5705 0.27557 97.5814 0.27557 97.1151 0.27557C96.6488 0.27557 96.085 0.390546 95.7488 0.226295C95.1091 -0.0775702 94.4693 0.0291932 93.8295 0.00455551C93.5151 -0.00365705 93.1464 -0.0118696 92.8753 0.0866812C92.5283 0.218082 92.7452 0.538372 92.6909 0.776537C92.6367 0.990063 92.5174 1.15431 92.3223 1.28572C92.2463 1.33499 92.1271 1.35963 92.0186 1.37605C91.9969 1.37605 91.921 1.30214 91.921 1.26108C91.8994 1.16253 91.9102 1.06398 91.8993 0.957213C91.8234 0.20987 91.7909 0.193445 90.9234 0.521947C90.5873 0.645136 90.2511 0.768324 89.915 0.8833C89.9041 0.924363 89.9041 0.981851 89.8716 1.00649C89.3728 1.45818 89.3294 1.48282 88.8632 1.12146C88.4077 0.842237 88.0173 0.858662 87.5619 0.998276C87.3234 1.07219 86.9764 1.11325 86.8679 1.25287C86.5968 1.63064 86.3258 1.90987 85.686 1.85238C85.6209 1.84417 85.4799 1.98378 85.4691 2.06591C85.4149 2.32871 85.2739 2.43548 85.0028 2.22195C84.6125 1.9263 84.2763 1.63886 83.6908 2.03306C83.5281 2.13982 83.051 2.18089 82.9534 2.09876C82.5088 1.70456 82.0534 1.96736 81.7606 2.1234C81.0883 2.48475 80.3184 2.53403 79.7003 2.32871C79.0497 2.11519 78.4316 2.13161 77.781 2.11519C77.2497 2.09876 76.7183 2.1234 76.187 2.09876C75.9918 2.09055 75.8725 1.97557 75.8509 1.81953C75.4605 1.81132 74.9942 1.70456 74.7123 1.83596C73.9749 2.16446 73.1942 2.07412 72.4243 2.1234C72.1749 2.13982 71.9472 2.2548 71.7086 2.32871C71.5243 2.3862 71.3182 2.42726 71.1773 2.29586C71.1447 2.26301 71.2857 2.14804 71.3074 2.0577C71.3725 1.86881 71.4267 1.67992 71.4484 1.49103C71.4592 1.41712 71.3291 1.33499 71.264 1.26108C71.2206 1.30214 71.1556 1.33499 71.1447 1.37605C70.9712 1.992 70.4182 2.14804 69.67 2.09876C69.2796 2.07412 68.8893 2.10697 68.5314 1.90987C68.4122 1.84417 68.1302 1.84417 68.0001 1.90987C67.6423 2.08233 67.1868 2.22195 66.8941 2.03306C66.4386 1.73741 66.1675 2.1891 65.8748 2.09055C65.441 1.93451 65.0832 2.00842 64.6603 2.09055C64.2265 2.17267 63.7494 2.09876 63.294 2.06591C63.1096 2.04948 63.1313 1.96736 63.2506 1.85238C63.359 1.74562 63.4892 1.57316 63.4458 1.46639C63.294 1.12146 63.0771 1.43354 62.8819 1.46639C62.3181 1.56494 61.6674 1.40069 61.1903 1.78668C60.6156 1.75383 60.0192 1.94272 59.4554 1.65528C59.2602 1.55673 58.9674 1.52388 58.718 1.51567C58.1216 1.49924 57.5252 1.51567 56.9288 1.50746C56.0071 1.49924 55.1721 1.94272 54.2287 1.83596C54.1745 1.82775 54.1095 1.87702 54.0661 1.90987C54.0336 1.93451 54.001 1.98378 54.0119 2.00021C54.0444 2.04127 54.0986 2.09055 54.1528 2.09876C54.3155 2.13161 54.6083 2.13161 54.5541 2.28765C54.4998 2.44369 54.283 2.69828 54.0227 2.59973C53.7516 2.49296 53.6107 2.44369 53.3721 2.63258C53.2203 2.75577 53.0902 3.00214 52.8082 2.90359C52.6998 2.86253 52.7106 2.64079 52.6781 2.49296C52.6673 2.44369 52.7106 2.37799 52.6781 2.34514C52.6131 2.28765 52.4721 2.19731 52.4396 2.21374C52.1576 2.34514 51.8323 2.52581 51.5612 2.28765C51.2359 2.00021 51.0299 2.50939 50.7588 2.31229C50.4769 2.10697 50.3251 2.27944 50.1299 2.41084C49.8588 2.60794 49.913 2.86253 49.8479 3.10891C49.8046 3.26494 49.5877 3.33064 49.3817 3.28958C49.2732 3.27316 49.1648 3.18282 49.1214 3.10891C49.078 3.01857 49.1106 2.9118 49.0997 2.81325C49.0564 2.48475 49.0347 2.52581 48.3515 2.28765C47.972 2.14804 47.625 2.02485 47.2563 2.20552C46.6382 2.50939 46.0418 2.55866 45.4129 2.23837C44.9358 2.31229 44.4587 2.55045 44.0141 2.15625C43.9707 2.1234 43.7322 2.14804 43.6563 2.20552C43.3309 2.44369 42.9406 2.42726 42.5394 2.41905C42.008 2.41084 41.4767 2.41905 40.9454 2.41084C40.5658 2.41084 40.3273 2.5176 40.2622 2.82147C40.2405 2.95287 40.1104 2.98572 39.9911 2.92002C39.7634 2.80504 39.5682 2.66543 39.4815 3.02678C39.4056 3.35528 39.0044 3.60166 39.0477 3.98765C39.0694 4.19296 38.7441 4.2833 38.4513 4.16833C38.2236 4.0862 37.9959 3.83982 37.7682 3.96301C37.3778 4.18475 36.9224 4.19296 36.4886 4.29973C36.4344 4.31615 36.4019 4.36543 36.3694 4.39828C36.4778 4.44755 36.5971 4.48862 36.7055 4.5461C36.8031 4.59538 36.9875 4.64466 36.9875 4.69393C36.9875 4.89925 36.2826 5.20311 36.0658 5.09635C35.8055 4.97316 35.5669 4.81712 35.491 4.57074C35.2742 4.65287 35.0681 4.75963 34.8404 4.80069C34.5802 4.84997 34.3633 4.77606 34.2982 4.55432C33.6259 4.77606 33.1488 5.392 32.238 5.16205C31.7392 5.5891 30.9801 5.34272 30.4054 5.56446C29.7656 5.81084 29.1367 6.05722 28.4969 6.30359C28.2692 6.39393 28.0307 6.47606 27.8138 6.58282C27.6945 6.64031 27.5752 6.64852 27.4993 6.52533C27.1632 5.94224 25.9921 6.23789 25.7318 5.53982C25.6776 5.38379 24.9185 5.392 24.8643 5.56446C24.68 6.05722 24.1595 6.03258 23.6824 6.14756C23.6065 6.16398 23.6173 6.39393 23.5848 6.52533C24.2788 6.61567 24.3547 7.45335 25.2547 7.30553C25.4174 7.28089 25.4499 7.39586 25.3631 7.50263C25.2764 7.60118 25.0487 7.72437 25.3523 7.83934C25.4065 7.85577 25.4824 7.86398 25.5366 7.86398C26.0571 7.83113 26.6427 8.0036 27.0656 7.71616C27.6511 7.32195 27.9873 7.97896 28.4752 7.85577C28.5945 7.82292 28.6921 7.74079 28.8006 7.68331C28.9198 7.6176 29.0391 7.65045 29.0608 7.77364C29.0825 7.85577 29.05 8.02823 28.9849 8.03645C28.3126 8.18427 27.5861 8.2007 26.9463 8.45529C25.4065 8.35674 24.127 9.26012 22.5655 9.10408C22.5113 9.09587 22.4571 9.16157 22.392 9.16978C21.7631 9.26833 21.2751 9.98282 20.4835 9.43258C20.2016 9.54756 19.7462 9.61326 19.6594 9.79393C19.2907 10.4838 18.3907 10.3852 17.7293 10.5659C17.0895 10.7384 16.2979 10.4509 15.669 10.8369C15.1919 10.3278 14.769 10.7877 14.3135 10.8616C13.9232 10.9273 13.3268 10.3935 13.5545 10.1717C14.0208 9.72002 13.8473 9.21906 13.934 8.73451C13.9557 8.58669 14.0967 8.49635 14.2918 8.47171C14.3461 8.2664 14.5196 8.17606 14.8015 8.16785C15.1051 8.16785 15.4196 8.17606 15.5063 7.88041C15.9401 7.80649 15.8858 7.5519 15.8642 7.30553C15.8425 7.06736 15.6581 6.9606 15.3654 6.95239C14.9967 6.93596 14.7147 7.07558 14.5196 7.28089C14.3352 7.46978 14.2268 7.71616 14.0533 7.91326C13.9015 8.07751 13.6521 8.21712 13.381 8.12678C13.2509 8.08572 13.175 7.90504 13.1099 7.78186C13.0665 7.69152 13.1099 7.56833 13.0557 7.4862C13.0015 7.41229 12.8822 7.34659 12.7737 7.31374C12.546 7.25625 12.3617 7.36301 12.34 7.51084C12.2858 7.86398 12.34 8.24176 11.6135 8.17606C11.4942 8.16785 11.3532 8.20891 11.2556 8.2664C10.0845 8.84128 8.88089 9.06302 7.55798 8.52099C7.38448 8.44707 7.04833 8.54562 6.80977 8.61133C6.63627 8.6606 6.48446 8.78379 6.34349 8.89055C6.06156 9.08765 5.7471 9.12872 5.48685 8.90698C5.03142 8.52099 4.60852 8.32388 4.00128 8.76736C3.78441 8.93161 3.43742 9.00553 3.13379 9.09587C2.56993 9.25191 2.32053 9.53934 2.29884 9.99925C2.288 10.3278 2.43981 10.6973 2.04944 11.0012C1.88678 11.1244 2.1904 11.2229 2.288 11.3215C2.43981 11.4693 2.60246 11.4364 2.75427 11.3215C2.94945 11.1819 3.10126 11.0258 3.12295 10.8123C3.12295 10.7712 3.24223 10.7055 3.24223 10.7055C3.32898 10.7548 3.4591 10.8041 3.46995 10.8616C3.60007 11.6746 3.54585 11.7321 2.58077 12.1345C2.17956 12.2988 1.78919 12.4794 1.40967 12.6683C1.31207 12.7176 1.2687 12.8244 1.19279 12.8983C1.31207 12.9311 1.43135 12.9968 1.55063 12.9968C1.87594 13.0133 2.21209 13.005 2.54824 13.0133C2.99283 13.0297 2.99283 13.0379 3.11211 13.621C3.22054 13.6621 3.37235 13.6867 3.39404 13.7442C3.46995 13.9249 3.40488 14.1712 3.54585 14.3108C3.81694 14.5983 3.882 14.8036 3.44826 15.0336C3.18801 15.1732 2.98198 15.3867 2.75427 15.5592C3.26392 16.093 2.70005 16.0026 2.288 16.0601C2.04944 16.093 1.84341 16.2572 1.59401 16.3147C1.10605 16.4297 0.715676 16.75 0.15181 16.6925C0.108436 16.6843 0.0542179 16.75 0 16.7828C0.0867486 16.8403 0.162654 16.9389 0.249402 16.9471C1.10605 16.9635 1.96269 16.9553 2.81933 16.9717C2.87355 16.9717 3.00367 17.1278 2.98198 17.1442C2.7868 17.3413 2.45065 17.5055 2.37474 17.7273C2.24462 18.1051 1.98438 18.1954 1.52894 18.1625C1.33376 18.1461 1.12773 18.1543 0.954235 18.2036C0.628928 18.3022 0.900017 18.4171 0.965079 18.5239C1.0193 18.606 1.06267 18.6964 1.11689 18.7785C1.31207 18.8688 1.49641 19.0084 1.70244 19.0249C2.288 19.0659 2.32053 19.3534 2.32053 19.6737C2.99283 19.7311 3.43742 19.378 3.93622 19.1973C4.50009 19.0002 4.93383 18.992 5.33504 19.3698C5.55191 19.5751 5.83385 19.6737 6.20253 19.6572C6.5929 19.6408 6.99411 19.6819 7.39532 19.6819C7.85075 19.6819 7.89413 19.8954 7.9375 20.1746C7.99172 20.4949 8.07847 20.5442 8.31703 20.4128C8.88089 20.1007 9.67247 20.4949 10.1713 20.0432C10.2147 20.1336 10.3014 20.2157 10.3014 20.306C10.3014 20.4785 10.1713 20.5606 9.93272 20.5852C9.81344 20.6017 9.71585 20.6756 9.59657 20.7249C9.705 20.7741 9.79175 20.848 9.91103 20.8645C10.1062 20.8891 10.3122 20.8973 10.5074 20.8809C11.0821 20.8316 11.4725 20.9712 11.7002 21.4065C11.787 21.5708 12.2424 21.4558 12.2966 21.2423C12.3292 21.0944 12.2858 20.9384 12.3292 20.7906C12.3508 20.7249 12.4918 20.6838 12.5786 20.6427C12.5894 20.6345 12.6761 20.7084 12.7087 20.7495C13.1316 21.2915 13.5653 21.3572 13.8798 20.8891C14.1509 20.4785 14.4762 20.2814 15.0834 20.2814C15.6039 20.2732 16.2112 20.4374 16.6232 20.1664C17.2196 19.7804 17.5883 20.3389 18.0763 20.2732C18.2606 20.2485 18.4558 20.2239 18.6401 20.1828C18.8245 20.1418 18.9871 20.0596 19.1715 20.0268C19.4209 19.9775 19.5618 20.3307 19.8438 20.1582C20.0606 20.0268 20.3534 20.0432 20.5594 19.9529C21.2968 19.6572 22.0884 19.6983 22.8691 19.6901C23.2053 19.6819 23.5306 19.6737 23.8667 19.6819C24.1161 19.6901 24.539 19.608 24.5716 19.8051C24.6149 20.0186 24.2029 19.9447 23.986 19.9857C23.4872 20.0761 23.086 20.3471 22.5004 20.3142C21.9257 20.2814 21.4378 20.6345 20.8088 20.6017C20.3317 20.577 20.2667 20.7413 20.5594 21.2012C20.6896 21.4147 20.5377 21.4722 20.3751 21.4886C20.0498 21.5215 19.7136 21.5133 19.3883 21.5379C19.3341 21.5379 19.2799 21.5954 19.2257 21.62C19.3016 21.6775 19.3775 21.7596 19.4642 21.7761C19.6594 21.8007 19.8546 21.7843 20.0606 21.8007C20.1148 21.8089 20.2124 21.8828 20.2016 21.8993C20.1582 21.965 20.0932 22.0717 20.0173 22.0799C19.757 22.1046 19.4859 22.0964 19.2257 22.0881C18.9221 22.0799 18.8028 21.965 18.7377 21.7268C18.5534 21.078 18.2931 20.8973 17.6425 20.8891C17.1762 20.8809 16.71 20.8891 16.2437 20.8891L14.4111 21.308C13.9557 21.4886 13.9557 21.891 13.6846 22.1621C13.587 22.2524 13.6195 22.3509 13.8039 22.3674C14.1292 22.4002 14.4653 22.3756 14.7906 22.4002C14.9858 22.4166 15.116 22.5316 15.116 22.6959C14.422 22.9176 13.8039 23.2461 12.9906 23.3282C12.2207 23.4104 11.4942 23.665 10.6809 23.5993C10.3014 23.5746 9.90019 23.55 9.53151 23.7471C9.14114 23.9606 8.87005 23.5007 8.45799 23.5993C8.20859 23.6567 7.88328 23.591 7.69894 23.6896C7.22182 23.9606 6.67965 23.8785 6.15915 23.9031C5.75794 23.9278 5.35673 23.9442 4.96636 23.9031C4.45671 23.8538 4.17478 24.2152 3.67597 24.2316C3.11211 24.2481 3.11211 24.3302 3.14464 24.8476C3.17717 25.3814 3.67597 25.6606 4.42418 25.5128C5.09648 25.3814 5.71457 25.3239 6.23506 25.7674C6.35434 25.8741 6.57121 25.9891 6.73386 25.9809C7.44954 25.9481 8.1869 26.1534 8.87005 25.8249C9.22789 25.6524 9.6291 25.7099 9.98694 25.8906C10.0954 25.9398 10.2689 26.0138 10.3448 25.9809C10.952 25.7017 11.4183 25.9727 11.9063 26.1698C12.199 26.2848 12.4918 26.3915 12.7737 26.5065C13.3484 26.7447 14.0641 26.5065 14.6063 26.8432C15.0509 26.5229 15.6039 26.5968 16.1244 26.6461C16.7208 26.7036 17.1545 26.5394 17.5015 26.1944C17.6534 26.0466 17.8268 26.1041 17.9895 26.2026C18.2281 26.3505 18.4775 26.3505 18.7052 26.2026C18.9112 26.0795 19.0847 25.9234 19.3016 25.8084C19.3233 25.8002 19.3341 25.792 19.3449 25.7838C19.3449 25.8002 19.3558 25.8331 19.4425 25.8577C19.4859 25.8741 19.5293 25.9563 19.5076 25.9809C19.3883 26.1944 19.2474 26.408 19.1172 26.6215C18.9221 26.7282 18.6943 26.8268 18.5317 26.9582C18.1522 27.2539 18.3257 27.6316 18.3907 27.9601C18.4341 28.1572 18.8245 28.108 19.0739 28.149C19.2582 28.1737 19.4317 28.2558 19.5944 28.3379C19.7028 28.3872 19.8329 28.4857 19.8329 28.5596C19.8329 28.7403 19.616 28.7321 19.4317 28.7403C19.1715 28.7403 18.857 28.7485 18.7811 28.9703C18.7052 29.1756 18.5534 29.3234 18.369 29.463C18.163 29.6191 17.9244 29.6519 17.6425 29.6355C17.3389 29.6191 17.1762 29.5205 17.122 29.2824C17.0786 29.1017 16.9051 29.0853 16.7316 29.2084C16.5907 29.3152 16.4606 29.4384 16.2979 29.5123C16.1461 29.578 15.9292 29.6273 15.7666 29.5944C15.5497 29.5534 15.387 29.2988 15.116 29.5123C14.8991 29.6848 14.4436 29.5944 14.3461 29.9147C14.3244 30.0051 14.2268 30.0872 14.1617 30.1693C14.075 30.0461 13.9882 29.9311 13.9123 29.808C13.8147 29.6766 13.6738 29.6601 13.6412 29.7833C13.5219 30.2679 13.0448 30.2843 12.6002 30.2022C11.0821 29.9065 11.0821 29.8901 9.81344 30.1693C9.29295 30.2843 8.7833 30.3171 8.30618 30.0543C8.00256 29.8819 7.63388 29.8901 7.38448 30.0133C7.02664 30.1857 6.6688 30.2268 6.27843 30.2596C6.01819 30.2761 5.88806 30.5307 6.07241 30.7196C6.35434 31.0234 6.4194 31.4833 7.05917 31.549C7.5146 31.9761 8.12184 32.0746 8.81583 32.05C9.54235 32.0254 10.2797 31.9843 11.0062 32.05C11.7653 32.1239 12.3075 31.5901 13.0882 31.7133C13.6521 31.8036 13.8581 31.1055 14.422 31.1877C14.975 31.2698 15.4738 31.6311 16.0485 31.2534C16.1569 31.1795 16.2328 31.2287 16.3738 31.2944C16.9268 31.5244 17.4907 31.4997 18.0546 31.2698C18.3582 31.1466 18.304 31.3766 18.3799 31.4915C18.4341 31.5737 18.5642 31.7297 18.5859 31.7215C19.0739 31.5737 19.7462 31.6558 19.9847 31.163C20.5703 31.1548 21.1558 31.1466 21.7414 31.1302C22.1209 31.122 22.3703 31.2287 22.4028 31.5408C22.9342 31.8036 23.4872 32.2142 24.127 31.9761C24.6475 31.779 25.1246 31.779 25.6451 31.7626C26.1005 31.7461 26.6318 31.82 26.9897 31.664C27.6294 31.3848 28.2909 31.4176 28.8981 31.4751C29.5271 31.5326 30.0476 31.0727 30.7307 31.4012C31.0669 31.5572 31.6307 31.4587 32.0862 31.4423C32.6283 31.4176 32.9862 31.8529 33.5392 31.7379C33.5717 31.6229 33.6043 31.4997 33.8211 31.5408C33.8862 31.5572 33.9187 31.664 33.9621 31.7379C34.0705 31.7708 34.2007 31.7954 34.2766 31.8611C34.5477 32.0746 34.8296 32.1075 35.1332 31.9022C35.3284 31.7708 35.5236 31.6394 35.7296 31.4997C36.0874 31.82 36.3911 31.5326 36.7272 31.4669C37.085 31.4012 37.6381 31.9022 37.4971 32.1568C37.4537 32.2307 37.3128 32.3128 37.2043 32.321C37.0091 32.3456 36.7381 32.3703 36.6296 32.2964C36.2284 32.0254 35.9465 32.1157 35.6754 32.3949C35.491 32.5838 35.285 32.6249 35.0465 32.4442C34.8838 32.321 34.6886 32.3374 34.5151 32.4113C34.2549 32.5263 34.4175 32.9287 33.9296 32.9287C33.6043 32.9205 33.2681 32.9452 32.9428 32.9534C32.8777 32.9534 32.8127 32.9534 32.7585 32.9534C32.4332 33.3229 32.2705 33.3229 31.9669 32.9534C31.8368 32.9452 31.7066 32.9369 31.5657 32.9287C31.4355 32.6331 31.2078 32.4113 30.7632 32.3539C30.7307 32.4935 30.6114 32.592 30.4271 32.6249C30.2319 32.6577 30.0259 32.6249 29.8415 32.6659C29.7439 32.6824 29.6355 32.7891 29.603 32.8712C29.5379 33.0273 29.6572 33.1669 29.8524 33.208C30.0367 33.249 30.2536 33.2162 30.4379 33.249C30.5247 33.2654 30.6006 33.3558 30.6765 33.4133C30.3946 33.6104 30.4488 34.0128 30.0259 34.1031C29.7982 34.1524 29.4729 34.1196 29.2777 34.021C28.768 33.7664 28.356 33.7993 27.8463 34.0374C27.1849 34.3495 26.4475 34.522 25.6234 34.4481C25.0378 34.3988 24.3655 34.563 23.8667 34.3988C23.227 34.1935 22.6522 34.0374 22.0233 34.292C21.4594 34.5138 20.7329 34.4645 20.31 34.9162C20.2341 34.9983 19.8871 35.0476 19.7895 34.9901C19.4751 34.8012 19.2474 34.8176 18.9871 35.0394C18.7052 35.2857 18.4124 35.3597 17.957 35.1954C17.2955 34.9655 16.5798 34.9244 15.9075 35.2283C15.528 35.4007 15.1485 35.3679 14.8123 35.179C14.5955 35.0558 14.4979 35.1708 14.3244 35.22C14.0967 35.2857 13.8473 35.3104 13.5979 35.3514C13.4244 35.7703 12.7954 35.9756 12.6761 36.4355C12.6653 36.493 12.3183 36.5505 12.1557 36.5258C11.9063 36.493 11.6894 36.3616 11.44 36.3123C10.9954 36.222 10.5074 36.107 10.1171 36.3369C9.61826 36.6244 9.19536 36.608 8.67486 36.3616C8.41462 36.2384 8.41462 36.4766 8.40378 36.5998C8.39293 36.8461 8.3604 37.1007 8.83752 37.15C9.08692 37.1746 9.33632 37.2403 9.57488 37.3142C10.2255 37.536 10.9737 37.4292 11.6135 37.7331C11.852 37.8481 12.2641 37.7413 12.5894 37.7577C12.8822 37.7659 13.099 37.7002 13.2834 37.5278C13.5436 37.2814 13.8256 37.1171 14.2159 37.3964C14.5629 37.2568 14.9099 37.1336 15.2461 36.9775C15.3762 36.9118 15.4304 36.9283 15.5714 37.0022C15.7774 37.1089 16.0377 37.1664 16.2762 37.2568C16.916 37.5031 17.5124 37.8481 18.1955 37.9795C18.9112 38.1191 19.4317 37.5031 20.1474 37.4456C20.3317 37.4292 20.5269 37.3882 20.7004 37.3225C20.9823 37.2157 21.3835 37.1418 21.5028 36.9611C21.6872 36.6901 21.7305 36.6655 22.1534 36.7558C23.1836 36.9693 23.3679 36.9036 25.3089 36.3369C25.5909 36.2548 25.7969 36.263 26.0138 36.4109C26.2306 36.5587 26.48 36.5915 26.7077 36.4273C26.968 36.2384 27.2933 36.1891 27.6294 36.2302C28.0849 36.2959 28.3993 36.1316 28.6379 35.877C28.9415 35.565 29.1475 35.8113 29.4295 35.8935C29.6789 35.9674 29.9174 35.877 29.9717 35.6471C30.3512 35.6471 30.7632 35.5321 31.0885 35.7621C31.4247 36.0002 31.8368 35.9263 32.2271 35.9263C32.5199 35.9263 32.7259 35.8442 32.7801 35.5978C32.8018 35.5157 32.9103 35.3679 32.9862 35.3679C33.6476 35.3597 34.2982 35.3679 34.9597 35.3761C35.3934 35.836 35.7296 35.3022 36.1308 35.3104C36.2826 35.3104 36.3368 35.1543 36.2284 35.1133C35.8272 34.9572 35.4043 34.8258 34.9922 34.678C34.938 34.6616 34.8946 34.6123 34.8404 34.5795C34.8838 34.5466 34.9163 34.4973 34.9597 34.4891C35.6754 34.3659 36.4127 34.2427 36.9875 34.7355C37.3561 35.0476 37.7899 35.0312 38.2562 35.0147C38.3212 35.0147 38.3971 35.0229 38.4513 35.0065C38.5164 34.9983 38.614 34.9572 38.614 34.9408C38.6031 34.8669 38.5923 34.7766 38.5272 34.7191C38.408 34.5959 38.267 34.4891 38.126 34.3824C37.9742 34.2756 37.9959 34.2099 38.1911 34.1688C38.7983 34.0539 39.3514 34.1442 39.8827 34.3988C39.9586 34.4316 40.1213 34.3577 40.2405 34.3331C40.208 34.251 40.208 34.1442 40.1321 34.0949C39.9911 33.9799 39.9911 33.9225 40.1646 33.8814C40.3598 33.8403 40.5225 33.8568 40.7176 33.9307C41.2381 34.136 41.2598 34.1196 41.5743 33.7746C41.6936 33.6432 41.802 33.5283 42.0189 33.5529C42.1382 33.5693 42.2466 33.635 42.3659 33.6679C43.19 33.865 44.0249 33.9635 44.8274 33.6104C45.0225 33.5283 45.2503 33.4626 45.3695 33.5611C45.7599 33.8896 46.3997 33.7336 46.8009 34.0046C47.0395 34.1688 47.2889 34.1113 47.5057 33.9717C47.8093 33.7746 48.1021 33.5693 48.3841 33.3558C48.6226 33.1751 48.7419 33.3722 48.8503 33.4543C49.2732 33.7828 49.2515 33.9142 48.7527 34.1196C48.3841 34.2674 48.3624 34.3167 48.6226 34.4973C48.7527 34.5877 48.872 34.7437 49.1106 34.5877C49.5009 34.3249 49.7504 33.8485 50.3251 33.865C51.16 33.8814 51.995 33.6843 52.8516 34.0046C53.5564 34.2674 54.3914 34.2674 55.0312 33.7336C55.1505 33.635 55.3673 33.5365 55.5408 33.5365C56.2673 33.52 56.9939 33.5365 57.7204 33.5447C58.0457 33.9307 58.4361 33.4626 58.6963 33.5611C59.3144 33.7993 59.8023 33.6268 60.2686 33.3886C60.5939 33.2244 60.8216 33.208 61.147 33.364C61.353 33.4626 61.6349 33.479 61.8952 33.5036C62.2313 33.5365 62.3289 33.6843 62.3181 33.906C62.3181 34.0046 62.3072 34.1113 62.3289 34.2099C62.3614 34.3495 62.4265 34.4891 62.4807 34.6287C62.7843 34.5302 62.6976 34.3249 62.7084 34.1442C62.7193 34.0456 62.6867 33.9389 62.7193 33.8403C62.741 33.75 62.7952 33.6432 62.8819 33.594C62.9687 33.5447 63.1313 33.52 63.2506 33.5365C63.4349 33.5611 63.4566 33.6514 63.359 33.7418C63.2831 33.8239 63.1747 33.906 63.153 33.9964C63.1096 34.136 63.1205 34.3084 63.3374 34.3824C63.6084 34.4727 64.1723 34.407 64.2807 34.292C64.4326 34.1278 64.2807 34.3495 64.1723 34.1688C64.0964 34.0456 63.9121 33.9471 64.1181 33.8075C64.6711 33.4215 65.2892 33.1997 66.0699 33.2244C66.4495 33.2408 66.6989 33.2901 66.7422 33.6186C66.7639 33.7582 66.8941 33.7746 67.0242 33.6925C67.1326 33.635 67.2953 33.52 67.3495 33.5447C67.8266 33.75 68.5206 33.6432 68.7591 34.2017C68.8784 34.4809 69.2363 34.4563 69.464 34.1524C69.6049 33.9717 69.6375 33.7418 69.8869 34.0785C69.9628 34.1853 69.9086 34.4398 70.223 34.2674C70.5917 34.0703 71.1339 34.0785 71.3616 33.7254C71.4484 33.594 71.47 33.3886 71.611 33.3394C71.9038 33.2244 72.0339 33.479 72.2074 33.594C72.4243 33.7336 72.6628 33.8239 72.9339 33.7911C73.6062 33.6925 74.246 33.3065 74.9508 33.7171C75.5255 33.3394 76.2195 33.5036 76.8593 33.5036C77.575 33.5036 78.334 33.3804 78.963 33.7828C79.5485 33.7336 80.1449 33.8978 80.7088 33.6514C80.8714 33.5775 81.0775 33.5365 81.2618 33.5283C81.9233 33.5036 82.6064 33.4379 83.257 33.5118C84.0269 33.594 84.6558 33.2737 85.3607 33.2244C85.892 33.1915 86.4233 33.208 86.9547 33.208C87.421 33.208 87.8872 33.1915 88.3535 33.1997C88.8848 33.1997 89.4921 33.1012 89.9367 33.2572C90.4572 33.4379 90.8692 33.4872 91.3572 33.2983C92.4741 33.8075 93.5259 33.3558 94.5343 33.093C95.5211 32.8384 96.4645 32.8466 97.4187 33.0601C97.744 33.134 98.0368 33.1997 98.373 33.1997C98.7742 33.208 99.2947 33.093 99.5441 33.249C100.043 33.5529 100.379 33.1997 100.791 33.208C100.921 33.208 101.062 33.1915 101.192 33.2244C102.537 33.52 102.537 33.5365 104.001 33.2819C104.554 33.6268 105.074 33.0109 105.606 33.249C105.909 33.3804 106.126 33.3394 106.462 33.2983C107.362 33.1833 108.273 33.1176 109.184 33.4051C109.856 33.6186 110.648 33.6186 111.309 33.4051C111.765 33.249 112.199 33.2244 112.643 33.2326C113.554 33.249 114.497 33.0355 115.343 33.479C115.387 33.5036 115.495 33.5036 115.538 33.479C116.156 33.0601 117.013 33.3886 117.609 33.1505C118.325 32.863 119.03 32.9452 119.735 32.9205C120.461 32.8959 121.199 32.9205 121.936 32.9287C122.381 33.4051 122.999 32.9534 123.508 33.1012C124.148 33.2819 124.81 33.1833 125.46 33.2326C125.72 33.2572 125.981 33.2819 126.219 33.3558C126.794 33.5529 127.347 33.5775 127.922 33.3476C128.496 33.1094 129.245 33.3147 129.776 32.9287C129.874 32.8548 130.231 32.8712 130.351 32.9534C130.871 33.2983 131.478 33.1669 132.064 33.208C133.04 33.2819 134.059 33.0355 134.97 33.4872C136.087 33.4872 137.215 33.6761 138.277 33.2326C138.863 33.3229 138.982 32.9123 139.275 32.6906C139.73 32.9698 140.305 32.9698 140.804 32.9041C141.639 32.8055 142.311 33.1997 143.103 33.1997C144.436 33.1915 145.759 33.1997 147.093 33.2162C147.451 33.2162 147.733 33.1423 147.971 32.9369C148.188 32.7398 148.535 32.6824 148.796 32.551C149.251 32.3128 149.555 32.3046 150.032 32.5181C150.444 32.6988 150.932 32.6331 151.246 32.2882C151.572 31.9432 152.07 31.8939 152.493 32.0171C153.166 32.2225 153.87 32.2635 154.543 32.4031C155.855 32.6824 156.505 32.6906 157.98 32.3703C158.175 32.3292 158.349 32.2964 158.533 32.3949C159.249 32.8055 160.084 32.5099 160.854 32.5838C161.244 32.6167 161.624 32.6167 161.981 32.3949C162.252 32.2225 162.751 32.206 162.871 32.4113C163.196 33.0109 163.695 32.9862 164.259 32.7152C164.54 32.5838 164.595 32.7645 164.747 32.8138C165.072 32.9205 165.408 32.9534 165.679 32.7891C165.885 32.6659 165.278 32.4853 165.647 32.3456C165.863 32.2635 166.232 32.3456 166.395 32.2389C167.002 31.8529 167.555 31.4094 168.13 30.9906C168.032 30.7688 167.902 30.5553 167.848 30.3254C167.772 30.0461 168.065 29.8326 168.422 29.8819C169.062 29.964 169.648 30.235 170.32 30.1775C170.363 30.1775 170.429 30.2268 170.472 30.2596C170.559 30.3253 170.504 30.4485 170.342 30.4485C169.745 30.4321 169.951 31.0563 169.453 31.0891C169.442 31.2287 169.442 31.3766 169.398 31.508C169.355 31.6476 169.257 31.6476 169.116 31.5819C168.976 31.5162 168.802 31.3519 168.65 31.5654C168.498 31.779 168.357 32.0007 168.26 32.2307C168.195 32.3867 168.325 32.5427 168.52 32.5756C168.9 32.6331 169.301 32.6249 169.691 32.6824C169.941 32.7152 170.168 32.8302 170.418 32.8712C170.7 32.9287 170.992 32.7891 171.014 32.6084C171.036 32.3539 171.036 32.1075 171.047 31.8529C171.057 31.549 170.851 31.4094 170.472 31.3601C170.298 31.3355 170.266 31.2123 170.374 31.163C170.645 31.0316 171.014 30.9659 171.188 30.7853C171.535 30.4321 171.806 30.6539 172.142 30.7606C172.348 30.8345 172.511 30.7196 172.478 30.5553C172.456 30.4403 172.131 30.35 172.435 30.194C173.215 29.7751 174.224 29.9804 175.037 29.6109C175.167 29.5452 175.514 29.7915 175.709 29.7505C176.078 29.6683 176.414 29.4959 176.74 29.3316C177.097 29.1592 177.087 28.7485 176.707 28.5679C176.132 28.4282 175.655 28.149 175.037 28.149ZM164.54 19.9857C164.54 19.9775 164.551 19.9693 164.562 19.9529L164.595 19.9775C164.573 19.9857 164.551 19.9857 164.54 19.9857C164.508 20.0514 164.465 20.1171 164.421 20.1828C164.41 20.191 164.302 20.1828 164.302 20.1746C164.259 20.0104 164.389 19.9939 164.54 19.9857ZM163.153 11.8717C163.174 11.8635 163.228 11.8964 163.261 11.9128C163.261 11.9456 163.25 11.9703 163.25 12.0031C163.174 11.9867 163.098 11.9621 163.022 11.9456C163.066 11.921 163.098 11.8881 163.153 11.8717ZM156.82 10.9601C156.863 10.9848 156.896 11.0176 156.939 11.0422C156.896 11.0669 156.852 11.0915 156.809 11.1162C156.766 11.0997 156.733 11.0915 156.69 11.0751C156.733 11.0422 156.776 11.0012 156.82 10.9601ZM156.57 12.0935C156.581 12.0935 156.581 12.0935 156.592 12.0935C156.592 12.0935 156.592 12.1017 156.603 12.1099C156.798 12.1099 156.983 12.1017 157.178 12.1099C157.72 12.1427 158.045 11.6746 158.652 11.7814C159.097 11.8635 159.574 11.806 160.04 11.8142C160.572 11.8142 161.103 11.806 161.624 11.8142C162.133 11.8224 162.328 12.1427 162.112 12.5534C162.09 12.5944 162.025 12.6273 161.981 12.6601C161.938 12.6273 161.851 12.5944 161.84 12.5534C161.775 12.2906 161.634 12.0935 161.212 12.1263C160.951 12.1427 160.658 12.077 160.431 12.1427C160.138 12.2249 159.899 12.4055 159.531 12.3973C158.609 12.3645 157.687 12.3645 156.766 12.3316C156.711 12.3316 156.657 12.2002 156.603 12.1181C156.592 12.1181 156.592 12.1181 156.581 12.1181C156.57 12.1017 156.57 12.1017 156.57 12.0935C156.386 12.0935 156.202 12.0935 156.017 12.0852C155.963 12.0852 155.876 11.9949 155.887 11.9867C155.942 11.921 156.007 11.8307 156.093 11.8142C156.375 11.7732 156.56 11.8553 156.57 12.0935ZM155.811 10.6152C155.909 10.6563 155.996 10.7055 156.093 10.7466C155.909 10.8616 155.714 10.9848 155.519 11.0915C155.519 11.0915 155.41 11.0258 155.399 10.9848C155.378 10.9355 155.378 10.878 155.389 10.8369C155.432 10.7055 155.595 10.6152 155.811 10.6152ZM148.676 9.09587C148.839 9.10408 148.915 9.08765 148.98 9.11229C149.099 9.14514 149.208 9.20263 149.316 9.24369C149.208 9.29297 149.099 9.34224 148.98 9.38331C148.926 9.39973 148.839 9.39973 148.785 9.38331C148.6 9.34224 148.427 9.28476 148.253 9.23548C148.427 9.17799 148.59 9.1205 148.676 9.09587ZM146.323 9.16157C146.367 9.16157 146.421 9.14514 146.453 9.16157C146.551 9.21084 146.529 9.27654 146.377 9.31761C146.356 9.32582 146.291 9.26833 146.269 9.23548C146.258 9.21906 146.302 9.1862 146.323 9.16157ZM145.9 6.46784C145.944 6.41857 146.063 6.40214 146.161 6.37751C146.161 6.36929 146.171 6.35287 146.171 6.34466L146.204 6.36929C146.193 6.37751 146.171 6.37751 146.161 6.37751C146.128 6.45142 146.106 6.53355 146.041 6.5664C145.933 6.61567 145.835 6.54176 145.9 6.46784ZM144.274 8.9234C144.274 8.91519 145.662 9.15335 145.662 9.16157C145.673 9.19442 145.694 9.22727 145.694 9.26833C145.684 9.40794 145.141 9.67896 144.924 9.65432C144.599 9.62147 144.252 9.33403 144.22 9.06302C144.209 9.01374 144.252 8.96447 144.274 8.9234ZM143.634 9.13693C143.677 9.16978 143.71 9.19442 143.753 9.22727C143.71 9.25191 143.667 9.27654 143.623 9.30118C143.58 9.28476 143.536 9.26833 143.504 9.26012C143.536 9.21906 143.591 9.17799 143.634 9.13693ZM26.068 6.88669C25.9921 6.84562 25.9704 6.73886 25.927 6.65673C25.927 6.65673 25.927 6.65673 25.9162 6.65673C25.7318 6.64852 25.5366 6.64852 25.3523 6.6321C25.2981 6.62388 25.2222 6.54176 25.2222 6.54176C25.2872 6.47606 25.3523 6.39393 25.439 6.37751C25.7427 6.32002 25.9053 6.42678 25.9162 6.66495C25.9162 6.66495 25.9162 6.66495 25.9162 6.67316C26.0246 6.70601 26.1656 6.72243 26.2089 6.78814C26.2848 6.85384 26.1764 6.93596 26.068 6.88669ZM15.3762 7.65045C15.4413 7.68331 15.4629 7.76543 15.4955 7.83934C15.5172 7.83934 15.528 7.84756 15.5497 7.84756L15.5172 7.87219C15.5063 7.86398 15.5063 7.84756 15.5063 7.83113C15.4087 7.80649 15.3003 7.79828 15.2461 7.74901C15.1593 7.6833 15.2678 7.60118 15.3762 7.65045ZM16.3847 15.5756C16.4822 15.5345 16.5798 15.4688 16.6883 15.4606C16.9268 15.436 17.1112 15.5509 17.0027 15.6331C16.9268 15.6906 16.7859 15.7316 16.6883 15.7152C16.5798 15.707 16.4822 15.6249 16.3847 15.5756ZM11.7328 10.0239C11.7978 10.0978 11.852 10.1799 11.9171 10.2538C11.8737 10.336 11.8303 10.4181 11.787 10.5002C11.7111 10.4592 11.5484 10.4099 11.5593 10.3852C11.6026 10.2621 11.6785 10.1471 11.7328 10.0239ZM10.052 10.106C10.1387 10.1224 10.2906 10.1471 10.3014 10.1881C10.3339 10.3113 10.3231 10.4427 10.3122 10.5659C10.3231 10.5659 10.3339 10.5741 10.3556 10.5741C10.3665 10.5906 10.3665 10.5988 10.3773 10.6152C10.5183 10.6234 10.6484 10.6398 10.6159 10.7959C10.6159 10.8041 10.4966 10.8205 10.4966 10.8041C10.4532 10.7466 10.4207 10.6727 10.3773 10.6152C10.3556 10.6152 10.3339 10.6152 10.3122 10.6152C10.3122 10.5988 10.3122 10.5906 10.3122 10.5741C10.052 10.5495 9.92188 10.4263 9.95441 10.2128C9.95441 10.1717 10.0195 10.106 10.052 10.106ZM8.13269 10.3442C8.17606 10.377 8.21943 10.4181 8.26281 10.4509C8.21943 10.4838 8.16522 10.5084 8.12184 10.5413C8.07847 10.5084 8.01341 10.4674 8.01341 10.4427C8.01341 10.4017 8.08931 10.3688 8.13269 10.3442ZM4.58683 18.3761C4.53262 18.3432 4.4784 18.3104 4.41334 18.2857C4.45671 18.2611 4.50009 18.2118 4.53262 18.2118C4.57599 18.2118 4.60852 18.2693 4.64105 18.2939C4.63021 18.3186 4.60852 18.3514 4.58683 18.3761ZM5.00973 16.865C4.81455 17.0538 4.59768 17.2427 4.23984 17.2099C4.14225 17.2017 4.01213 17.1195 3.97959 17.0538C3.94706 16.9799 3.96875 16.8485 4.03381 16.791C4.27237 16.5939 4.59768 16.635 4.91214 16.6761C4.96636 16.6843 5.00973 16.7336 5.06395 16.7582C5.04227 16.791 5.03142 16.8321 5.00973 16.865ZM5.05311 16.2162C4.99889 16.3147 4.89046 16.2983 4.77118 16.1997C4.52177 16.0026 4.19647 16.0437 3.882 16.0191C3.78441 16.0108 3.69766 15.9287 3.60007 15.8794C3.7085 15.8384 3.8061 15.7727 3.91453 15.748C4.03381 15.7234 4.16394 15.7398 4.29406 15.7398V15.748C4.4784 15.748 4.68443 15.7234 4.85792 15.7563C4.95552 15.7727 5.06395 15.8712 5.09648 15.9451C5.13986 16.0273 5.09648 16.134 5.05311 16.2162ZM5.33504 11.4447C5.28082 11.3215 5.20492 11.2065 5.17239 11.0833C5.17239 11.0669 5.3242 11.0176 5.41095 10.993C5.45432 11.0751 5.53023 11.1572 5.51938 11.2311C5.50854 11.305 5.4001 11.3707 5.33504 11.4447ZM9.33632 17.8587C9.27126 17.9326 9.14114 17.9737 9.06523 18.0394C8.93511 18.1379 8.84836 18.1297 8.79414 17.9983C8.77246 17.9572 8.77246 17.9162 8.76161 17.8833C8.75077 17.7026 8.89174 17.6205 9.08692 17.6041C9.19536 17.5959 9.31464 17.6369 9.42307 17.6534C9.39054 17.7108 9.39054 17.8012 9.33632 17.8587ZM22.6739 16.7664C22.5763 16.8567 22.2727 16.9471 22.1751 16.8978C21.8823 16.7664 21.6872 16.6596 21.351 16.8814C21.1016 17.0456 20.7004 17.0128 20.4293 16.8485C20.1582 16.6843 20.0064 16.7582 19.7895 16.906C19.3449 17.2017 19.3124 17.2099 18.8787 16.8978C18.51 16.635 18.369 16.6925 18.2823 17.0456C18.2606 17.1195 18.1088 17.2181 18.0112 17.2263C17.6859 17.2592 17.3497 17.2427 17.0136 17.2592C16.2328 17.2838 15.4629 17.2263 14.7039 17.5137C14.3244 17.6534 13.6195 17.7437 13.4677 17.1195C13.4244 16.9635 13.1424 16.9389 12.9581 16.9881C12.7195 17.0538 12.481 17.1524 12.2749 17.2756C11.7653 17.5877 11.1689 17.5548 10.5725 17.5712C10.1821 17.5877 9.98694 17.448 9.88935 17.1524C9.83513 16.9717 9.66163 16.8239 9.53151 16.6596C8.62065 16.6514 7.69894 16.4872 6.8423 16.906C6.64712 17.0046 6.33265 16.8321 6.34349 16.5857C6.35434 16.2244 6.19168 16.0273 5.71457 15.9862C5.66035 15.978 5.62782 15.9205 5.58444 15.8877C5.63866 15.8548 5.69288 15.8055 5.7471 15.8055C6.00734 15.7973 6.26759 15.7645 6.51699 15.8055C6.79892 15.8466 8.24112 15.8384 8.55559 15.7809C8.80499 15.7398 9.08692 15.7152 9.33632 15.748C9.6291 15.7809 9.92188 15.9287 10.2147 15.9369C10.4532 15.9451 10.6918 15.8137 10.9303 15.748C10.9845 15.7316 11.0713 15.7398 11.1255 15.7563C11.2448 15.7973 11.4183 15.8302 11.44 15.8959C11.505 16.0273 11.5267 16.1997 11.3207 16.2901C11.158 16.364 10.9629 16.3968 10.8002 16.4872C10.6809 16.5529 10.746 16.865 10.887 16.8732C11.2773 16.8896 11.6677 16.9307 12.0581 16.906C12.2641 16.8896 12.3075 16.7089 12.2966 16.5529C12.2858 16.3886 11.787 16.2819 12.1557 16.0848C12.2858 16.0191 12.5135 16.0601 12.7087 16.0601C12.7087 16.0519 12.7087 16.0437 12.7087 16.0355C12.7195 16.0355 12.7304 16.0355 12.7521 16.0355C12.7954 15.9451 12.828 15.822 12.8713 15.8137C13.3268 15.7727 13.7822 15.7316 14.2376 15.748C14.6605 15.7645 15.0075 15.707 15.3328 15.5017C15.4738 15.4113 15.875 15.5181 15.8316 15.5838C15.7774 15.6741 15.669 15.7398 15.5822 15.822C15.3979 15.9862 15.181 16.0519 14.8882 16.0437C14.1726 16.0355 13.4569 16.0355 12.7412 16.0355C12.7412 16.0437 12.7304 16.0519 12.7304 16.0601C12.7195 16.0601 12.7087 16.0601 12.6978 16.0601C12.7087 16.2079 12.6761 16.364 12.7521 16.4872C12.8822 16.7007 13.1858 16.6679 13.446 16.6596C13.6412 16.6596 13.9123 16.7007 14.0316 16.6268C14.5412 16.2983 15.1485 16.3722 15.734 16.3558C16.3196 16.3393 16.9485 16.4379 17.4148 16.0519C18.3365 16.0765 19.269 16.0765 20.1799 16.1587C20.4293 16.1833 20.592 16.1915 20.8522 16.1505C21.492 16.0601 22.1643 16.0765 22.8149 16.0601C22.88 16.0601 23.0101 16.1997 22.9884 16.2408C22.9125 16.4215 22.8366 16.6186 22.6739 16.7664ZM24.192 16.249C23.9643 16.2819 23.9535 16.1751 23.9426 16.0683C23.9318 16.0683 23.9209 16.0601 23.9101 16.0519C23.8993 16.0437 23.8993 16.0273 23.8993 16.0191C23.8017 15.9944 23.6824 15.9862 23.6282 15.9287C23.5523 15.8548 23.6607 15.7727 23.78 15.822C23.845 15.8548 23.8667 15.9451 23.8993 16.0191C23.9101 16.0191 23.9318 16.0273 23.9426 16.0273C23.9426 16.0437 23.9426 16.0519 23.9535 16.0683C24.0402 16.093 24.1378 16.1176 24.2246 16.1587C24.2246 16.1587 24.2029 16.2408 24.192 16.249ZM15.2678 22.9012C15.2027 22.8683 15.181 22.7862 15.1593 22.7205C15.1376 22.7205 15.1268 22.7123 15.1051 22.7123L15.1376 22.6877C15.1485 22.6959 15.1485 22.7123 15.1485 22.7287C15.2461 22.7534 15.3545 22.7698 15.3979 22.8109C15.4738 22.8848 15.3762 22.9587 15.2678 22.9012ZM17.6642 22.8848C17.61 22.8766 17.5449 22.7369 17.5558 22.663C17.5666 22.5891 17.6642 22.5234 17.7293 22.4577C17.7835 22.5234 17.8702 22.5891 17.8919 22.6548C17.9028 22.7698 17.8919 22.9176 17.6642 22.8848ZM19.2799 26.8514C19.2148 26.8186 19.1931 26.7282 19.1606 26.6543C19.1498 26.6543 19.1281 26.6461 19.1172 26.6461L19.1498 26.6215C19.1606 26.6297 19.1606 26.6461 19.1606 26.6543C19.2582 26.679 19.3775 26.6954 19.4209 26.7447C19.4859 26.8268 19.3883 26.9007 19.2799 26.8514ZM19.898 31.1877C19.8871 31.1712 19.8871 31.163 19.8763 31.1466C19.7462 31.1302 19.5944 31.1302 19.6377 30.9577C19.6377 30.9495 19.757 30.9413 19.7678 30.9495C19.8112 31.007 19.8438 31.0727 19.8763 31.1384C19.898 31.1384 19.9197 31.1466 19.9413 31.1466L19.898 31.1877ZM20.4618 26.5311C20.4185 26.449 20.3426 26.3669 20.3534 26.293C20.3642 26.2191 20.4727 26.1534 20.5703 26.0548C20.6245 26.2026 20.6787 26.3176 20.6896 26.4408C20.6896 26.4654 20.5377 26.4983 20.4618 26.5311ZM22.9016 28.3954C22.8583 28.3625 22.8149 28.3297 22.7715 28.2886C22.8149 28.2558 22.8691 28.1983 22.9125 28.1983C22.9667 28.1983 22.9992 28.264 23.0426 28.2968C22.9992 28.3297 22.9559 28.3625 22.9016 28.3954ZM25.3089 19.6162C25.2655 19.5833 25.2222 19.5505 25.1788 19.5176C25.2222 19.4848 25.2764 19.4355 25.3198 19.4355C25.374 19.4355 25.4174 19.493 25.4607 19.5258C25.4065 19.5587 25.3631 19.5833 25.3089 19.6162ZM31.3163 17.4973C31.2729 17.4891 31.2295 17.4398 31.1861 17.407C31.2295 17.3741 31.2837 17.3413 31.3271 17.3084C31.3705 17.3413 31.4139 17.3823 31.4572 17.4152C31.403 17.4398 31.3596 17.4973 31.3163 17.4973ZM32.9862 17.136C32.9428 17.1852 32.8452 17.2017 32.7476 17.2181C32.7476 17.2345 32.7368 17.2509 32.7368 17.2592C32.7151 17.2592 32.6934 17.2592 32.6717 17.2592C32.6283 17.3249 32.5958 17.3906 32.5524 17.4563C32.5416 17.4645 32.4223 17.448 32.4223 17.4398C32.4006 17.2838 32.5307 17.2674 32.6717 17.2674C32.6826 17.2592 32.6826 17.2427 32.6934 17.2345C32.7151 17.2263 32.7368 17.2263 32.7476 17.2181C32.7693 17.1524 32.791 17.0785 32.8452 17.0456C32.9536 16.9964 33.0512 17.0621 32.9862 17.136ZM35.7188 16.9389C35.6212 17.0046 35.5236 17.0703 35.4151 17.136C35.2959 17.2099 35.1766 17.177 35.144 17.0374C35.0898 16.8157 35.2742 16.6596 35.5669 16.6596C35.6212 16.6761 35.6862 16.6843 35.7404 16.7089C35.8597 16.7664 35.8489 16.8485 35.7188 16.9389ZM30.0476 35.4582C29.9933 35.5321 29.9608 35.6142 29.9174 35.6882C29.9283 35.6882 29.9283 35.6964 29.9391 35.6964L29.8958 35.721C29.9066 35.7128 29.9066 35.6964 29.9174 35.6882C29.4729 35.5157 29.0174 35.3514 28.5078 35.3432C28.4536 35.3432 28.4102 35.2857 28.356 35.2529C28.4102 35.22 28.4536 35.1626 28.5078 35.1626C29.0283 35.1461 29.5488 35.0969 30.0584 35.1461C30.362 35.1708 30.1235 35.3432 30.0476 35.4582ZM31.2187 33.1012C31.262 33.0519 31.3813 33.0355 31.4789 33.0109C31.4789 32.9944 31.4898 32.9862 31.4898 32.9698L31.5223 32.9944C31.5114 33.0026 31.4898 33.0026 31.4681 33.0026C31.4355 33.0766 31.4139 33.1587 31.3488 33.1915C31.2512 33.2572 31.1536 33.1751 31.2187 33.1012ZM32.2163 34.9655C31.9452 35.0969 31.6524 35.1872 31.3379 35.3104C31.2837 35.2775 31.1428 35.2283 31.1428 35.179C31.1319 34.8751 31.1319 34.5795 30.8066 34.3495C30.9042 34.3084 31.0343 34.2099 31.0885 34.2263C31.4898 34.3659 31.8801 34.522 32.2597 34.7026C32.3139 34.7191 32.2813 34.9326 32.2163 34.9655ZM40.1213 31.7133C39.6333 31.7954 39.2646 32.165 38.7007 32.0664C38.7007 32.0746 38.7116 32.0746 38.7116 32.0828C38.7007 32.0911 38.6791 32.0911 38.6682 32.0911C38.6357 32.165 38.614 32.2471 38.5489 32.2799C38.4405 32.3292 38.3429 32.2553 38.408 32.1814C38.4513 32.1321 38.5706 32.1157 38.6574 32.0911C38.6574 32.0828 38.6682 32.0664 38.6682 32.0582C38.6791 32.0582 38.6791 32.0582 38.6899 32.0582C38.6357 31.8365 38.408 31.7872 38.1477 31.7461C37.9851 31.7133 37.9417 31.5901 38.0501 31.549C38.4513 31.4094 38.8525 31.2534 39.2754 31.163C39.6224 31.0891 39.8827 31.278 40.0887 31.4751C40.2297 31.5819 40.2514 31.6886 40.1213 31.7133ZM40.1538 3.85625C40.0562 3.91374 39.9478 3.83161 40.0128 3.74949C40.0562 3.70021 40.1755 3.68379 40.2731 3.65915C40.2731 3.65093 40.2839 3.63451 40.2839 3.6263C40.2947 3.6263 40.3056 3.6263 40.3164 3.6263C40.3381 3.40456 40.5333 3.34707 40.8044 3.3635C40.8586 3.37171 40.9562 3.41277 40.9454 3.4292C40.9237 3.4949 40.8911 3.59345 40.8369 3.60166C40.6634 3.6263 40.4899 3.61808 40.3164 3.6263C40.3164 3.63451 40.3056 3.64272 40.3056 3.65094C40.2947 3.65915 40.2731 3.65915 40.2622 3.65915C40.2405 3.72485 40.2297 3.81519 40.1538 3.85625ZM41.2707 16.5857C41.1514 16.6104 41.0213 16.6186 40.8044 16.635C40.696 16.6022 40.5225 16.5447 40.349 16.4872C40.5333 16.4461 40.7068 16.3886 40.8911 16.364C41.0104 16.3476 41.1405 16.3722 41.2707 16.3968C41.3249 16.4051 41.3683 16.4625 41.4225 16.4954C41.3791 16.5282 41.3249 16.5775 41.2707 16.5857ZM43.1575 3.43741C42.843 3.67557 42.4635 3.68379 42.0839 3.55238C42.008 3.52775 41.9863 3.4292 41.943 3.34707C41.9213 3.34707 41.8996 3.34707 41.8779 3.34707C41.8779 3.33065 41.8671 3.32243 41.8562 3.30601C41.7153 3.30601 41.5851 3.28958 41.6177 3.12533C41.6177 3.11712 41.7369 3.10069 41.7478 3.10891C41.7912 3.17461 41.8237 3.24031 41.8562 3.30601C41.8779 3.30601 41.8996 3.30601 41.9213 3.30601C41.9321 3.31422 41.9321 3.33064 41.943 3.33886C42.3333 3.37171 42.6478 3.23209 42.9514 3.05963C43.0273 3.01857 43.2442 3.05142 43.3093 3.10069C43.4936 3.26494 43.2659 3.35528 43.1575 3.43741ZM44.1117 3.56881C44.0792 3.55238 44.0466 3.54417 44.0033 3.52775C44.0466 3.48668 44.0792 3.43741 44.1225 3.39635C44.1551 3.4292 44.2201 3.46205 44.2201 3.48668C44.2201 3.51953 44.1551 3.54417 44.1117 3.56881ZM45.7599 3.54417C45.7274 3.5606 45.7057 3.57702 45.6949 3.57702C45.5105 3.50311 45.5214 3.43741 45.7057 3.38813C45.7491 3.42098 45.7924 3.45383 45.8467 3.48668C45.8141 3.4949 45.7924 3.51953 45.7599 3.54417ZM48.1672 3.20746C48.1238 3.24031 48.0696 3.28958 48.0154 3.28958C47.7226 3.30601 47.419 3.31422 47.1154 3.31422C47.1154 3.32243 47.1045 3.33064 47.1045 3.33886C47.0937 3.33886 47.0828 3.33886 47.072 3.33886C47.0611 3.57702 46.8551 3.64272 46.584 3.60987C46.5406 3.60166 46.5081 3.57702 46.4756 3.54417C46.4431 3.51132 46.4105 3.47847 46.378 3.44562C46.3997 3.4292 46.4214 3.41277 46.4539 3.38813C46.4756 3.37171 46.5081 3.35528 46.5298 3.35528C46.7141 3.33886 46.8876 3.33886 47.072 3.33065C47.072 3.32243 47.072 3.31422 47.072 3.30601C47.0828 3.30601 47.0937 3.30601 47.1045 3.30601C47.137 3.08427 47.3322 3.01035 47.6033 3.03499C47.7877 3.05142 47.9612 3.08427 48.1347 3.11712C48.1672 3.13354 48.1889 3.19924 48.1672 3.20746ZM66.482 6.28717C66.2977 6.22968 66.3085 6.15577 66.4928 6.11471C66.5145 6.10649 66.5687 6.17219 66.6121 6.20504C66.5687 6.23789 66.5037 6.29538 66.482 6.28717ZM70.505 15.3703C70.4724 15.3374 70.4291 15.3046 70.3857 15.2799C70.3423 15.2471 70.3206 15.2142 70.3098 15.1814C70.2989 15.0993 70.3857 15.0171 70.4291 14.9268C70.4941 14.9843 70.5592 15.05 70.6242 15.1075C70.5917 15.1814 70.5483 15.2553 70.5158 15.3292C70.5158 15.3456 70.505 15.3538 70.505 15.3703ZM72.2616 6.58282C72.2291 6.6321 72.1857 6.77992 72.0664 6.87847C72.0014 6.93596 71.8279 6.93596 71.7086 6.91954C71.5243 6.8949 71.5243 6.8292 71.611 6.72243C71.7411 6.55818 71.8279 6.37751 71.9472 6.20504C71.9797 6.16398 72.0339 6.13113 72.0773 6.09828C72.1423 6.18041 72.2182 6.26253 72.2616 6.34466C72.2833 6.38572 72.2616 6.44321 72.2616 6.58282ZM78.5184 6.87026C78.4642 6.83741 78.3991 6.81277 78.3449 6.77992C78.3882 6.75528 78.4316 6.70601 78.4641 6.70601C78.5075 6.70601 78.5401 6.75528 78.5726 6.78814C78.5617 6.81277 78.5401 6.84562 78.5184 6.87026ZM81.0341 15.4935C81.0232 15.5509 80.8931 15.592 80.8172 15.6331C80.8064 15.6413 80.7088 15.5756 80.6979 15.5345C80.6762 15.4031 80.6871 15.2717 80.6762 15.1485C80.6654 15.1485 80.6546 15.1403 80.6437 15.1403C80.6329 15.1321 80.6329 15.1157 80.6329 15.0993C80.5353 15.0746 80.4268 15.0582 80.3835 15.0089C80.3076 14.935 80.4052 14.8529 80.5244 14.9104C80.5895 14.9432 80.6112 15.0253 80.6437 15.0993C80.6654 15.0993 80.6762 15.1075 80.6979 15.1075C80.6979 15.1157 80.6979 15.1321 80.6979 15.1403C80.9582 15.165 81.0883 15.2799 81.0341 15.4935ZM81.9775 6.46784C81.9992 6.44321 82.1943 6.46784 82.2594 6.51712C82.4004 6.60746 82.5088 6.72243 82.6281 6.8292C82.563 6.86205 82.5197 6.8949 82.4546 6.91132C82.1943 6.99345 81.9449 6.91132 81.8907 6.72243C81.8799 6.64031 81.9233 6.53355 81.9775 6.46784ZM82.7148 15.4113C82.5413 15.4442 82.3353 15.4195 82.151 15.4195V15.4278C82.0209 15.4278 81.8907 15.4524 81.7714 15.4195C81.6847 15.3949 81.6196 15.321 81.5654 15.2471C81.5546 15.2307 81.6196 15.165 81.6522 15.1239C81.9016 14.8611 82.2377 14.7872 82.6498 14.8447C82.845 14.8775 82.9751 14.9432 83.0185 15.1075C83.0727 15.321 82.8775 15.3785 82.7148 15.4113ZM84.2004 15.1075C84.1245 15.0993 84.0594 15.0089 83.9835 14.9514C84.1028 14.9186 84.2113 14.8611 84.3305 14.8693C84.4173 14.8775 84.4823 14.9679 84.5691 15.0253C84.439 15.05 84.3088 15.1075 84.2004 15.1075ZM85.6643 6.59925C85.6426 6.59103 85.6318 6.58282 85.6101 6.57461C85.5884 6.5664 85.5775 6.55818 85.5559 6.54997C85.5992 6.50891 85.6318 6.45963 85.6751 6.41857C85.7077 6.45142 85.751 6.47606 85.7836 6.50891C85.751 6.54176 85.7077 6.5664 85.6643 6.59925ZM86.2932 2.3862C86.1848 2.3862 86.0655 2.32871 85.9571 2.29586C86.033 2.24659 86.1089 2.15625 86.1956 2.14804C86.3041 2.13982 86.4125 2.20552 86.5426 2.24659C86.445 2.29586 86.3691 2.37799 86.2932 2.3862ZM89.6873 2.1891C89.7306 2.21374 89.774 2.24659 89.8065 2.27122C89.7632 2.29586 89.7198 2.3205 89.6764 2.34514C89.633 2.32871 89.5897 2.3205 89.5571 2.30407C89.6005 2.27122 89.6439 2.23016 89.6873 2.1891ZM90.0776 7.1577C89.7957 7.28089 89.4704 7.30553 89.2101 7.14949C89.1234 7.092 89.08 6.86205 89.1559 6.79635C89.3728 6.60746 89.915 6.62388 90.1752 6.78814C90.1969 6.79635 90.1969 6.82099 90.2078 6.84562C90.2078 6.87026 90.2186 6.8949 90.2186 6.91132C90.1644 7.00166 90.1535 7.12485 90.0776 7.1577ZM92.8536 2.65721C92.6909 2.70649 92.5174 2.76398 92.3873 2.60794C92.3656 2.5833 92.3656 2.52581 92.3873 2.5176C92.4958 2.48475 92.6042 2.46011 92.7126 2.43548C92.8102 2.47654 92.9078 2.52581 92.9946 2.56688C92.9403 2.59973 92.897 2.64079 92.8536 2.65721ZM93.8946 0.587648C93.6777 0.620498 93.4825 0.497309 93.591 0.415184C93.656 0.357696 93.797 0.316633 93.8946 0.324846C93.9488 0.324846 93.9922 0.349483 94.0355 0.382334C94.0789 0.406971 94.1223 0.439822 94.1765 0.464459C94.0789 0.505522 93.9922 0.571223 93.8946 0.587648ZM96.8874 0.8176C96.8657 0.834025 96.8332 0.842237 96.8115 0.85045C96.4537 0.940788 96.0416 0.875087 95.7271 1.09683C95.6295 1.17074 95.2066 0.932576 95.185 0.801174C95.1741 0.768324 95.185 0.702624 95.1958 0.694411C95.7488 0.53016 96.3018 0.53016 96.8657 0.669773C96.8874 0.677986 96.9091 0.686199 96.9199 0.710836C96.9308 0.727261 96.9525 0.743686 96.9633 0.760112C96.9416 0.784749 96.9091 0.801175 96.8874 0.8176ZM101.225 2.65721C101.181 2.65721 101.138 2.59973 101.095 2.56688C101.149 2.53403 101.192 2.47654 101.247 2.47654C101.29 2.47654 101.333 2.54224 101.377 2.5833C101.322 2.60794 101.268 2.65721 101.225 2.65721ZM105.194 2.9775C105.063 3.00214 104.933 3.01035 104.803 3.01035C104.608 3.01035 104.402 3.00214 104.207 2.99393C104.207 3.00214 104.207 3.00214 104.207 3.01035C103.882 2.98572 103.556 2.98572 103.231 2.93644C103.155 2.92823 103.068 2.7804 103.068 2.69828C103.057 2.62436 103.166 2.54224 103.22 2.46833C103.773 2.88717 104.467 2.68185 105.107 2.72291C105.194 2.73113 105.269 2.82968 105.356 2.88717C105.302 2.92002 105.259 2.96929 105.194 2.9775ZM114.974 3.47847C114.953 3.4949 114.92 3.51953 114.888 3.53596C114.855 3.55238 114.834 3.56881 114.823 3.56881C114.627 3.4949 114.638 3.4292 114.834 3.37992C114.877 3.41277 114.931 3.44562 114.974 3.47847ZM115.875 3.60166C115.766 3.60987 115.571 3.55238 115.571 3.51132C115.538 3.33064 115.755 3.3635 115.896 3.33886C115.994 3.38813 116.081 3.43741 116.178 3.47847C116.07 3.51953 115.972 3.59345 115.875 3.60166ZM117.837 2.70649C117.837 2.7147 117.826 2.72291 117.826 2.73113C117.816 2.73934 117.805 2.73934 117.794 2.74755C117.772 2.98572 117.772 3.21567 117.729 3.44562C117.707 3.59345 117.609 3.58523 117.447 3.48668C117.035 3.24031 117.002 3.16639 117.338 2.93644C117.469 2.85432 117.631 2.80504 117.783 2.73934C117.783 2.72291 117.783 2.7147 117.783 2.69828C117.816 2.70649 117.826 2.70649 117.837 2.70649C117.902 2.32871 118.282 2.43548 118.596 2.42726C118.596 2.41905 118.596 2.41084 118.607 2.40263L118.64 2.42726C118.629 2.42726 118.618 2.42726 118.596 2.42726C118.553 2.83789 118.152 2.70649 117.837 2.70649ZM134.157 3.99586C134.113 4.13548 133.983 4.20118 133.766 4.18475C133.571 4.16833 133.419 4.12726 133.419 3.93837C133.419 3.74127 133.658 3.60166 133.907 3.65915C134.103 3.71664 134.2 3.8234 134.157 3.99586ZM140.446 24.7244C140.435 24.7326 140.316 24.7244 140.316 24.7162C140.273 24.5519 140.414 24.5437 140.544 24.5355C140.555 24.5273 140.554 24.5109 140.565 24.5026L140.609 24.5355C140.587 24.5355 140.565 24.5355 140.544 24.5437C140.522 24.593 140.489 24.6587 140.446 24.7244ZM142.214 30.851C142.029 30.8756 141.834 30.8592 141.639 30.8592C141.639 30.851 141.639 30.8427 141.639 30.8345C141.379 30.8345 141.129 30.8427 140.869 30.8345C140.815 30.8345 140.706 30.7688 140.717 30.7606C140.761 30.6785 140.804 30.5882 140.88 30.5307C141.108 30.3582 141.346 30.1939 141.715 30.3746C141.867 30.4568 142.051 30.4978 142.224 30.5717C142.333 30.6128 142.441 30.6703 142.539 30.7196C142.42 30.7606 142.322 30.8345 142.214 30.851ZM146.031 30.5142C145.835 30.6292 145.629 30.8263 145.423 30.8427C144.708 30.8838 143.992 30.8592 143.276 30.851C143.135 30.851 142.962 30.6046 143.027 30.4978C143.081 30.4157 143.168 30.3007 143.255 30.3007C143.71 30.2843 144.165 30.2925 144.621 30.2925C144.621 30.2761 144.621 30.2596 144.621 30.2432C145.076 30.2679 145.521 30.2843 145.976 30.3171C146.031 30.3171 146.117 30.3664 146.128 30.3993C146.139 30.4321 146.074 30.4896 146.031 30.5142ZM147.635 30.5225C147.484 30.6785 147.408 30.8756 147.278 31.0398C147.147 31.1959 146.931 31.1466 146.768 31.0891C146.54 31.007 146.573 30.8263 146.659 30.7113C146.822 30.4978 147.028 30.3007 147.386 30.2843C147.473 30.2925 147.538 30.3007 147.592 30.3089C147.776 30.35 147.755 30.4075 147.635 30.5225ZM153.643 29.8819C153.176 30.1857 152.938 30.5635 152.873 31.0152C152.862 31.0645 152.634 31.1384 152.547 31.1138C151.539 30.8345 150.498 30.6046 149.566 30.194C149.435 30.1365 149.446 30.0625 149.598 29.9722C150.281 29.5452 150.953 29.3481 151.691 29.3645C152.374 29.2495 152.862 29.7751 153.545 29.6848C153.708 29.6683 153.762 29.7997 153.643 29.8819Z" fill="#FFA800"/>
</svg>
