<svg onmouseenter="svgAnim(this)" class="my-svg" fill="none" xmlns="http://www.w3.org/2000/svg" viewBox="0 0 32 32">
	<path d="M16 29.3c-1.8 0-3.6-.4-5.2-1.1-1.6-.7-3-1.7-4.2-2.8-1.2-1.2-2.1-2.6-2.8-4.2-.7-1.6-1-3.4-1.1-5.2 0-1.8.4-3.6 1.1-5.2.7-1.6 1.7-3 2.8-4.2 1.2-1.2 2.6-2.1 4.2-2.8s3.4-1 5.2-1.1c1.8 0 3.6.4 5.2 1.1s3 1.7 4.2 2.8c1.2 1.2 2.2 2.6 2.9 4.2.7 1.6 1.1 3.4 1 5.2 0 1.8-.4 3.6-1.1 5.2s-1.7 3-2.8 4.2c-1.2 1.2-2.6 2.2-4.2 2.9-1.6.7-3.4 1-5.2 1z" stroke="#4C85D3" stroke-width="1.4"/>
	<path d="M12 22.7h8V20h-5.3v-2.7h2.7a2.732 2.732 0 0 0 2.7-2.7V12a2.732 2.732 0 0 0-2.7-2.7H12V12h5.3v2.7h-2.7c-.7 0-1.4.3-1.9.8s-.7 1.1-.7 1.8v5.4z" stroke="#4C85D3" stroke-width="1.4"/>
	<path d="M16 26.7c3 0 5.5-1 7.6-3.1s3.1-4.6 3.1-7.6-1-5.5-3.1-7.6S19 5.3 16 5.3s-5.5 1-7.6 3.1S5.3 13 5.3 16s1 5.5 3.1 7.6 4.6 3.1 7.6 3.1z" stroke="#e49f00" stroke-width="1.4"/>
</svg>