<?xml version="1.0" encoding="utf-8"?>
<!-- Generator: Adobe Illustrator 26.0.2, SVG Export Plug-In . SVG Version: 6.00 Build 0)  -->
<svg version="1.1" id="Слой_0" xmlns="http://www.w3.org/2000/svg" xmlns:xlink="http://www.w3.org/1999/xlink" x="0px" y="0px"
	 viewBox="0 0 21.9 18.1" style="enable-background:new 0 0 21.9 18.1;" xml:space="preserve">
<style type="text/css">
	.st0{fill:none;stroke:#000000;stroke-width:0.5;}
</style>
<path class="st0" d="M14.2,11.5c-0.1-0.1-0.1-0.1-0.3-0.1c-0.1,0-0.2,0.1-0.3,0.2c-0.5,0.6-1,1-1.5,1.2c-0.5,0.3-1.1,0.4-1.7,0.4
	c-0.5,0-1-0.1-1.4-0.3c0.3-0.2,0.5-0.4,0.6-0.7c0.2-0.4,0.4-0.9,0.4-1.3c0-0.6-0.2-1.1-0.5-1.5S8.5,8.5,7.8,8.3
	c1-0.6,1.5-1.3,1.5-2.2c0-0.7-0.3-1.3-0.8-1.8c0,0,0,0,0.1,0C9,4,9.5,3.9,10.1,3.9c0.9,0,1.6,0.3,2.3,0.8c0.5,0.4,0.8,0.8,0.8,1.3
	c0,0.2,0.1,0.3,0.1,0.3c0.1,0.1,0.2,0.1,0.2,0.1c0.1,0,0.2,0,0.3-0.1S14,6.1,14,5.9v-2c0-0.2,0-0.3-0.1-0.4s-0.2-0.1-0.3-0.1
	s-0.2,0-0.3,0.1c-0.1,0.1-0.1,0.2-0.1,0.4v0.5c-0.9-0.8-1.9-1.2-3.1-1.2c-0.8,0-1.5,0.2-2.2,0.6c0,0-0.1,0-0.1,0.1
	c-0.5-0.3-1-0.4-1.7-0.4H1.5c-0.2,0-0.3,0-0.4,0.1S1,3.7,1,3.8S1,4,1.1,4.1s0.2,0.1,0.4,0.1h1V13h-1c-0.2,0-0.3,0-0.4,0.1
	S1,13.2,1,13.3c0,0.1,0,0.2,0.1,0.3s0.2,0.1,0.4,0.1H7c0.5,0,0.9-0.1,1.3-0.3c0.2,0.1,0.4,0.2,0.6,0.3c0.6,0.2,1.1,0.3,1.6,0.3
	c0.6,0,1.2-0.1,1.8-0.4c0.6-0.3,1.1-0.7,1.6-1.2c0.3-0.3,0.4-0.5,0.4-0.6C14.3,11.6,14.2,11.5,14.2,11.5z M8.8,9.8
	c0.3,0.4,0.4,0.7,0.4,1.1c0,0.3-0.1,0.7-0.3,1c-0.2,0.3-0.4,0.5-0.7,0.7c-0.2-0.2-0.4-0.3-0.6-0.5c-0.8-0.8-1.2-1.8-1.2-2.9V8.8
	c0.5,0,1,0.1,1.3,0.3C8.2,9.2,8.6,9.5,8.8,9.8z M8.5,6c0,0.3-0.1,0.6-0.3,0.9S7.7,7.5,7.3,7.7C7.1,7.8,6.8,7.9,6.4,7.9V7.8
	c0-0.5,0.1-1,0.2-1.4c0.2-0.6,0.5-1.1,0.9-1.5c0.1-0.1,0.1-0.1,0.2-0.2C8.2,5.1,8.5,5.6,8.5,6z M3.2,4.2h2.9c0.4,0,0.7,0.1,1,0.2
	C6.8,4.7,6.5,5.1,6.3,5.5C5.9,6.3,5.7,7,5.7,7.7V8H3.2V4.2z M6.9,13H3.2V8.7h2.5v0.5c0,0.5,0.1,1,0.2,1.4c0.1,0.4,0.4,0.9,0.8,1.4
	c0.3,0.4,0.6,0.6,0.8,0.9C7.3,12.9,7.1,13,6.9,13z"/>
</svg>
