<?xml version="1.0" encoding="utf-8"?>
<!-- Generator: Adobe Illustrator 26.0.2, SVG Export Plug-In . SVG Version: 6.00 Build 0)  -->
<svg version="1.1" id="bd909196-ea43-4cf9-8aa1-1c4b5a818857"
	 xmlns="http://www.w3.org/2000/svg" xmlns:xlink="http://www.w3.org/1999/xlink" x="0px" y="0px" viewBox="0 0 21.9 18.1"
	 style="enable-background:new 0 0 21.9 18.1;" xml:space="preserve">
<style type="text/css">
	.st0{fill:none;stroke:#000000;stroke-width:0.5;stroke-miterlimit:10;}
	.st1{fill:none;stroke:#000000;stroke-width:0.5;}
</style>
<g>
	<path class="st0" d="M14.2,5c0-1.2-0.5-2.3-1.4-3.1C11.7,1,10.4,0.5,9,0.6H1.4c-0.2,0-0.4,0-0.6,0.2C0.6,0.8,0.6,1,0.6,1.2
		c0,0.2,0.1,0.3,0.2,0.4c0.2,0.1,0.4,0.2,0.6,0.2H3v6.8h8.8C13.2,7.9,14.1,6.5,14.2,5z"/>
	<path class="st0" d="M14.6,10.4c-0.7-0.9-1.7-1.5-2.8-1.8H3v7.8H1.4c-0.2,0-0.4,0-0.6,0.2c0,0,0,0,0,0c-0.2,0.2-0.2,0.6,0,0.9
		c0.2,0.1,0.4,0.2,0.6,0.2h9.1c0.9,0,1.8-0.2,2.6-0.7c0.7-0.4,1.3-1,1.8-1.7c0.4-0.7,0.6-1.4,0.6-2.2C15.5,12,15.2,11.1,14.6,10.4z"
		/>
</g>
<path class="st1" d="M21.3,13.1c-0.7,1.2-1.7,2.2-2.9,2.9c-1.2,0.7-2.6,1-4,1c-2.1,0-3.9-0.7-5.5-2.2c-1.6-1.5-2.4-3.4-2.4-5.7
	c0-2.3,0.8-4.3,2.4-5.8s3.4-2.2,5.5-2.2c1.4,0,2.7,0.3,4,1c1.2,0.7,2.2,1.7,2.9,2.9"/>
</svg>
