<?xml version="1.0" encoding="utf-8"?>
<!-- Generator: Adobe Illustrator 26.0.2, SVG Export Plug-In . SVG Version: 6.00 Build 0)  -->
<svg version="1.1" id="Слой_1" xmlns="http://www.w3.org/2000/svg" xmlns:xlink="http://www.w3.org/1999/xlink" x="0px" y="0px"
	 viewBox="0 0 163.3 163.3" style="enable-background:new 0 0 163.3 163.3;" xml:space="preserve">
<style type="text/css">
	.st0{fill-rule:evenodd;clip-rule:evenodd;fill:#FFFFFF;stroke:#4C85D3;stroke-width:3;stroke-miterlimit:10;}
	.st1{fill-rule:evenodd;clip-rule:evenodd;fill:#FFFFFF;stroke:#FFFFFF;stroke-width:3;stroke-miterlimit:10;}
</style>
<path class="st0" d="M43.1,6.2c0,2.3-0.3,2.6-2.6,2.6s-2.6,0.2-2.6,3s0.2,3,2.6,3c2.3,0,2.6,0.3,2.6,2.6s0.2,2.6,3,2.6
	c2.7,0,3-0.2,3-2.6c0-2.3,0.3-2.6,2.6-2.6s2.6-0.2,2.6-3s-0.2-3-2.6-3c-2.3,0-2.6-0.3-2.6-2.6C49,3.8,48.8,3.6,46,3.6
	C43.3,3.6,43.1,3.8,43.1,6.2"/>
<path class="st1" d="M82.6,2.7c-1,0.7-0.8,3.5,1.5,19.8c1.5,10.4,2.7,22.2,2.7,26.2c0,4.5,0.4,7.7,1,8.3c0.7,0.7,4.9,1,13.2,1h12.2
	v40h-2.6c-3.5,0-7.6,4-7.6,7.5s3.6,7.6,7.3,8.3c2.5,0.5,2.9,0.9,2.9,3v2.5h-8.9c-8.7,0-8.9-0.1-8.9-1.9c0-3.5,1.8-30,2.2-32.7
	c0.3-2.2,0.9-2.8,2.7-3c2.3-0.3,2.3-0.3,2.6-7.4c0.2-5.2-0.1-7.4-0.9-7.9c-0.6-0.4-5.4-0.7-10.6-0.7h-9.5l-1-3.1
	c-0.6-1.7-2.7-4.8-4.7-6.9c-3.6-3.8-3.7-4-2.8-7.2c1.5-5.5-0.9-13.4-5.3-17.4c-4.7-4.3-11.9-6.1-17.7-4.6
	c-4.7,1.3-10.6,6.8-12.4,11.6c-1.3,3.5-1.6,3.8-4.6,3.8c-9.3,0-18.6,5.9-22.9,14.5c-1.6,2.9-2.7,6.2-2.7,7.3c0,1.5-0.5,2-2,2
	c-3.2,0-4,1.6-4,7.8c0,7.2,0.5,8.4,3.3,8.4h2.3l2.4,38c1.3,20.9,2.8,38.9,3.1,40l0.7,1.9h73c55.6,0,73.2-0.2,74-1s1-8.3,1-28.7
	c0-26-0.1-27.8-1.7-30.4c-0.9-1.5-2.5-2.9-3.6-3.2c-1.1-0.3-7.5-0.5-14.3-0.7l-12.2-0.2l-0.2-19.8L129.4,58H142
	c8.7,0,12.9-0.3,13.6-1c0.7-0.7,1-4,1-9.3c0-4.7,1.1-15.9,2.6-25.9c1.9-13.3,2.3-17.9,1.6-18.8c-0.8-0.9-8-1.2-38.9-1.1
	C100.6,1.9,83.3,2.3,82.6,2.7"/>
<path class="st0" d="M87.7,8.2c0,0.2,1,6.9,2.1,15s2.1,15,2.1,15.4c0,0.4,12.4,0.8,29.6,0.8h29.6l1.9-14.2
	c1.1-7.8,2.1-14.9,2.4-15.7c0.4-1.3-0.2-1.5-4.7-1.5h-5.2v15.4h-5.2V7.9h-2.6c-2.5,0-2.6,0.1-2.6,3.8c0,3.8,0,3.8-3,3.8s-3,0-3-3.8
	V7.9h-15.4v2.6c0,2.3-0.2,2.6-3,2.6s-3-0.2-3-2.6c0-2.3-0.3-2.6-2.6-2.6h-2.6v15.4h-5.2V7.9h-4.5C90,7.9,87.7,8,87.7,8.2"/>
<path class="st0" d="M48.8,33.2c-3,1.6-4.8,3.8-6.1,7.3c-0.8,2.1-0.6,2.3,3.4,4.4c2.3,1.2,4.2,2.4,4.2,2.8c0,0.4-0.6,1.5-1.3,2.5
	L47.7,52l-4.2-2.1c-5.2-2.6-13.2-2.8-18.4-0.5c-5.7,2.6-10.4,8.1-11.8,13.9l-0.5,2.4h6c5,0,6.1,0.3,6.8,1.6c0.5,1,0.9,9.4,0.9,21.3
	v19.6h4.2l0.3-12l0.3-12l2.8-2.5c3.6-3.2,7-3.2,10.5-0.1c2.3,2,2.7,3.1,3.1,7.7c0.4,4.9,0.6,5.3,2.5,5.3h2V81.8
	c0-7.2,0.4-13.5,0.9-14.5c0.8-1.5,1.9-1.6,11.9-1.6c9.6,0,11-0.2,11-1.4c0-1.4-4.8-6.3-8.6-8.9c-2-1.4-2-1.4-0.6-4.5
	c4.4-9.2-1.5-19.3-11.3-19.2C53.3,31.7,50.3,32.4,48.8,33.2 M119.2,78v20h5.2V58h-5.2V78 M13.2,87.2c0.3,2.9,1.3,17.2,2.2,31.7
	c0.9,14.5,1.9,28.8,2.2,31.7l0.5,5.3h58.6l-0.1-15.8l-0.1-15.8l2.3-2.4c1.9-2,3-2.4,6.4-2.4h4l0.5-4.5c0.5-4.5,2.2-29.3,2.2-31.7
	c0-1.1-2.6-1.3-17-1.3h-17v5.9c0,6.9-1.1,9.9-4.4,11.6c-2.9,1.5-4.2,1.5-7.1,0.2c-3-1.4-4.7-4.9-4.7-9.9c0-4.3-1.1-5.7-3.8-4.7
	c-1,0.4-1.3,2.5-1.3,11.9c0,11.3,0,11.4-2.4,14.1c-3.4,3.8-7.8,3.8-11.3,0l-2.4-2.7V81.8h-7.8L13.2,87.2 M109.1,104.3
	c-0.5,0.6-0.7,1.8-0.4,2.6c0.5,1.2,2.6,1.4,17.9,1.4c18.4,0,21.3,0.5,23.2,4.2c1.5,2.8,1,6.6-1.2,9.1l-2.1,2.4l-32.2,0.4l-32.2,0.4
	l-0.3,2.3l-0.3,2.3h74.3l-0.2-13l-0.2-13l-22.6-0.2C114.2,103.1,109.9,103.3,109.1,104.3 M119.2,116.7c0,2.3,0.3,2.6,2.6,2.6
	s2.6-0.3,2.6-2.6s-0.3-2.6-2.6-2.6S119.2,114.4,119.2,116.7 M129.5,116.5c0.3,2.3,0.3,2.3,7.2,2.6c7.2,0.3,9.6-0.8,8.5-3.6
	c-0.4-1-2.1-1.3-8.2-1.3h-7.7L129.5,116.5"/>
<path class="st0" d="M81.7,145.6v10.2h7.6V143h6v12.8h7.6V143h5.2v12.8h7.6V143h6v12.8h7.6V143h6v12.8h7.6V143h5.2v12.8h7.6v-20.4
	h-74L81.7,145.6"/>
<path class="st0" d="M11.2,22.6c0,2.3-0.3,2.6-2.6,2.6S6,25.4,6,28.2s0.2,3,2.6,3c2.3,0,2.6,0.3,2.6,2.6s0.2,2.6,3,2.6s3-0.2,3-2.6
	c0-2.3,0.3-2.6,2.6-2.6s2.6-0.2,2.6-3s-0.2-3-2.6-3c-2.3,0-2.6-0.3-2.6-2.6S17,20,14.2,20S11.2,20.3,11.2,22.6"/>
<path class="st0" d="M146.7,72.7c0,2.8-0.2,3-2.6,3c-2.3,0-2.6,0.3-2.6,2.6s0.3,2.6,2.6,2.6s2.6,0.3,2.6,2.6c0,2.3,0.2,2.6,3,2.6
	c2.7,0,3-0.2,3-2.6c0-2.3,0.3-2.6,2.6-2.6s2.6-0.3,2.6-2.6c0-2.3-0.3-2.6-2.5-2.6s-2.5-0.3-2.8-2.8c-0.2-2.4-0.6-2.8-3-3
	C146.8,69.7,146.7,69.8,146.7,72.7"/>
<path class="st0" d="M92.7,48.5v3.4h57.8v-6.8H92.7V48.5"/>
<path class="st0" d="M57.7,74.1v2.6l19.8-0.2l19.8-0.2l0.3-2.3l0.3-2.3h-40v2.4"/>
<path class="st0" d="M7.8,74.2v2.6h12.8v-5.2H7.8L7.8,74.2"/>
<path class="st0" d="M97.9,31.7c0,2.7,0.2,3,2.6,3s2.6-0.2,2.6-3s-0.2-3-2.6-3S97.9,29,97.9,31.7"/>
</svg>
