<?xml version="1.0" encoding="utf-8"?>
<!-- Generator: Adobe Illustrator 26.0.2, SVG Export Plug-In . SVG Version: 6.00 Build 0)  -->
<svg version="1.1" id="Слой_1" xmlns="http://www.w3.org/2000/svg" xmlns:xlink="http://www.w3.org/1999/xlink" x="0px" y="0px"
	 viewBox="0 0 27 26.9" style="enable-background:new 0 0 27 26.9;" xml:space="preserve">
<path d="M25.7,19.9c-0.4,3.4-3.3,5.9-6.7,5.9c-9.8,0-17.8-8-17.8-17.8c0-3.4,2.5-6.3,5.9-6.7c0.8-0.1,1.5,0.3,1.8,1l2.6,5.9
	c0.2,0.5,0.2,1.2-0.1,1.7c0,0,0,0-0.1,0.1l-2.6,3.1c0,0.1,0,0.1,0,0.2c1,2,3,4,5,5c0.1,0,0.1,0,0.2,0l3.1-2.6c0,0,0,0,0.1-0.1
	c0.5-0.3,1.1-0.4,1.7-0.2l5.9,2.6C25.4,18.4,25.8,19.1,25.7,19.9L25.7,19.9z M24.2,19.7c0-0.1-0.1-0.2-0.2-0.2l-5.9-2.6
	c-0.1,0-0.1,0-0.2,0l-3.1,2.6c0,0,0,0-0.1,0.1c-0.5,0.3-1.2,0.4-1.7,0.1c-2.3-1.1-4.6-3.4-5.7-5.6c-0.3-0.6-0.2-1.2,0.1-1.7
	c0,0,0,0,0.1-0.1L10.2,9c0-0.1,0-0.1,0-0.2L7.6,2.9c0-0.1-0.1-0.2-0.2-0.2h0C4.7,3.1,2.7,5.4,2.8,8c0,9,7.3,16.2,16.2,16.2
	C21.7,24.3,23.9,22.3,24.2,19.7z"/>
<path d="M16.5,2.6C16.6,2.2,17,1.9,17.4,2c0,0,0,0,0,0C21.1,3,24,5.9,25,9.6c0.1,0.4-0.1,0.8-0.5,0.9c0,0,0,0,0,0
	c-0.1,0-0.1,0-0.2,0c-0.3,0-0.6-0.2-0.7-0.6c-0.8-3.2-3.3-5.6-6.5-6.5C16.7,3.4,16.4,3,16.5,2.6C16.5,2.6,16.5,2.6,16.5,2.6z"/>
<path d="M15.8,7.7c1.8,0.5,3,1.6,3.5,3.5c0.1,0.3,0.4,0.6,0.7,0.6c0.1,0,0.1,0,0.2,0c0.4-0.1,0.6-0.5,0.5-0.9c0,0,0,0,0,0
	c-0.6-2.3-2.2-3.9-4.5-4.5c-0.4-0.1-0.8,0.1-0.9,0.5C15.2,7.2,15.4,7.6,15.8,7.7z"/>
</svg>
