<svg width="136" height="46" viewBox="0 0 136 46" fill="none" xmlns="http://www.w3.org/2000/svg">
<path d="M52.165 37.348C50.1157 37.348 48.3563 36.913 46.887 36.043C45.4177 35.1537 44.2867 33.926 43.494 32.36C42.7013 30.7747 42.305 28.9477 42.305 26.879C42.305 24.8103 42.7013 22.9833 43.494 21.398C44.2867 19.8127 45.4177 18.5753 46.887 17.686C48.3563 16.7967 50.1157 16.352 52.165 16.352C54.601 16.352 56.5923 16.961 58.139 18.179C59.705 19.3777 60.6813 21.0693 61.068 23.254H56.979C56.7277 22.152 56.1863 21.2917 55.355 20.673C54.543 20.035 53.4603 19.716 52.107 19.716C50.2317 19.716 48.7623 20.354 47.699 21.63C46.6357 22.906 46.104 24.6557 46.104 26.879C46.104 29.1023 46.6357 30.852 47.699 32.128C48.7623 33.3847 50.2317 34.013 52.107 34.013C53.4603 34.013 54.543 33.723 55.355 33.143C56.1863 32.5437 56.7277 31.722 56.979 30.678H61.068C60.6813 32.766 59.705 34.3997 58.139 35.579C56.5923 36.7583 54.601 37.348 52.165 37.348ZM65.7168 37V16.12H69.4288V37H65.7168ZM76.6727 20.383C75.9961 20.383 75.4354 20.18 74.9907 19.774C74.5654 19.368 74.3527 18.8557 74.3527 18.237C74.3527 17.6183 74.5654 17.1157 74.9907 16.729C75.4354 16.323 75.9961 16.12 76.6727 16.12C77.3494 16.12 77.9004 16.323 78.3257 16.729C78.7704 17.1157 78.9927 17.6183 78.9927 18.237C78.9927 18.8557 78.7704 19.368 78.3257 19.774C77.9004 20.18 77.3494 20.383 76.6727 20.383ZM74.8167 37V22.616H78.5287V37H74.8167ZM109.849 37.348C108.457 37.348 107.2 37.029 106.079 36.391C104.977 35.753 104.097 34.8733 103.44 33.752C102.802 32.6113 102.483 31.2967 102.483 29.808C102.483 28.3193 102.811 27.0143 103.469 25.893C104.126 24.7523 105.006 23.863 106.108 23.225C107.229 22.587 108.486 22.268 109.878 22.268C111.25 22.268 112.488 22.587 113.59 23.225C114.711 23.863 115.591 24.7523 116.229 25.893C116.886 27.0143 117.215 28.3193 117.215 29.808C117.215 31.2967 116.886 32.6113 116.229 33.752C115.591 34.8733 114.711 35.753 113.59 36.391C112.468 37.029 111.221 37.348 109.849 37.348ZM109.849 34.129C110.815 34.129 111.656 33.7713 112.372 33.056C113.087 32.3213 113.445 31.2387 113.445 29.808C113.445 28.3773 113.087 27.3043 112.372 26.589C111.656 25.8543 110.825 25.487 109.878 25.487C108.892 25.487 108.041 25.8543 107.326 26.589C106.63 27.3043 106.282 28.3773 106.282 29.808C106.282 31.2387 106.63 32.3213 107.326 33.056C108.041 33.7713 108.882 34.129 109.849 34.129ZM119.856 37L125.076 29.808L119.856 22.616H123.829L127.483 27.72L131.108 22.616H135.11L129.861 29.808L135.11 37H131.108L127.483 31.896L123.829 37H119.856Z" fill="black"/>
<path d="M83.8532 37V22.616H87.1302L87.4202 25.052C87.8648 24.2013 88.5028 23.5247 89.3342 23.022C90.1848 22.5193 91.1805 22.268 92.3212 22.268C94.0998 22.268 95.4822 22.8287 96.4682 23.95C97.4542 25.0713 97.9472 26.7147 97.9472 28.88V37H94.2352V29.228C94.2352 27.9907 93.9838 27.0433 93.4812 26.386C92.9785 25.7287 92.1955 25.4 91.1322 25.4C90.0882 25.4 89.2278 25.7673 88.5512 26.502C87.8938 27.2367 87.5652 28.2613 87.5652 29.576V37H83.8532Z" fill="#FFA41C"/>
<mask id="mask0_275_3192" style="mask-type:alpha" maskUnits="userSpaceOnUse" x="17" y="0" width="7" height="31">
<path d="M17.0107 0H23.2767V30.6064H17.0107V0Z" fill="black"/>
</mask>
<g mask="url(#mask0_275_3192)">
<mask id="mask1_275_3192" style="mask-type:alpha" maskUnits="userSpaceOnUse" x="17" y="0" width="6" height="31">
<path d="M17.2129 20.6181V30.5748C19.023 29.2932 21.1047 27.901 22.8658 27.3837C22.9113 27.3702 22.9486 27.3602 22.9917 27.3479V7.10827L17.2129 0.257812V20.6181Z" fill="black"/>
</mask>
<g mask="url(#mask1_275_3192)">
<mask id="mask2_275_3192" style="mask-type:alpha" maskUnits="userSpaceOnUse" x="17" y="0" width="6" height="31">
<path d="M17.2129 20.6181V30.5748C19.023 29.2932 21.1047 27.901 22.8658 27.3837C22.9113 27.3702 22.9486 27.3602 22.9917 27.3479V7.10827L17.2129 0.257812" fill="black"/>
</mask>
<g mask="url(#mask2_275_3192)">
<path d="M4.44922 24.3571L21.8089 32.8065L35.7594 6.465L18.3985 -1.98438L4.44922 24.3571Z" fill="#0E3D4B"/>
</g>
</g>
</g>
<mask id="mask3_275_3192" style="mask-type:alpha" maskUnits="userSpaceOnUse" x="17" y="34" width="7" height="9">
<path d="M17.0107 34.8906H23.2767V42.3277H17.0107V34.8906Z" fill="black"/>
</mask>
<g mask="url(#mask3_275_3192)">
<mask id="mask4_275_3192" style="mask-type:alpha" maskUnits="userSpaceOnUse" x="17" y="35" width="6" height="8">
<path d="M17.2129 35.1139V39.1285C18.5533 39.2258 20.1128 39.2995 21.2317 40.047C22.0942 40.6236 22.6642 41.332 22.9917 42.1867V36.0894C22.0091 35.7743 20.7119 35.6826 19.9706 35.3541C19.4484 35.1229 18.8715 35.0469 18.284 35.0469C17.9285 35.0469 17.5684 35.0748 17.2129 35.1139Z" fill="black"/>
</mask>
<g mask="url(#mask4_275_3192)">
<mask id="mask5_275_3192" style="mask-type:alpha" maskUnits="userSpaceOnUse" x="17" y="35" width="6" height="8">
<path d="M17.2129 35.1139V39.1285C18.5533 39.2258 20.1128 39.2995 21.2317 40.047C22.0942 40.6236 22.6642 41.332 22.9917 42.1867V36.0894C22.0091 35.7743 20.7119 35.6826 19.9706 35.3541C19.4484 35.1229 18.8715 35.0469 18.284 35.0469C17.9285 35.0469 17.5684 35.0748 17.2129 35.1139Z" fill="black"/>
</mask>
<g mask="url(#mask5_275_3192)">
<path d="M14.208 40.7334L21.8086 44.4318L25.9999 36.5187L18.3982 32.8203L14.208 40.7334Z" fill="#D6DADB"/>
</g>
</g>
</g>
<mask id="mask6_275_3192" style="mask-type:alpha" maskUnits="userSpaceOnUse" x="9" y="35" width="7" height="5">
<path d="M9.5498 35.1719H15.5174V39.4625H9.5498V35.1719Z" fill="black"/>
</mask>
<g mask="url(#mask6_275_3192)">
<mask id="mask7_275_3192" style="mask-type:alpha" maskUnits="userSpaceOnUse" x="9" y="35" width="7" height="5">
<path d="M12.6103 36.1526C11.6219 36.4119 10.6837 36.6275 9.72559 36.756V39.2186C10.8503 39.3069 11.9833 39.3047 13.1162 39.2589C13.8971 39.2276 14.7037 39.1684 15.5044 39.1404V35.3984C14.5335 35.5951 13.5568 35.9046 12.6103 36.1526Z" fill="black"/>
</mask>
<g mask="url(#mask7_275_3192)">
<mask id="mask8_275_3192" style="mask-type:alpha" maskUnits="userSpaceOnUse" x="9" y="35" width="7" height="5">
<path d="M12.6103 36.1526C11.6219 36.4119 10.6837 36.6275 9.72559 36.756V39.2186C10.8503 39.3069 11.9833 39.3047 13.1162 39.2589C13.8971 39.2276 14.7037 39.1684 15.5044 39.1404V35.3984C14.5335 35.5951 13.5568 35.9046 12.6103 36.1526Z" fill="black"/>
</mask>
<g mask="url(#mask8_275_3192)">
<path d="M8.07617 38.5005L14.3165 41.5375L17.1465 36.1932L10.9061 33.1562L8.07617 38.5005Z" fill="#FFA41C"/>
</g>
</g>
</g>
<mask id="mask9_275_3192" style="mask-type:alpha" maskUnits="userSpaceOnUse" x="9" y="10" width="7" height="25">
<path d="M9.5498 10.5781H15.5174V34.6056H9.5498V10.5781Z" fill="black"/>
</mask>
<g mask="url(#mask9_275_3192)">
<mask id="mask10_275_3192" style="mask-type:alpha" maskUnits="userSpaceOnUse" x="9" y="10" width="7" height="25">
<path d="M9.72559 17.6016V34.3316C11.6674 33.9327 13.5101 33.164 15.1909 32.0019C15.2923 31.9316 15.3983 31.8567 15.5044 31.7829V10.75L9.72559 17.6016Z" fill="black"/>
</mask>
<g mask="url(#mask10_275_3192)">
<mask id="mask11_275_3192" style="mask-type:alpha" maskUnits="userSpaceOnUse" x="9" y="10" width="7" height="25">
<path d="M9.72559 17.6016V34.3316C11.6674 33.9327 13.5101 33.164 15.1909 32.0019C15.2923 31.9316 15.3983 31.8567 15.5044 31.7829V10.75" fill="black"/>
</mask>
<g mask="url(#mask11_275_3192)">
<path d="M-0.207031 29.5083L14.3169 36.5767L25.4304 15.5918L10.9065 8.52344L-0.207031 29.5083Z" fill="#FFA41C"/>
</g>
</g>
</g>
<mask id="mask12_275_3192" style="mask-type:alpha" maskUnits="userSpaceOnUse" x="2" y="18" width="7" height="17">
<path d="M2.0918 18.5938H8.05942V34.8981H2.0918V18.5938Z" fill="black"/>
</mask>
<g mask="url(#mask12_275_3192)">
<mask id="mask13_275_3192" style="mask-type:alpha" maskUnits="userSpaceOnUse" x="2" y="18" width="7" height="17">
<path d="M2.27441 25.4598V33.4801C3.53437 34.488 5.08106 34.6981 6.96226 34.6511C7.32824 34.6422 7.6919 34.6198 8.05322 34.5863V18.6094L2.27441 25.4598Z" fill="black"/>
</mask>
<g mask="url(#mask13_275_3192)">
<mask id="mask14_275_3192" style="mask-type:alpha" maskUnits="userSpaceOnUse" x="2" y="18" width="7" height="17">
<path d="M2.27441 25.4598V33.4801C3.53437 34.488 5.08106 34.6981 6.96226 34.6511C7.32824 34.6422 7.6919 34.6198 8.05322 34.5863V18.6094" fill="black"/>
</mask>
<g mask="url(#mask14_275_3192)">
<path d="M-4.50098 31.4022L6.86781 36.9353L14.8262 21.9081L3.45741 16.375L-4.50098 31.4022Z" fill="#0E3D4B"/>
</g>
</g>
</g>
<mask id="mask15_275_3192" style="mask-type:alpha" maskUnits="userSpaceOnUse" x="2" y="35" width="7" height="5">
<path d="M2.0918 35.1719H8.05942V39.1764H2.0918V35.1719Z" fill="black"/>
</mask>
<g mask="url(#mask15_275_3192)">
<mask id="mask16_275_3192" style="mask-type:alpha" maskUnits="userSpaceOnUse" x="2" y="35" width="7" height="4">
<path d="M2.27441 36.5023C3.56584 37.8934 5.37245 38.4063 7.35039 38.8499C7.5835 38.9024 7.81778 38.9493 8.05322 38.9907V36.8554C7.90053 36.8577 7.74901 36.8599 7.59399 36.8554C5.66733 36.8052 3.77215 36.6521 2.27441 35.4219V36.5023Z" fill="black"/>
</mask>
<g mask="url(#mask16_275_3192)">
<mask id="mask17_275_3192" style="mask-type:alpha" maskUnits="userSpaceOnUse" x="2" y="35" width="7" height="4">
<path d="M2.27441 36.5023C3.56584 37.8934 5.37245 38.4063 7.35039 38.8499C7.5835 38.9024 7.81778 38.9493 8.05322 38.9907V36.8554C7.90053 36.8577 7.74901 36.8599 7.59399 36.8554C5.66733 36.8052 3.77215 36.6521 2.27441 35.4219" fill="black"/>
</mask>
<g mask="url(#mask17_275_3192)">
<path d="M0.772461 38.2536L6.86946 41.2212L9.55605 36.1474L3.45906 33.1797L0.772461 38.2536Z" fill="#FFA41C"/>
</g>
</g>
</g>
<mask id="mask18_275_3192" style="mask-type:alpha" maskUnits="userSpaceOnUse" x="24" y="30" width="10" height="10">
<path d="M24.4668 30.3203H33.7166V39.7597H24.4668V30.3203Z" fill="black"/>
</mask>
<g mask="url(#mask18_275_3192)">
<mask id="mask19_275_3192" style="mask-type:alpha" maskUnits="userSpaceOnUse" x="24" y="30" width="10" height="10">
<path d="M24.668 39.1839L25.7344 39.6744L33.5833 31.5949L32.997 30.6094L24.668 39.1839Z" fill="black"/>
</mask>
<g mask="url(#mask19_275_3192)">
<mask id="mask20_275_3192" style="mask-type:alpha" maskUnits="userSpaceOnUse" x="24" y="30" width="10" height="10">
<path d="M24.668 39.1839L25.7344 39.6744L33.5833 31.5949L32.997 30.6094L24.668 39.1839Z" fill="black"/>
</mask>
<g mask="url(#mask20_275_3192)">
<path d="M24.69 40.0503L34.0074 39.6525L33.5703 30.2266L24.2529 30.6232L24.69 40.0503Z" fill="#0E3D4B"/>
</g>
</g>
</g>
<mask id="mask21_275_3192" style="mask-type:alpha" maskUnits="userSpaceOnUse" x="25" y="31" width="11" height="11">
<path d="M25.958 31.7578H35.2078V41.1972H25.958V31.7578Z" fill="black"/>
</mask>
<g mask="url(#mask21_275_3192)">
<mask id="mask22_275_3192" style="mask-type:alpha" maskUnits="userSpaceOnUse" x="26" y="31" width="10" height="10">
<path d="M26.0186 39.9088L26.8368 40.6384C27.261 41.0161 27.9231 40.9937 28.3182 40.5881L34.738 33.9779C35.1332 33.5712 35.1099 32.9365 34.6868 32.5589L33.8685 31.8281L26.0186 39.9088Z" fill="black"/>
</mask>
<g mask="url(#mask22_275_3192)">
<mask id="mask23_275_3192" style="mask-type:alpha" maskUnits="userSpaceOnUse" x="26" y="31" width="10" height="10">
<path d="M26.0186 39.9088L26.8368 40.6384C27.261 41.0161 27.9231 40.9937 28.3182 40.5881L34.738 33.9779C35.1332 33.5712 35.1099 32.9365 34.6868 32.5589L33.8685 31.8281" fill="black"/>
</mask>
<g mask="url(#mask23_275_3192)">
<path d="M26.0357 41.4009L35.5571 40.9953L35.1142 31.4375L25.5928 31.8431L26.0357 41.4009Z" fill="#FFA41C"/>
</g>
</g>
</g>
<mask id="mask24_275_3192" style="mask-type:alpha" maskUnits="userSpaceOnUse" x="31" y="36" width="6" height="7">
<path d="M31.0322 36.8984H36.9998V42.3332H31.0322V36.8984Z" fill="black"/>
</mask>
<g mask="url(#mask24_275_3192)">
<mask id="mask25_275_3192" style="mask-type:alpha" maskUnits="userSpaceOnUse" x="31" y="37" width="6" height="6">
<path d="M31.2773 37.5318L35.7437 42.0292C36.0095 42.3197 36.3813 42.1923 36.6867 41.8783C36.992 41.5643 37.0981 41.2001 36.7764 40.9666L31.7785 37.0156L31.2773 37.5318Z" fill="black"/>
</mask>
<g mask="url(#mask25_275_3192)">
<mask id="mask26_275_3192" style="mask-type:alpha" maskUnits="userSpaceOnUse" x="31" y="37" width="6" height="6">
<path d="M31.2773 37.5318L35.7437 42.0292C36.0095 42.3197 36.3813 42.1923 36.6867 41.8783C36.992 41.5643 37.0981 41.2001 36.7764 40.9666L31.7785 37.0156" fill="black"/>
</mask>
<g mask="url(#mask26_275_3192)">
<path d="M31.2867 42.558L37.3417 42.2999L37.0841 36.7578L31.0303 37.0159L31.2867 42.558Z" fill="#0E3D4B"/>
</g>
</g>
</g>
<mask id="mask27_275_3192" style="mask-type:alpha" maskUnits="userSpaceOnUse" x="24" y="23" width="4" height="4">
<path d="M24 23.1484H27.2822V26.5809H24V23.1484Z" fill="black"/>
</mask>
<g mask="url(#mask27_275_3192)">
<mask id="mask28_275_3192" style="mask-type:alpha" maskUnits="userSpaceOnUse" x="24" y="23" width="4" height="4">
<path d="M24.0098 24.9258C24.8851 24.9258 25.5949 25.6063 25.5949 26.4466C25.5949 25.6063 26.3059 24.9258 27.1812 24.9258C26.3059 24.9258 25.5949 24.2454 25.5949 23.4062C25.5949 24.2454 24.8851 24.9258 24.0098 24.9258Z" fill="black"/>
</mask>
<g mask="url(#mask28_275_3192)">
<mask id="mask29_275_3192" style="mask-type:alpha" maskUnits="userSpaceOnUse" x="24" y="23" width="4" height="4">
<path d="M24.0098 24.9258C24.8851 24.9258 25.5949 25.6063 25.5949 26.4466C25.5949 25.6063 26.3059 24.9258 27.1812 24.9258C26.3059 24.9258 25.5949 24.2454 25.5949 23.4062C25.5949 24.2454 24.8851 24.9258 24.0098 24.9258Z" fill="black"/>
</mask>
<g mask="url(#mask29_275_3192)">
<path d="M24.015 26.583L27.3217 26.4422L27.1748 23.2734L23.8682 23.4142L24.015 26.583Z" fill="#DDDDDD"/>
</g>
</g>
</g>
<mask id="mask30_275_3192" style="mask-type:alpha" maskUnits="userSpaceOnUse" x="28" y="24" width="4" height="4">
<path d="M28.4805 24.875H31.4643V27.4494H28.4805V24.875Z" fill="black"/>
</mask>
<g mask="url(#mask30_275_3192)">
<mask id="mask31_275_3192" style="mask-type:alpha" maskUnits="userSpaceOnUse" x="28" y="24" width="4" height="4">
<path d="M28.7578 26.056C29.4292 26.056 29.9735 26.5789 29.9735 27.2225C29.9735 26.5789 30.519 26.056 31.1903 26.056C30.519 26.056 29.9735 25.5342 29.9735 24.8906C29.9735 25.5342 29.4292 26.056 28.7578 26.056Z" fill="black"/>
</mask>
<g mask="url(#mask31_275_3192)">
<mask id="mask32_275_3192" style="mask-type:alpha" maskUnits="userSpaceOnUse" x="28" y="24" width="4" height="4">
<path d="M28.7578 26.056C29.4292 26.056 29.9735 26.5789 29.9735 27.2225C29.9735 26.5789 30.519 26.056 31.1903 26.056C30.519 26.056 29.9735 25.5342 29.9735 24.8906C29.9735 25.5342 29.4292 26.056 28.7578 26.056Z" fill="black"/>
</mask>
<g mask="url(#mask32_275_3192)">
<path d="M28.7634 27.3277L31.2985 27.2204L31.1866 24.7891L28.6504 24.8974L28.7634 27.3277Z" fill="#DDDDDD"/>
</g>
</g>
</g>
<mask id="mask33_275_3192" style="mask-type:alpha" maskUnits="userSpaceOnUse" x="26" y="20" width="4" height="2">
<path d="M26.9863 20H29.075V21.7162H26.9863V20Z" fill="black"/>
</mask>
<g mask="url(#mask33_275_3192)">
<mask id="mask34_275_3192" style="mask-type:alpha" maskUnits="userSpaceOnUse" x="27" y="20" width="2" height="2">
<path d="M27.1758 20.8603C27.6175 20.8603 27.9753 21.2033 27.9753 21.6279C27.9753 21.2033 28.3343 20.8603 28.7761 20.8603C28.3343 20.8603 27.9753 20.5172 27.9753 20.0938C27.9753 20.5172 27.6175 20.8603 27.1758 20.8603Z" fill="black"/>
</mask>
<g mask="url(#mask34_275_3192)">
<mask id="mask35_275_3192" style="mask-type:alpha" maskUnits="userSpaceOnUse" x="27" y="20" width="2" height="2">
<path d="M27.1758 20.8603C27.6175 20.8603 27.9753 21.2033 27.9753 21.6279C27.9753 21.2033 28.3343 20.8603 28.7761 20.8603C28.3343 20.8603 27.9753 20.5172 27.9753 20.0938C27.9753 20.5172 27.6175 20.8603 27.1758 20.8603Z" fill="black"/>
</mask>
<g mask="url(#mask35_275_3192)">
<path d="M27.183 21.6693L28.8509 21.5989L28.7763 20L27.1084 20.0704L27.183 21.6693Z" fill="#DDDDDD"/>
</g>
</g>
</g>
<mask id="mask36_275_3192" style="mask-type:alpha" maskUnits="userSpaceOnUse" x="0" y="26" width="33" height="13">
<path d="M0 26.8984H32.2252V38.9122H0V26.8984Z" fill="black"/>
</mask>
<g mask="url(#mask36_275_3192)">
<mask id="mask37_275_3192" style="mask-type:alpha" maskUnits="userSpaceOnUse" x="0" y="26" width="33" height="13">
<path d="M1.45536 34.7187C3.11394 36.8271 5.57442 37.0875 8.08618 37.207C9.98953 37.2964 11.6772 37.0104 13.5328 36.607C14.8044 36.331 16.1297 35.9511 17.4234 35.8204C18.7463 35.6874 20.2907 35.483 21.525 36.0226C22.7978 36.5791 23.6008 37.4607 24.0496 38.683L32.2073 30.4124C30.9263 29.8292 29.0008 29.0012 27.5182 28.8861C25.7909 28.7509 24.8736 28.9152 23.229 29.3197C20.5296 29.9856 18.7405 31.7186 16.4304 33.1142C13.717 34.7545 10.6597 35.5612 7.45096 35.5612C4.53125 35.5612 2.36915 35.055 0.864427 32.4404C0.211718 31.3041 0.0963285 28.5096 0.79799 26.9453C-0.466633 29.1979 -0.114636 32.722 1.45536 34.7187Z" fill="black"/>
</mask>
<g mask="url(#mask37_275_3192)">
<mask id="mask38_275_3192" style="mask-type:alpha" maskUnits="userSpaceOnUse" x="0" y="26" width="33" height="13">
<path d="M1.45536 34.7187C3.11394 36.8271 5.57442 37.0875 8.08618 37.207C9.98953 37.2964 11.6772 37.0104 13.5328 36.607C14.8044 36.331 16.1297 35.9511 17.4234 35.8204C18.7463 35.6874 20.2907 35.483 21.525 36.0226C22.7978 36.5791 23.6008 37.4607 24.0496 38.683L32.2073 30.4124C30.9263 29.8292 29.0008 29.0012 27.5182 28.8861C25.7909 28.7509 24.8736 28.9152 23.229 29.3197C20.5296 29.9856 18.7405 31.7186 16.4304 33.1142C13.717 34.7545 10.6597 35.5612 7.45096 35.5612C4.53125 35.5612 2.36915 35.055 0.864427 32.4404C0.211718 31.3041 0.0963285 28.5096 0.79799 26.9453C-0.466633 29.1979 -0.114636 32.722 1.45536 34.7187Z" fill="black"/>
</mask>
<g mask="url(#mask38_275_3192)">
<path d="M-0.403301 40.0802L32.7485 38.6679L32.1412 25.5625L-1.01172 26.9748L-0.403301 40.0802Z" fill="#0E3D4B"/>
</g>
</g>
</g>
</svg>
